<?xml version="1.0" encoding="utf-8"?>
<!-- Generator: Adobe Illustrator 16.0.0, SVG Export Plug-In . SVG Version: 6.00 Build 0)  -->
<!DOCTYPE svg PUBLIC "-//W3C//DTD SVG 1.1//EN" "http://www.w3.org/Graphics/SVG/1.1/DTD/svg11.dtd">
<svg version="1.1" id="Layer_1" xmlns="http://www.w3.org/2000/svg" xmlns:xlink="http://www.w3.org/1999/xlink" x="0px" y="0px"
	 width="1280px" height="800px" viewBox="0 0 1280 800" enable-background="new 0 0 1280 800" xml:space="preserve">
<g id="texts">
	<g enable-background="new    ">
		<path d="M721.518,37.248h2.879c2.674,0,4.186,1.284,4.186,4.139v0.264c0,2.807-1.367,4.342-4.174,4.342h-2.891V37.248z
			 M724.42,44.757c1.703,0,2.495-0.84,2.495-2.951v-0.432c0-2.206-0.96-2.891-2.614-2.891h-1.212v6.273H724.42z"/>
		<path d="M731.681,46.111c-1.188,0-2.026-0.6-2.026-1.858c0-1.212,0.803-1.775,2.11-1.967l1.548-0.181v-0.503
			c0-0.888-0.396-1.092-1.512-1.092c-0.636,0-1.199,0.096-1.596,0.18v-1.007c0.612-0.24,1.32-0.36,2.172-0.36
			c1.522,0,2.398,0.588,2.398,1.955v4.714h-1.212l-0.12-0.528h-0.072C733.061,45.836,732.532,46.111,731.681,46.111z M732.125,45.08
			c0.467,0,0.947-0.168,1.188-0.396v-1.619l-1.212,0.12c-0.659,0.06-0.995,0.323-0.995,0.983
			C731.105,44.805,731.525,45.08,732.125,45.08z"/>
		<path d="M736.506,37.009h1.499v1.331h-1.499V37.009z M736.518,39.432h1.475v6.561h-1.475V39.432z"/>
		<path d="M739.793,36.673h1.476v9.319h-1.476V36.673z"/>
		<path d="M743.789,47.887c-0.336,0-0.768-0.096-0.959-0.216v-0.983c0.168,0.036,0.407,0.06,0.646,0.06
			c0.6,0,0.984-0.155,1.225-0.779l0.18-0.456l-2.482-6.08h1.559l1.654,4.258h0.049l1.535-4.258h1.415l-2.53,6.74
			C745.637,47.431,745,47.887,743.789,47.887z"/>
		<path d="M753.245,37.248h3.059c2.063,0,3.095,0.948,3.095,2.688c0,1.822-1.164,2.782-2.986,2.782h-1.596v3.274h-1.571V37.248z
			 M756.123,41.542c1.176,0,1.632-0.491,1.632-1.511c0-1.151-0.456-1.571-1.607-1.571h-1.331v3.082H756.123z"/>
		<path d="M762.16,46.111c-1.188,0-2.027-0.6-2.027-1.858c0-1.212,0.805-1.775,2.111-1.967l1.547-0.181v-0.503
			c0-0.888-0.396-1.092-1.511-1.092c-0.636,0-1.199,0.096-1.595,0.18v-1.007c0.611-0.24,1.318-0.36,2.17-0.36
			c1.523,0,2.398,0.588,2.398,1.955v4.714h-1.211l-0.119-0.528h-0.072C763.539,45.836,763.012,46.111,762.16,46.111z M762.604,45.08
			c0.469,0,0.947-0.168,1.188-0.396v-1.619l-1.211,0.12c-0.66,0.06-0.996,0.323-0.996,0.983
			C761.584,44.805,762.004,45.08,762.604,45.08z"/>
		<path d="M768.76,46.1c-0.852,0-1.619-0.156-2.158-0.443v-1.08c0.539,0.216,1.031,0.408,1.943,0.408c0.923,0,1.307-0.3,1.307-0.792
			c0-0.468-0.252-0.695-0.972-0.852l-0.611-0.132c-1.007-0.216-1.667-0.72-1.667-1.895c0-1.212,0.768-1.991,2.435-1.991
			c0.888,0,1.451,0.168,1.883,0.36v1.103c-0.384-0.155-1.02-0.348-1.763-0.348c-0.768,0-1.176,0.252-1.176,0.756
			c0,0.468,0.264,0.636,0.888,0.779l0.624,0.145c1.283,0.3,1.787,0.804,1.787,1.942C771.279,45.428,770.367,46.1,768.76,46.1z"/>
		<path d="M774.436,46.1c-0.852,0-1.619-0.156-2.158-0.443v-1.08c0.539,0.216,1.031,0.408,1.943,0.408
			c0.923,0,1.307-0.3,1.307-0.792c0-0.468-0.252-0.695-0.972-0.852l-0.611-0.132c-1.007-0.216-1.667-0.72-1.667-1.895
			c0-1.212,0.768-1.991,2.435-1.991c0.888,0,1.451,0.168,1.883,0.36v1.103c-0.384-0.155-1.02-0.348-1.763-0.348
			c-0.768,0-1.176,0.252-1.176,0.756c0,0.468,0.264,0.636,0.888,0.779l0.624,0.145c1.283,0.3,1.787,0.804,1.787,1.942
			C776.955,45.428,776.043,46.1,774.436,46.1z"/>
		<path d="M781.203,46.111c-2.182,0-3.25-1.235-3.25-3.322v-0.168c0-2.206,1.332-3.298,3.011-3.298c1.931,0,2.771,1.092,2.771,3.179
			v0.611h-4.281c0.096,1.367,0.791,1.847,2.039,1.847c0.839,0,1.451-0.191,2.026-0.479v1.02
			C783.074,45.788,782.307,46.111,781.203,46.111z M780.928,40.402c-0.672,0-1.367,0.36-1.475,1.703h2.794
			C782.247,40.87,781.791,40.402,780.928,40.402z"/>
		<path d="M785.093,39.432h1.415v0.587h0.061c0.552-0.419,1.355-0.707,2.158-0.707c1.26,0,1.907,0.516,1.907,1.811v4.87h-1.476
			v-4.521c0-0.66-0.215-0.936-1.115-0.936c-0.504,0-1.079,0.168-1.475,0.359v5.098h-1.476V39.432z"/>
		<path d="M794.74,47.862c-2.052,0-3.035-0.587-3.035-1.522c0-0.672,0.54-1.08,1.224-1.283v-0.061
			c-0.396-0.132-0.684-0.491-0.684-0.947c0-0.443,0.288-0.72,0.768-1.02c-0.504-0.324-0.827-0.804-0.827-1.547v-0.12
			c0-1.344,1.066-2.039,2.626-2.039c0.36,0,0.696,0.036,1.02,0.108h2.219v0.959h-1.007c0.215,0.252,0.335,0.528,0.335,0.936v0.096
			c0,1.403-1.103,2.016-2.579,2.016c-0.371,0-0.73-0.036-1.043-0.132c-0.144,0.132-0.24,0.167-0.24,0.335
			c0,0.312,0.181,0.433,0.588,0.433h1.812c1.259,0,2.135,0.443,2.135,1.654C798.05,46.951,797.055,47.862,794.74,47.862z
			 M794.715,46.867c1.368,0,1.824-0.348,1.824-0.899c0-0.504-0.229-0.659-1.02-0.659h-1.68c-0.396,0.132-0.672,0.371-0.672,0.815
			C793.168,46.615,793.588,46.867,794.715,46.867z M794.799,42.489c0.744,0,1.152-0.275,1.152-1.007v-0.168
			c0-0.779-0.443-1.056-1.152-1.056c-0.755,0-1.175,0.336-1.175,1.031v0.156C793.624,42.214,794.068,42.489,794.799,42.489z"/>
		<path d="M802.071,46.111c-2.183,0-3.25-1.235-3.25-3.322v-0.168c0-2.206,1.331-3.298,3.011-3.298c1.93,0,2.77,1.092,2.77,3.179
			v0.611h-4.281c0.096,1.367,0.791,1.847,2.039,1.847c0.84,0,1.451-0.191,2.027-0.479v1.02
			C803.942,45.788,803.175,46.111,802.071,46.111z M801.795,40.402c-0.671,0-1.367,0.36-1.475,1.703h2.795
			C803.115,40.87,802.659,40.402,801.795,40.402z"/>
		<path d="M805.961,39.432h1.415v0.755h0.06c0.36-0.468,1.031-0.815,1.715-0.815c0.181,0,0.348,0.013,0.408,0.048v1.296
			c-0.156-0.024-0.384-0.036-0.527-0.036c-0.588,0-1.176,0.168-1.596,0.432v4.882h-1.475V39.432z"/>
		<path d="M812.572,46.1c-0.852,0-1.619-0.156-2.159-0.443v-1.08c0.54,0.216,1.031,0.408,1.942,0.408c0.924,0,1.308-0.3,1.308-0.792
			c0-0.468-0.252-0.695-0.972-0.852l-0.611-0.132c-1.008-0.216-1.667-0.72-1.667-1.895c0-1.212,0.768-1.991,2.435-1.991
			c0.887,0,1.451,0.168,1.883,0.36v1.103c-0.384-0.155-1.02-0.348-1.764-0.348c-0.768,0-1.175,0.252-1.175,0.756
			c0,0.468,0.265,0.636,0.888,0.779l0.623,0.145c1.283,0.3,1.787,0.804,1.787,1.942C815.09,45.428,814.179,46.1,812.572,46.1z"/>
		<path d="M821.919,47.323c-1.224-1.151-2.362-2.975-2.362-5.302v-0.239c0-2.327,1.139-4.138,2.362-5.289h1.26
			c-1.151,1.271-2.11,3.118-2.11,5.181v0.36c0,2.026,0.959,4.006,2.11,5.289H821.919z"/>
		<path d="M826.599,37.248h1.607l3.106,8.744h-1.619l-0.792-2.219h-3.25l-0.792,2.219h-1.451L826.599,37.248z M826.023,42.598h2.482
			l-1.223-3.49h-0.037L826.023,42.598z"/>
		<path d="M831.232,39.432h1.571l1.595,4.797h0.061l1.619-4.797h1.415l-2.374,6.561h-1.5L831.232,39.432z"/>
		<path d="M840.783,47.862c-2.051,0-3.035-0.587-3.035-1.522c0-0.672,0.541-1.08,1.225-1.283v-0.061
			c-0.396-0.132-0.684-0.491-0.684-0.947c0-0.443,0.287-0.72,0.768-1.02c-0.504-0.324-0.828-0.804-0.828-1.547v-0.12
			c0-1.344,1.067-2.039,2.627-2.039c0.359,0,0.695,0.036,1.02,0.108h2.219v0.959h-1.008c0.216,0.252,0.336,0.528,0.336,0.936v0.096
			c0,1.403-1.104,2.016-2.579,2.016c-0.372,0-0.731-0.036-1.044-0.132c-0.143,0.132-0.239,0.167-0.239,0.335
			c0,0.312,0.181,0.433,0.588,0.433h1.812c1.259,0,2.135,0.443,2.135,1.654C844.094,46.951,843.098,47.862,840.783,47.862z
			 M840.759,46.867c1.368,0,1.823-0.348,1.823-0.899c0-0.504-0.229-0.659-1.02-0.659h-1.68c-0.395,0.132-0.671,0.371-0.671,0.815
			C839.212,46.615,839.632,46.867,840.759,46.867z M840.843,42.489c0.743,0,1.151-0.275,1.151-1.007v-0.168
			c0-0.779-0.443-1.056-1.151-1.056c-0.755,0-1.175,0.336-1.175,1.031v0.156C839.668,42.214,840.111,42.489,840.843,42.489z"/>
		<path d="M845.188,44.708h1.56v1.5h-1.56V44.708z"/>
		<path d="M847.686,47.323c1.15-1.271,2.11-3.131,2.11-5.182v-0.371c0-2.003-0.96-3.994-2.11-5.277h1.259
			c1.211,1.151,2.351,2.975,2.351,5.289v0.239c0,2.339-1.14,4.15-2.351,5.302H847.686z"/>
		<path d="M856.252,39.275h1.56v1.499h-1.56V39.275z M856.252,43.893h1.56v1.512h-1.56V43.893z"/>
	</g>
	<g enable-background="new    ">
		<path d="M721.518,111.037h2.879c2.674,0,4.186,1.284,4.186,4.139v0.264c0,2.807-1.367,4.342-4.174,4.342h-2.891V111.037z
			 M724.42,118.546c1.703,0,2.495-0.84,2.495-2.951v-0.432c0-2.206-0.96-2.891-2.614-2.891h-1.212v6.273H724.42z"/>
		<path d="M731.681,119.9c-1.188,0-2.026-0.6-2.026-1.858c0-1.212,0.803-1.775,2.11-1.967l1.548-0.181v-0.503
			c0-0.888-0.396-1.092-1.512-1.092c-0.636,0-1.199,0.096-1.596,0.18v-1.007c0.612-0.24,1.32-0.36,2.172-0.36
			c1.522,0,2.398,0.588,2.398,1.955v4.714h-1.212l-0.12-0.528h-0.072C733.061,119.625,732.532,119.9,731.681,119.9z
			 M732.125,118.869c0.467,0,0.947-0.168,1.188-0.396v-1.619l-1.212,0.12c-0.659,0.06-0.995,0.323-0.995,0.983
			C731.105,118.594,731.525,118.869,732.125,118.869z"/>
		<path d="M736.506,110.798h1.499v1.331h-1.499V110.798z M736.518,113.221h1.475v6.561h-1.475V113.221z"/>
		<path d="M739.793,110.462h1.476v9.319h-1.476V110.462z"/>
		<path d="M743.789,121.676c-0.336,0-0.768-0.096-0.959-0.216v-0.983c0.168,0.036,0.407,0.06,0.646,0.06
			c0.6,0,0.984-0.155,1.225-0.779l0.18-0.456l-2.482-6.08h1.559l1.654,4.258h0.049l1.535-4.258h1.415l-2.53,6.74
			C745.637,121.22,745,121.676,743.789,121.676z"/>
		<path d="M753.245,111.037h3.059c2.063,0,3.095,0.948,3.095,2.688c0,1.822-1.164,2.782-2.986,2.782h-1.596v3.274h-1.571V111.037z
			 M756.123,115.331c1.176,0,1.632-0.491,1.632-1.511c0-1.151-0.456-1.571-1.607-1.571h-1.331v3.082H756.123z"/>
		<path d="M762.16,119.9c-1.188,0-2.027-0.6-2.027-1.858c0-1.212,0.805-1.775,2.111-1.967l1.547-0.181v-0.503
			c0-0.888-0.396-1.092-1.511-1.092c-0.636,0-1.199,0.096-1.595,0.18v-1.007c0.611-0.24,1.318-0.36,2.17-0.36
			c1.523,0,2.398,0.588,2.398,1.955v4.714h-1.211l-0.119-0.528h-0.072C763.539,119.625,763.012,119.9,762.16,119.9z
			 M762.604,118.869c0.469,0,0.947-0.168,1.188-0.396v-1.619l-1.211,0.12c-0.66,0.06-0.996,0.323-0.996,0.983
			C761.584,118.594,762.004,118.869,762.604,118.869z"/>
		<path d="M768.76,119.889c-0.852,0-1.619-0.156-2.158-0.443v-1.08c0.539,0.216,1.031,0.408,1.943,0.408
			c0.923,0,1.307-0.3,1.307-0.792c0-0.468-0.252-0.695-0.972-0.852l-0.611-0.132c-1.007-0.216-1.667-0.72-1.667-1.895
			c0-1.212,0.768-1.991,2.435-1.991c0.888,0,1.451,0.168,1.883,0.36v1.103c-0.384-0.155-1.02-0.348-1.763-0.348
			c-0.768,0-1.176,0.252-1.176,0.756c0,0.468,0.264,0.636,0.888,0.779l0.624,0.145c1.283,0.3,1.787,0.804,1.787,1.942
			C771.279,119.217,770.367,119.889,768.76,119.889z"/>
		<path d="M774.436,119.889c-0.852,0-1.619-0.156-2.158-0.443v-1.08c0.539,0.216,1.031,0.408,1.943,0.408
			c0.923,0,1.307-0.3,1.307-0.792c0-0.468-0.252-0.695-0.972-0.852l-0.611-0.132c-1.007-0.216-1.667-0.72-1.667-1.895
			c0-1.212,0.768-1.991,2.435-1.991c0.888,0,1.451,0.168,1.883,0.36v1.103c-0.384-0.155-1.02-0.348-1.763-0.348
			c-0.768,0-1.176,0.252-1.176,0.756c0,0.468,0.264,0.636,0.888,0.779l0.624,0.145c1.283,0.3,1.787,0.804,1.787,1.942
			C776.955,119.217,776.043,119.889,774.436,119.889z"/>
		<path d="M781.203,119.9c-2.182,0-3.25-1.235-3.25-3.322v-0.168c0-2.206,1.332-3.298,3.011-3.298c1.931,0,2.771,1.092,2.771,3.179
			v0.611h-4.281c0.096,1.367,0.791,1.847,2.039,1.847c0.839,0,1.451-0.191,2.026-0.479v1.02
			C783.074,119.577,782.307,119.9,781.203,119.9z M780.928,114.191c-0.672,0-1.367,0.36-1.475,1.703h2.794
			C782.247,114.659,781.791,114.191,780.928,114.191z"/>
		<path d="M785.093,113.221h1.415v0.587h0.061c0.552-0.419,1.355-0.707,2.158-0.707c1.26,0,1.907,0.516,1.907,1.811v4.87h-1.476
			v-4.521c0-0.66-0.215-0.936-1.115-0.936c-0.504,0-1.079,0.168-1.475,0.359v5.098h-1.476V113.221z"/>
		<path d="M794.74,121.651c-2.052,0-3.035-0.587-3.035-1.522c0-0.672,0.54-1.08,1.224-1.283v-0.061
			c-0.396-0.132-0.684-0.491-0.684-0.947c0-0.443,0.288-0.72,0.768-1.02c-0.504-0.324-0.827-0.804-0.827-1.547v-0.12
			c0-1.344,1.066-2.039,2.626-2.039c0.36,0,0.696,0.036,1.02,0.108h2.219v0.959h-1.007c0.215,0.252,0.335,0.528,0.335,0.936v0.096
			c0,1.403-1.103,2.016-2.579,2.016c-0.371,0-0.73-0.036-1.043-0.132c-0.144,0.132-0.24,0.167-0.24,0.335
			c0,0.312,0.181,0.433,0.588,0.433h1.812c1.259,0,2.135,0.443,2.135,1.654C798.05,120.74,797.055,121.651,794.74,121.651z
			 M794.715,120.656c1.368,0,1.824-0.348,1.824-0.899c0-0.504-0.229-0.659-1.02-0.659h-1.68c-0.396,0.132-0.672,0.371-0.672,0.815
			C793.168,120.404,793.588,120.656,794.715,120.656z M794.799,116.278c0.744,0,1.152-0.275,1.152-1.007v-0.168
			c0-0.779-0.443-1.056-1.152-1.056c-0.755,0-1.175,0.336-1.175,1.031v0.156C793.624,116.003,794.068,116.278,794.799,116.278z"/>
		<path d="M802.071,119.9c-2.183,0-3.25-1.235-3.25-3.322v-0.168c0-2.206,1.331-3.298,3.011-3.298c1.93,0,2.77,1.092,2.77,3.179
			v0.611h-4.281c0.096,1.367,0.791,1.847,2.039,1.847c0.84,0,1.451-0.191,2.027-0.479v1.02
			C803.942,119.577,803.175,119.9,802.071,119.9z M801.795,114.191c-0.671,0-1.367,0.36-1.475,1.703h2.795
			C803.115,114.659,802.659,114.191,801.795,114.191z"/>
		<path d="M805.961,113.221h1.415v0.755h0.06c0.36-0.468,1.031-0.815,1.715-0.815c0.181,0,0.348,0.013,0.408,0.048v1.296
			c-0.156-0.024-0.384-0.036-0.527-0.036c-0.588,0-1.176,0.168-1.596,0.432v4.882h-1.475V113.221z"/>
		<path d="M812.572,119.889c-0.852,0-1.619-0.156-2.159-0.443v-1.08c0.54,0.216,1.031,0.408,1.942,0.408
			c0.924,0,1.308-0.3,1.308-0.792c0-0.468-0.252-0.695-0.972-0.852l-0.611-0.132c-1.008-0.216-1.667-0.72-1.667-1.895
			c0-1.212,0.768-1.991,2.435-1.991c0.887,0,1.451,0.168,1.883,0.36v1.103c-0.384-0.155-1.02-0.348-1.764-0.348
			c-0.768,0-1.175,0.252-1.175,0.756c0,0.468,0.265,0.636,0.888,0.779l0.623,0.145c1.283,0.3,1.787,0.804,1.787,1.942
			C815.09,119.217,814.179,119.889,812.572,119.889z"/>
		<path d="M819.185,116.519v-1.02h6.704v1.02H819.185z M822.52,114.563c-0.492,0-0.828-0.359-0.828-0.863s0.336-0.852,0.84-0.852
			s0.803,0.348,0.814,0.852c0,0.504-0.311,0.863-0.814,0.863H822.52z M822.52,119.169c-0.492,0-0.828-0.359-0.828-0.839
			c0-0.517,0.336-0.876,0.84-0.876s0.803,0.359,0.814,0.876c0,0.479-0.311,0.839-0.814,0.839H822.52z"/>
		<path d="M830.536,111.037h3.07c2.015,0,2.878,0.816,2.878,2.207c0,0.912-0.383,1.583-1.427,1.907v0.048
			c1.092,0.204,1.812,0.815,1.812,2.087c0,1.451-0.984,2.495-3.047,2.495h-3.286V111.037z M833.318,114.756
			c0.924,0,1.607-0.3,1.607-1.296c0-0.947-0.539-1.259-1.547-1.259h-1.283v2.555H833.318z M833.595,118.617
			c1.067,0,1.631-0.468,1.631-1.427c0-0.996-0.6-1.38-1.715-1.38h-1.415v2.807H833.595z"/>
		<path d="M840.255,119.9c-1.271,0-1.991-0.623-1.991-1.906v-4.773h1.476v4.485c0,0.72,0.252,1.007,1.067,1.007
			c0.576,0,1.043-0.203,1.463-0.396v-5.097h1.463v6.561h-1.271l-0.132-0.564h-0.061C841.719,119.613,841.082,119.9,840.255,119.9z"
			/>
		<path d="M847.264,119.889c-0.852,0-1.619-0.156-2.159-0.443v-1.08c0.54,0.216,1.031,0.408,1.942,0.408
			c0.924,0,1.308-0.3,1.308-0.792c0-0.468-0.252-0.695-0.972-0.852l-0.611-0.132c-1.008-0.216-1.667-0.72-1.667-1.895
			c0-1.212,0.768-1.991,2.435-1.991c0.887,0,1.451,0.168,1.883,0.36v1.103c-0.384-0.155-1.02-0.348-1.764-0.348
			c-0.768,0-1.175,0.252-1.175,0.756c0,0.468,0.265,0.636,0.888,0.779l0.623,0.145c1.283,0.3,1.787,0.804,1.787,1.942
			C849.781,119.217,848.87,119.889,847.264,119.889z"/>
		<path d="M854.03,119.9c-2.183,0-3.25-1.235-3.25-3.322v-0.168c0-2.206,1.331-3.298,3.011-3.298c1.93,0,2.77,1.092,2.77,3.179
			v0.611h-4.281c0.096,1.367,0.791,1.847,2.039,1.847c0.84,0,1.451-0.191,2.027-0.479v1.02
			C855.901,119.577,855.134,119.9,854.03,119.9z M853.754,114.191c-0.671,0-1.367,0.36-1.475,1.703h2.795
			C855.074,114.659,854.618,114.191,853.754,114.191z"/>
		<path d="M859.719,119.889c-0.852,0-1.619-0.156-2.158-0.443v-1.08c0.539,0.216,1.031,0.408,1.942,0.408
			c0.923,0,1.308-0.3,1.308-0.792c0-0.468-0.252-0.695-0.972-0.852l-0.612-0.132c-1.007-0.216-1.666-0.72-1.666-1.895
			c0-1.212,0.768-1.991,2.434-1.991c0.888,0,1.451,0.168,1.883,0.36v1.103c-0.383-0.155-1.02-0.348-1.763-0.348
			c-0.768,0-1.175,0.252-1.175,0.756c0,0.468,0.264,0.636,0.887,0.779l0.624,0.145c1.283,0.3,1.787,0.804,1.787,1.942
			C862.237,119.217,861.326,119.889,859.719,119.889z"/>
		<path d="M869.702,119.9c-2.003,0-3.106-1.211-3.106-3.262v-0.204c0-2.11,1.271-3.334,3.119-3.334c1.967,0,3.105,1.199,3.105,3.286
			v0.18C872.82,118.689,871.537,119.9,869.702,119.9z M869.727,118.797c0.983,0,1.559-0.684,1.559-2.099v-0.323
			c0-1.703-0.707-2.159-1.595-2.159c-1.008,0-1.595,0.695-1.595,2.111v0.312C868.096,118.33,868.814,118.797,869.727,118.797z"/>
		<path d="M874.168,113.221h1.415v0.587h0.06c0.553-0.419,1.355-0.707,2.159-0.707c1.259,0,1.907,0.516,1.907,1.811v4.87h-1.476
			v-4.521c0-0.66-0.216-0.936-1.115-0.936c-0.504,0-1.079,0.168-1.476,0.359v5.098h-1.475V113.221z"/>
		<path d="M886.562,119.889c-0.852,0-1.619-0.156-2.158-0.443v-1.08c0.539,0.216,1.031,0.408,1.942,0.408
			c0.923,0,1.308-0.3,1.308-0.792c0-0.468-0.252-0.695-0.972-0.852l-0.612-0.132c-1.007-0.216-1.666-0.72-1.666-1.895
			c0-1.212,0.768-1.991,2.434-1.991c0.888,0,1.451,0.168,1.883,0.36v1.103c-0.383-0.155-1.02-0.348-1.763-0.348
			c-0.768,0-1.175,0.252-1.175,0.756c0,0.468,0.264,0.636,0.887,0.779l0.624,0.145c1.283,0.3,1.787,0.804,1.787,1.942
			C889.081,119.217,888.17,119.889,886.562,119.889z"/>
		<path d="M893.33,119.9c-2.183,0-3.25-1.235-3.25-3.322v-0.168c0-2.206,1.331-3.298,3.01-3.298c1.932,0,2.771,1.092,2.771,3.179
			v0.611h-4.282c0.096,1.367,0.792,1.847,2.039,1.847c0.839,0,1.451-0.191,2.026-0.479v1.02
			C895.201,119.577,894.434,119.9,893.33,119.9z M893.055,114.191c-0.672,0-1.367,0.36-1.476,1.703h2.794
			C894.373,114.659,893.918,114.191,893.055,114.191z"/>
		<path d="M897.22,113.221h1.415v0.755h0.061c0.359-0.468,1.031-0.815,1.715-0.815c0.18,0,0.348,0.013,0.407,0.048v1.296
			c-0.155-0.024-0.384-0.036-0.527-0.036c-0.588,0-1.176,0.168-1.595,0.432v4.882h-1.476V113.221z"/>
		<path d="M901.551,113.221h1.572l1.595,4.797h0.06l1.619-4.797h1.416l-2.375,6.561h-1.5L901.551,113.221z"/>
		<path d="M908.967,110.798h1.5v1.331h-1.5V110.798z M908.979,113.221h1.476v6.561h-1.476V113.221z"/>
		<path d="M914.989,119.9c-1.942,0-3.13-1.079-3.13-3.25v-0.204c0-2.278,1.367-3.346,3.202-3.346c0.863,0,1.379,0.168,1.812,0.396
			v1.151c-0.553-0.216-0.948-0.359-1.728-0.359c-1.091,0-1.775,0.684-1.775,2.003v0.287c0,1.512,0.624,2.147,1.871,2.147
			c0.815,0,1.355-0.252,1.691-0.408v1.08C916.513,119.661,915.9,119.9,914.989,119.9z"/>
		<path d="M921.098,119.9c-2.184,0-3.25-1.235-3.25-3.322v-0.168c0-2.206,1.33-3.298,3.01-3.298c1.931,0,2.771,1.092,2.771,3.179
			v0.611h-4.282c0.096,1.367,0.792,1.847,2.039,1.847c0.84,0,1.451-0.191,2.027-0.479v1.02
			C922.969,119.577,922.201,119.9,921.098,119.9z M920.821,114.191c-0.671,0-1.367,0.36-1.476,1.703h2.795
			C922.141,114.659,921.686,114.191,920.821,114.191z"/>
		<path d="M930.458,121.112c-1.224-1.151-2.362-2.975-2.362-5.302v-0.239c0-2.327,1.139-4.138,2.362-5.289h1.259
			c-1.15,1.271-2.11,3.118-2.11,5.181v0.36c0,2.026,0.96,4.006,2.11,5.289H930.458z"/>
		<path d="M935.138,111.037h1.606l3.107,8.744h-1.619l-0.792-2.219h-3.251l-0.791,2.219h-1.451L935.138,111.037z M934.562,116.387
			h2.483l-1.224-3.49h-0.036L934.562,116.387z"/>
		<path d="M939.771,113.221h1.57l1.596,4.797h0.061l1.619-4.797h1.414l-2.374,6.561h-1.499L939.771,113.221z"/>
		<path d="M949.322,121.651c-2.052,0-3.035-0.587-3.035-1.522c0-0.672,0.54-1.08,1.224-1.283v-0.061
			c-0.396-0.132-0.684-0.491-0.684-0.947c0-0.443,0.288-0.72,0.768-1.02c-0.504-0.324-0.827-0.804-0.827-1.547v-0.12
			c0-1.344,1.066-2.039,2.626-2.039c0.36,0,0.696,0.036,1.02,0.108h2.219v0.959h-1.007c0.215,0.252,0.335,0.528,0.335,0.936v0.096
			c0,1.403-1.103,2.016-2.579,2.016c-0.371,0-0.73-0.036-1.043-0.132c-0.144,0.132-0.24,0.167-0.24,0.335
			c0,0.312,0.181,0.433,0.588,0.433h1.812c1.259,0,2.135,0.443,2.135,1.654C952.632,120.74,951.637,121.651,949.322,121.651z
			 M949.297,120.656c1.368,0,1.824-0.348,1.824-0.899c0-0.504-0.229-0.659-1.02-0.659h-1.68c-0.396,0.132-0.672,0.371-0.672,0.815
			C947.75,120.404,948.17,120.656,949.297,120.656z M949.381,116.278c0.744,0,1.152-0.275,1.152-1.007v-0.168
			c0-0.779-0.443-1.056-1.152-1.056c-0.755,0-1.175,0.336-1.175,1.031v0.156C948.206,116.003,948.65,116.278,949.381,116.278z"/>
		<path d="M953.727,118.497h1.56v1.5h-1.56V118.497z"/>
		<path d="M956.223,121.112c1.152-1.271,2.111-3.131,2.111-5.182v-0.371c0-2.003-0.959-3.994-2.111-5.277h1.26
			c1.211,1.151,2.351,2.975,2.351,5.289v0.239c0,2.339-1.14,4.15-2.351,5.302H956.223z"/>
		<path d="M964.791,113.064h1.559v1.499h-1.559V113.064z M964.791,117.682h1.559v1.512h-1.559V117.682z"/>
	</g>
	<g enable-background="new    ">
		<path d="M721.518,184.826h2.879c2.674,0,4.186,1.284,4.186,4.139v0.264c0,2.807-1.367,4.342-4.174,4.342h-2.891V184.826z
			 M724.42,192.335c1.703,0,2.495-0.84,2.495-2.951v-0.432c0-2.206-0.96-2.891-2.614-2.891h-1.212v6.273H724.42z"/>
		<path d="M731.681,193.689c-1.188,0-2.026-0.6-2.026-1.858c0-1.212,0.803-1.775,2.11-1.967l1.548-0.181v-0.503
			c0-0.888-0.396-1.092-1.512-1.092c-0.636,0-1.199,0.096-1.596,0.18v-1.007c0.612-0.24,1.32-0.36,2.172-0.36
			c1.522,0,2.398,0.588,2.398,1.955v4.714h-1.212l-0.12-0.528h-0.072C733.061,193.414,732.532,193.689,731.681,193.689z
			 M732.125,192.658c0.467,0,0.947-0.168,1.188-0.396v-1.619l-1.212,0.12c-0.659,0.06-0.995,0.323-0.995,0.983
			C731.105,192.383,731.525,192.658,732.125,192.658z"/>
		<path d="M736.506,184.587h1.499v1.331h-1.499V184.587z M736.518,187.01h1.475v6.561h-1.475V187.01z"/>
		<path d="M739.793,184.251h1.476v9.319h-1.476V184.251z"/>
		<path d="M743.789,195.465c-0.336,0-0.768-0.096-0.959-0.216v-0.983c0.168,0.036,0.407,0.06,0.646,0.06
			c0.6,0,0.984-0.155,1.225-0.779l0.18-0.456l-2.482-6.08h1.559l1.654,4.258h0.049l1.535-4.258h1.415l-2.53,6.74
			C745.637,195.009,745,195.465,743.789,195.465z"/>
		<path d="M753.245,184.826h3.059c2.063,0,3.095,0.948,3.095,2.688c0,1.822-1.164,2.782-2.986,2.782h-1.596v3.274h-1.571V184.826z
			 M756.123,189.12c1.176,0,1.632-0.491,1.632-1.511c0-1.151-0.456-1.571-1.607-1.571h-1.331v3.082H756.123z"/>
		<path d="M762.16,193.689c-1.188,0-2.027-0.6-2.027-1.858c0-1.212,0.805-1.775,2.111-1.967l1.547-0.181v-0.503
			c0-0.888-0.396-1.092-1.511-1.092c-0.636,0-1.199,0.096-1.595,0.18v-1.007c0.611-0.24,1.318-0.36,2.17-0.36
			c1.523,0,2.398,0.588,2.398,1.955v4.714h-1.211l-0.119-0.528h-0.072C763.539,193.414,763.012,193.689,762.16,193.689z
			 M762.604,192.658c0.469,0,0.947-0.168,1.188-0.396v-1.619l-1.211,0.12c-0.66,0.06-0.996,0.323-0.996,0.983
			C761.584,192.383,762.004,192.658,762.604,192.658z"/>
		<path d="M768.76,193.678c-0.852,0-1.619-0.156-2.158-0.443v-1.08c0.539,0.216,1.031,0.408,1.943,0.408
			c0.923,0,1.307-0.3,1.307-0.792c0-0.468-0.252-0.695-0.972-0.852l-0.611-0.132c-1.007-0.216-1.667-0.72-1.667-1.895
			c0-1.212,0.768-1.991,2.435-1.991c0.888,0,1.451,0.168,1.883,0.36v1.103c-0.384-0.155-1.02-0.348-1.763-0.348
			c-0.768,0-1.176,0.252-1.176,0.756c0,0.468,0.264,0.636,0.888,0.779l0.624,0.145c1.283,0.3,1.787,0.804,1.787,1.942
			C771.279,193.006,770.367,193.678,768.76,193.678z"/>
		<path d="M774.436,193.678c-0.852,0-1.619-0.156-2.158-0.443v-1.08c0.539,0.216,1.031,0.408,1.943,0.408
			c0.923,0,1.307-0.3,1.307-0.792c0-0.468-0.252-0.695-0.972-0.852l-0.611-0.132c-1.007-0.216-1.667-0.72-1.667-1.895
			c0-1.212,0.768-1.991,2.435-1.991c0.888,0,1.451,0.168,1.883,0.36v1.103c-0.384-0.155-1.02-0.348-1.763-0.348
			c-0.768,0-1.176,0.252-1.176,0.756c0,0.468,0.264,0.636,0.888,0.779l0.624,0.145c1.283,0.3,1.787,0.804,1.787,1.942
			C776.955,193.006,776.043,193.678,774.436,193.678z"/>
		<path d="M781.203,193.689c-2.182,0-3.25-1.235-3.25-3.322v-0.168c0-2.206,1.332-3.298,3.011-3.298
			c1.931,0,2.771,1.092,2.771,3.179v0.611h-4.281c0.096,1.367,0.791,1.847,2.039,1.847c0.839,0,1.451-0.191,2.026-0.479v1.02
			C783.074,193.366,782.307,193.689,781.203,193.689z M780.928,187.98c-0.672,0-1.367,0.36-1.475,1.703h2.794
			C782.247,188.448,781.791,187.98,780.928,187.98z"/>
		<path d="M785.093,187.01h1.415v0.587h0.061c0.552-0.419,1.355-0.707,2.158-0.707c1.26,0,1.907,0.516,1.907,1.811v4.87h-1.476
			v-4.521c0-0.66-0.215-0.936-1.115-0.936c-0.504,0-1.079,0.168-1.475,0.359v5.098h-1.476V187.01z"/>
		<path d="M794.74,195.44c-2.052,0-3.035-0.587-3.035-1.522c0-0.672,0.54-1.08,1.224-1.283v-0.061
			c-0.396-0.132-0.684-0.491-0.684-0.947c0-0.443,0.288-0.72,0.768-1.02c-0.504-0.324-0.827-0.804-0.827-1.547v-0.12
			c0-1.344,1.066-2.039,2.626-2.039c0.36,0,0.696,0.036,1.02,0.108h2.219v0.959h-1.007c0.215,0.252,0.335,0.528,0.335,0.936V189
			c0,1.403-1.103,2.016-2.579,2.016c-0.371,0-0.73-0.036-1.043-0.132c-0.144,0.132-0.24,0.167-0.24,0.335
			c0,0.312,0.181,0.433,0.588,0.433h1.812c1.259,0,2.135,0.443,2.135,1.654C798.05,194.529,797.055,195.44,794.74,195.44z
			 M794.715,194.445c1.368,0,1.824-0.348,1.824-0.899c0-0.504-0.229-0.659-1.02-0.659h-1.68c-0.396,0.132-0.672,0.371-0.672,0.815
			C793.168,194.193,793.588,194.445,794.715,194.445z M794.799,190.067c0.744,0,1.152-0.275,1.152-1.007v-0.168
			c0-0.779-0.443-1.056-1.152-1.056c-0.755,0-1.175,0.336-1.175,1.031v0.156C793.624,189.792,794.068,190.067,794.799,190.067z"/>
		<path d="M802.071,193.689c-2.183,0-3.25-1.235-3.25-3.322v-0.168c0-2.206,1.331-3.298,3.011-3.298c1.93,0,2.77,1.092,2.77,3.179
			v0.611h-4.281c0.096,1.367,0.791,1.847,2.039,1.847c0.84,0,1.451-0.191,2.027-0.479v1.02
			C803.942,193.366,803.175,193.689,802.071,193.689z M801.795,187.98c-0.671,0-1.367,0.36-1.475,1.703h2.795
			C803.115,188.448,802.659,187.98,801.795,187.98z"/>
		<path d="M805.961,187.01h1.415v0.755h0.06c0.36-0.468,1.031-0.815,1.715-0.815c0.181,0,0.348,0.013,0.408,0.048v1.296
			c-0.156-0.024-0.384-0.036-0.527-0.036c-0.588,0-1.176,0.168-1.596,0.432v4.882h-1.475V187.01z"/>
		<path d="M812.572,193.678c-0.852,0-1.619-0.156-2.159-0.443v-1.08c0.54,0.216,1.031,0.408,1.942,0.408
			c0.924,0,1.308-0.3,1.308-0.792c0-0.468-0.252-0.695-0.972-0.852l-0.611-0.132c-1.008-0.216-1.667-0.72-1.667-1.895
			c0-1.212,0.768-1.991,2.435-1.991c0.887,0,1.451,0.168,1.883,0.36v1.103c-0.384-0.155-1.02-0.348-1.764-0.348
			c-0.768,0-1.175,0.252-1.175,0.756c0,0.468,0.265,0.636,0.888,0.779l0.623,0.145c1.283,0.3,1.787,0.804,1.787,1.942
			C815.09,193.006,814.179,193.678,812.572,193.678z"/>
		<path d="M819.185,190.308v-1.02h6.704v1.02H819.185z M822.52,188.353c-0.492,0-0.828-0.359-0.828-0.863s0.336-0.852,0.84-0.852
			s0.803,0.348,0.814,0.852c0,0.504-0.311,0.863-0.814,0.863H822.52z M822.52,192.958c-0.492,0-0.828-0.359-0.828-0.839
			c0-0.517,0.336-0.876,0.84-0.876s0.803,0.359,0.814,0.876c0,0.479-0.311,0.839-0.814,0.839H822.52z"/>
		<path d="M832.623,193.726c-1.151,0-2.027-0.239-2.627-0.563v-1.235c0.708,0.312,1.535,0.54,2.495,0.54
			c1.175,0,1.667-0.492,1.667-1.271c0-0.731-0.312-1.02-1.271-1.308l-0.827-0.228c-1.235-0.348-1.991-1.008-1.991-2.495
			c0-1.475,0.959-2.482,2.927-2.482c1.151,0,1.774,0.216,2.267,0.468v1.235c-0.552-0.24-1.271-0.443-2.23-0.443
			c-0.924,0-1.439,0.384-1.439,1.091c0,0.684,0.264,0.983,1.127,1.224l0.816,0.252c1.379,0.396,2.206,0.972,2.206,2.53
			C835.741,192.694,834.734,193.726,832.623,193.726z"/>
		<path d="M839.415,193.654c-1.14,0-1.871-0.456-1.871-1.703v-3.803h-0.911v-1.139h0.911v-1.548h1.452v1.548h1.559v1.139h-1.559
			v3.599c0,0.552,0.203,0.755,0.887,0.755c0.252,0,0.527-0.035,0.756-0.096v0.972C840.375,193.51,840.027,193.654,839.415,193.654z"
			/>
		<path d="M843.627,193.689c-1.188,0-2.027-0.6-2.027-1.858c0-1.212,0.805-1.775,2.111-1.967l1.547-0.181v-0.503
			c0-0.888-0.396-1.092-1.511-1.092c-0.636,0-1.199,0.096-1.595,0.18v-1.007c0.611-0.24,1.318-0.36,2.17-0.36
			c1.523,0,2.398,0.588,2.398,1.955v4.714h-1.211l-0.119-0.528h-0.072C845.006,193.414,844.479,193.689,843.627,193.689z
			 M844.07,192.658c0.469,0,0.947-0.168,1.188-0.396v-1.619l-1.211,0.12c-0.66,0.06-0.996,0.323-0.996,0.983
			C843.051,192.383,843.471,192.658,844.07,192.658z"/>
		<path d="M850.683,193.654c-1.14,0-1.871-0.456-1.871-1.703v-3.803H847.9v-1.139h0.911v-1.548h1.452v1.548h1.559v1.139h-1.559
			v3.599c0,0.552,0.203,0.755,0.887,0.755c0.252,0,0.527-0.035,0.756-0.096v0.972C851.643,193.51,851.295,193.654,850.683,193.654z"
			/>
		<path d="M853.264,184.587h1.5v1.331h-1.5V184.587z M853.275,187.01h1.476v6.561h-1.476V187.01z"/>
		<path d="M859.262,193.689c-2.002,0-3.105-1.211-3.105-3.262v-0.204c0-2.11,1.271-3.334,3.118-3.334
			c1.967,0,3.106,1.199,3.106,3.286v0.18C862.381,192.479,861.098,193.689,859.262,193.689z M859.286,192.586
			c0.983,0,1.56-0.684,1.56-2.099v-0.323c0-1.703-0.708-2.159-1.596-2.159c-1.007,0-1.595,0.695-1.595,2.111v0.312
			C857.655,192.119,858.375,192.586,859.286,192.586z"/>
		<path d="M863.728,187.01h1.415v0.587h0.061c0.552-0.419,1.355-0.707,2.158-0.707c1.26,0,1.907,0.516,1.907,1.811v4.87h-1.476
			v-4.521c0-0.66-0.215-0.936-1.115-0.936c-0.504,0-1.079,0.168-1.475,0.359v5.098h-1.476V187.01z"/>
		<path d="M872.763,193.678c-0.852,0-1.619-0.156-2.159-0.443v-1.08c0.54,0.216,1.031,0.408,1.943,0.408
			c0.924,0,1.307-0.3,1.307-0.792c0-0.468-0.252-0.695-0.971-0.852l-0.611-0.132c-1.008-0.216-1.668-0.72-1.668-1.895
			c0-1.212,0.768-1.991,2.436-1.991c0.887,0,1.451,0.168,1.883,0.36v1.103c-0.385-0.155-1.02-0.348-1.764-0.348
			c-0.768,0-1.176,0.252-1.176,0.756c0,0.468,0.265,0.636,0.889,0.779l0.623,0.145c1.283,0.3,1.787,0.804,1.787,1.942
			C875.281,193.006,874.369,193.678,872.763,193.678z"/>
		<path d="M882.11,194.901c-1.224-1.151-2.362-2.975-2.362-5.302v-0.239c0-2.327,1.139-4.138,2.362-5.289h1.26
			c-1.151,1.271-2.11,3.118-2.11,5.181v0.36c0,2.026,0.959,4.006,2.11,5.289H882.11z"/>
		<path d="M886.79,184.826h1.607l3.106,8.744h-1.619l-0.792-2.219h-3.25l-0.792,2.219H883.6L886.79,184.826z M886.215,190.176h2.482
			l-1.223-3.49h-0.037L886.215,190.176z"/>
		<path d="M891.424,187.01h1.571l1.595,4.797h0.061l1.619-4.797h1.415l-2.374,6.561h-1.5L891.424,187.01z"/>
		<path d="M900.975,195.44c-2.051,0-3.035-0.587-3.035-1.522c0-0.672,0.541-1.08,1.225-1.283v-0.061
			c-0.396-0.132-0.684-0.491-0.684-0.947c0-0.443,0.287-0.72,0.768-1.02c-0.504-0.324-0.828-0.804-0.828-1.547v-0.12
			c0-1.344,1.067-2.039,2.627-2.039c0.359,0,0.695,0.036,1.02,0.108h2.219v0.959h-1.008c0.216,0.252,0.336,0.528,0.336,0.936V189
			c0,1.403-1.104,2.016-2.579,2.016c-0.372,0-0.731-0.036-1.044-0.132c-0.143,0.132-0.239,0.167-0.239,0.335
			c0,0.312,0.181,0.433,0.588,0.433h1.812c1.259,0,2.135,0.443,2.135,1.654C904.285,194.529,903.289,195.44,900.975,195.44z
			 M900.95,194.445c1.368,0,1.823-0.348,1.823-0.899c0-0.504-0.229-0.659-1.02-0.659h-1.68c-0.395,0.132-0.671,0.371-0.671,0.815
			C899.403,194.193,899.823,194.445,900.95,194.445z M901.034,190.067c0.743,0,1.151-0.275,1.151-1.007v-0.168
			c0-0.779-0.443-1.056-1.151-1.056c-0.755,0-1.175,0.336-1.175,1.031v0.156C899.859,189.792,900.303,190.067,901.034,190.067z"/>
		<path d="M905.379,192.286h1.56v1.5h-1.56V192.286z"/>
		<path d="M907.876,194.901c1.151-1.271,2.11-3.131,2.11-5.182v-0.371c0-2.003-0.959-3.994-2.11-5.277h1.259
			c1.212,1.151,2.352,2.975,2.352,5.289v0.239c0,2.339-1.14,4.15-2.352,5.302H907.876z"/>
		<path d="M916.443,186.854h1.559v1.499h-1.559V186.854z M916.443,191.471h1.559v1.512h-1.559V191.471z"/>
	</g>
	<g>
		<circle cx="695.088" cy="23.579" r="2.781"/>
		<path d="M701.08,30.044c0,0,0.157-3.105-3.12-3.105h-5.685c-3.162,0-3.135,2.869-3.139,3.105v8.814
			c0.052,0.475,0.521,1.017,1.104,1.017c0.576,0,1.004-0.524,1.058-1.001l0.989,14.037c0.072,0.715,0.574,0.98,1.195,0.98
			s1.122-0.266,1.197-0.98h0.873c0.075,0.715,0.583,0.98,1.198,0.98c0.623,0,1.126-0.266,1.199-0.98l1.018-14.045
			c0,0.476,0.461,1.012,1.042,1.012s1.045-0.544,1.097-1.02L701.08,30.044z"/>
	</g>
	<g>
		<path d="M691.327,121.24c-0.001,2.066-1.681,3.747-3.752,3.746c-2.068-0.001-3.747-1.68-3.743-3.752
			c0-2.067,1.68-3.748,3.752-3.747C689.652,117.486,691.33,119.169,691.327,121.24z"/>
		<path d="M705.968,121.251c-0.002,2.072-1.686,3.748-3.754,3.748c-2.071,0-3.745-1.681-3.743-3.75
			c0.002-2.073,1.683-3.749,3.751-3.749C704.293,117.498,705.97,119.181,705.968,121.251z"/>
		<path d="M711.352,118.579c-0.005,1.896-1.542,3.432-3.438,3.43l-25.595-0.021c-1.899,0-3.436-1.541-3.435-3.438l0.011-10.196
			c0-1.898,1.541-3.434,3.44-3.434l25.594,0.021c1.896,0.004,3.433,1.543,3.432,3.443L711.352,118.579z"/>
	</g>
	<g id="busstop_1_">
		<g>
			<path stroke="#020202" stroke-width="0.8913" stroke-miterlimit="10" d="M703.529,189.5c0,0.877-5.689,1.57-8.409,1.562
				c-2.718-0.007-8.408-0.735-8.408-1.611v-13.602c0-0.877,0.641-1.587,1.431-1.583l13.959,0.038
				c0.787,0.004,1.431,0.716,1.431,1.594L703.529,189.5L703.529,189.5z"/>
			<g>
				<path fill="#FFFFFF" d="M695.479,187.263l-3.062-0.01v-9.013l2.367,0.008c0.748,0.003,1.331,0.104,1.748,0.305
					c0.422,0.202,0.738,0.478,0.958,0.83c0.222,0.351,0.333,0.757,0.333,1.217c0,0.886-0.461,1.518-1.38,1.898
					c0.659,0.126,1.186,0.399,1.576,0.816c0.392,0.419,0.585,0.918,0.585,1.5c0,0.46-0.117,0.87-0.355,1.229
					c-0.237,0.361-0.586,0.653-1.045,0.881C696.743,187.152,696.169,187.266,695.479,187.263z M694.825,179.397l-1.112-0.004v2.711
					l0.862,0.002c0.688,0.002,1.18-0.127,1.471-0.389c0.291-0.263,0.437-0.602,0.437-1.02
					C696.481,179.835,695.93,179.4,694.825,179.397z M694.922,183.254l-1.21-0.002v2.856l1.273,0.003
					c0.708,0.002,1.188-0.051,1.441-0.16c0.252-0.107,0.454-0.278,0.606-0.511c0.152-0.231,0.23-0.48,0.23-0.748
					c0-0.274-0.083-0.525-0.244-0.756c-0.161-0.228-0.391-0.397-0.688-0.511C696.036,183.315,695.563,183.256,694.922,183.254z"/>
			</g>
			<g>
				<path d="M687.176,189.658c0.003-0.007,0.01,0.068,0.035,0.147c0.017,0.017,0.058,0.104,0.147,0.197
					c0.166,0.196,0.721,0.548,1.51,0.833c0.769,0.279,1.808,0.566,2.814,0.651c0.061,0.005,0.117,0.005,0.175,0.007l0.185-0.001
					c0.144-0.002,0.285-0.005,0.435-0.007l0.224-0.005l0.112-0.002h0.027h0.014l0.101,0.005l0.061,0.007l0.118,0.011l0.062,0.007
					l0.028,0.001l0.063,0.014c0.176,0.04,0.373,0.093,0.541,0.168c0.164,0.086,0.334,0.166,0.486,0.283
					c0.148,0.122,0.318,0.246,0.43,0.389c0.121,0.142,0.243,0.289,0.312,0.428c0.081,0.145,0.158,0.29,0.189,0.413
					c0.102,0.267,0.11,0.512,0.123,0.708c0,0.152,0,0.308,0,0.463c-0.008,2.499-0.016,5.41-0.025,8.53
					c-0.003,1.562-0.006,3.174-0.012,4.813c-0.004,0.818-0.004,1.646-0.009,2.473l-0.001,0.562l0.006,0.08
					c0.004,0.024,0.006-0.003,0.004-0.014c0-0.013-0.004-0.026-0.009-0.041c-0.024-0.064-0.029-0.08-0.077-0.145
					c-0.084-0.119-0.293-0.237-0.373-0.242c-0.016-0.004-0.027-0.008-0.043-0.008l-0.008,0.001c0.008,0.001-0.126,0.006-0.058,0.002
					l0.04-0.004l0.043-0.003c0.017-0.001,0.027-0.004,0.014-0.004c-0.014-0.001-0.026-0.001-0.037,0.004
					c-0.006-0.001,0.039-0.02,0.054-0.042c0.023-0.021,0.028-0.056,0.038-0.071c0-0.019,0,0.005,0.005-0.039v-0.156
					c0.027-3.322,0.055-6.646,0.081-9.761c0.013-1.559,0.025-3.063,0.037-4.492c0.011-0.712,0.018-1.407,0.024-2.078l0.006-0.249
					v-0.125l0.005-0.071l0.006-0.029l0.008-0.058c0.004-0.134,0.072-0.385,0.146-0.554c0.152-0.329,0.403-0.572,0.717-0.75
					c0.153-0.093,0.347-0.148,0.545-0.191c0.109-0.011,0.22-0.021,0.329-0.027l0.253,0.003c0.33,0.004,0.653,0.009,0.97,0.014
					c0.157,0.002,0.312,0.004,0.468,0.007c0.102,0.001,0.299-0.004,0.411-0.016c0.229-0.021,0.492-0.061,0.727-0.115
					c0.951-0.212,1.705-0.54,2.255-0.859c0.557-0.319,0.883-0.659,1.022-0.914c0.13-0.26,0.104-0.403,0.122-0.399l0.952,0.332
					c0,0-0.009,0.063-0.021,0.188c-0.003,0.136-0.061,0.288-0.14,0.482c-0.181,0.368-0.561,0.78-1.151,1.157
					c-0.588,0.382-1.373,0.748-2.404,1.01c-0.26,0.067-0.528,0.119-0.863,0.157c-0.169,0.019-0.271,0.023-0.471,0.027
					c-0.154,0-0.307,0.001-0.463,0.004c-0.312,0.003-0.634,0.005-0.962,0.007l-0.241,0.004c-0.05,0.01-0.102,0.014-0.152,0.019
					c-0.098,0.029-0.204,0.056-0.292,0.118c-0.181,0.111-0.347,0.273-0.429,0.484c-0.03,0.106-0.067,0.138-0.075,0.333l-0.007,0.06
					l-0.002,0.03l-0.002,0.016c0.002-0.014-0.002,0.051,0.002-0.026l0.002,0.125l0.003,0.253c0.009,0.677,0.019,1.376,0.025,2.095
					c0.013,1.436,0.024,2.95,0.038,4.518c0.024,3.134,0.053,6.475,0.079,9.816v0.157c0,0.059-0.009,0.183-0.026,0.261
					c-0.044,0.166-0.111,0.312-0.218,0.423c-0.101,0.12-0.218,0.207-0.409,0.281c-0.059,0.02-0.119,0.036-0.184,0.048
					c-0.036,0.009-0.055,0.01-0.062,0.012l-0.041,0.004l-0.041,0.003c0.056-0.001-0.093,0.006-0.103,0.004l-0.053-0.003
					c-0.073-0.008-0.145-0.013-0.222-0.03c-0.322-0.054-0.798-0.334-1.041-0.668c-0.127-0.169-0.201-0.301-0.259-0.476
					c-0.015-0.042-0.023-0.084-0.034-0.125c-0.01-0.039-0.021-0.097-0.019-0.097l-0.008-0.081l-0.004-0.021l-0.005-0.082v-0.04
					v-0.078v-0.156l-0.001-0.312c-0.003-0.83-0.005-1.656-0.005-2.478c-0.007-1.642-0.012-3.258-0.017-4.821
					c-0.008-3.127-0.015-6.046-0.021-8.547c0.041-0.795-0.111-0.818-0.079-0.806c0.004,0,0.029,0.018,0.04,0
					c0-0.002,0.005-0.003,0.001-0.005l-0.029-0.003l-0.061-0.006l-0.118-0.013l-0.062-0.007c-0.022-0.002,0.154,0.009,0.071,0.005
					h-0.015h-0.028l-0.114-0.003l-0.226-0.006c-0.151-0.004-0.298-0.007-0.445-0.01l-0.249-0.01
					c-0.087-0.007-0.175-0.013-0.258-0.022c-0.669-0.076-1.27-0.237-1.832-0.406c-0.562-0.17-1.08-0.376-1.555-0.594
					c-0.937-0.432-1.75-0.967-2.196-1.595c-0.217-0.312-0.285-0.56-0.31-0.754c-0.009-0.131,0-0.161,0-0.167L687.176,189.658z"/>
			</g>
		</g>
	</g>
</g>
<g id="dailyPass">
	<g>
		<circle cx="727.728" cy="60.079" r="2.781"/>
		<path d="M733.72,66.544c0,0,0.157-3.105-3.12-3.105h-5.685c-3.162,0-3.135,2.869-3.139,3.105v8.814
			c0.052,0.475,0.521,1.017,1.104,1.017c0.576,0,1.004-0.524,1.058-1.001l0.989,14.037c0.072,0.715,0.574,0.98,1.195,0.98
			s1.122-0.266,1.197-0.98h0.873c0.075,0.715,0.583,0.98,1.198,0.98c0.623,0,1.126-0.266,1.199-0.98l1.018-14.045
			c0,0.476,0.461,1.012,1.042,1.012s1.045-0.544,1.097-1.02L733.72,66.544z"/>
	</g>
	<g>
		<circle cx="742.405" cy="60.079" r="2.781"/>
		<path d="M748.397,66.544c0,0,0.157-3.105-3.12-3.105h-5.685c-3.162,0-3.135,2.869-3.139,3.105v8.814
			c0.052,0.475,0.521,1.017,1.104,1.017c0.576,0,1.004-0.524,1.058-1.001l0.989,14.037c0.072,0.715,0.574,0.98,1.195,0.98
			s1.122-0.266,1.197-0.98h0.873c0.075,0.715,0.583,0.98,1.198,0.98c0.623,0,1.126-0.266,1.199-0.98l1.018-14.045
			c0,0.476,0.461,1.012,1.042,1.012s1.045-0.544,1.097-1.02L748.397,66.544z"/>
	</g>
	<g>
		<circle cx="757.082" cy="60.079" r="2.781"/>
		<path d="M763.074,66.544c0,0,0.157-3.105-3.12-3.105h-5.685c-3.162,0-3.135,2.869-3.139,3.105v8.814
			c0.052,0.475,0.521,1.017,1.104,1.017c0.576,0,1.004-0.524,1.058-1.001l0.989,14.037c0.072,0.715,0.574,0.98,1.195,0.98
			s1.122-0.266,1.197-0.98h0.873c0.075,0.715,0.583,0.98,1.198,0.98c0.623,0,1.126-0.266,1.199-0.98l1.018-14.045
			c0,0.476,0.461,1.012,1.042,1.012s1.045-0.544,1.097-1.02L763.074,66.544z"/>
	</g>
	<g>
		<circle cx="771.76" cy="60.079" r="2.781"/>
		<path d="M777.752,66.544c0,0,0.157-3.105-3.12-3.105h-5.685c-3.162,0-3.135,2.869-3.139,3.105v8.814
			c0.052,0.475,0.521,1.017,1.104,1.017c0.576,0,1.004-0.524,1.058-1.001l0.989,14.037c0.072,0.715,0.574,0.98,1.195,0.98
			s1.122-0.266,1.197-0.98h0.873c0.075,0.715,0.583,0.98,1.198,0.98c0.623,0,1.126-0.266,1.199-0.98l1.018-14.045
			c0,0.476,0.461,1.012,1.042,1.012s1.045-0.544,1.097-1.02L777.752,66.544z"/>
	</g>
	<g>
		<circle cx="786.438" cy="60.079" r="2.781"/>
		<path d="M792.43,66.544c0,0,0.157-3.105-3.12-3.105h-5.685c-3.162,0-3.135,2.869-3.139,3.105v8.814
			c0.052,0.475,0.521,1.017,1.104,1.017c0.576,0,1.004-0.524,1.058-1.001l0.989,14.037c0.072,0.715,0.574,0.98,1.195,0.98
			s1.122-0.266,1.197-0.98h0.873c0.075,0.715,0.583,0.98,1.198,0.98c0.623,0,1.126-0.266,1.199-0.98l1.018-14.045
			c0,0.476,0.461,1.012,1.042,1.012s1.045-0.544,1.097-1.02L792.43,66.544z"/>
	</g>
	<g>
		<circle cx="801.115" cy="60.079" r="2.781"/>
		<path d="M807.107,66.544c0,0,0.157-3.105-3.12-3.105h-5.685c-3.162,0-3.135,2.869-3.139,3.105v8.814
			c0.052,0.475,0.521,1.017,1.104,1.017c0.576,0,1.004-0.524,1.058-1.001l0.989,14.037c0.072,0.715,0.574,0.98,1.195,0.98
			s1.122-0.266,1.197-0.98h0.873c0.075,0.715,0.583,0.98,1.198,0.98c0.623,0,1.126-0.266,1.199-0.98l1.018-14.045
			c0,0.476,0.461,1.012,1.042,1.012s1.045-0.544,1.097-1.02L807.107,66.544z"/>
	</g>
	<g>
		<circle cx="815.792" cy="60.079" r="2.781"/>
		<path d="M821.784,66.544c0,0,0.157-3.105-3.12-3.105h-5.685c-3.162,0-3.135,2.869-3.139,3.105v8.814
			c0.052,0.475,0.521,1.017,1.104,1.017c0.576,0,1.004-0.524,1.058-1.001l0.989,14.037c0.072,0.715,0.574,0.98,1.195,0.98
			s1.122-0.266,1.197-0.98h0.873c0.075,0.715,0.583,0.98,1.198,0.98c0.623,0,1.126-0.266,1.199-0.98l1.018-14.045
			c0,0.476,0.461,1.012,1.042,1.012s1.045-0.544,1.097-1.02L821.784,66.544z"/>
	</g>
	<g>
		<circle cx="830.47" cy="60.079" r="2.781"/>
		<path d="M836.462,66.544c0,0,0.157-3.105-3.12-3.105h-5.685c-3.162,0-3.135,2.869-3.139,3.105v8.814
			c0.052,0.475,0.521,1.017,1.104,1.017c0.576,0,1.004-0.524,1.058-1.001l0.989,14.037c0.072,0.715,0.574,0.98,1.195,0.98
			s1.122-0.266,1.197-0.98h0.873c0.075,0.715,0.583,0.98,1.198,0.98c0.623,0,1.126-0.266,1.199-0.98l1.018-14.045
			c0,0.476,0.461,1.012,1.042,1.012s1.045-0.544,1.097-1.02L836.462,66.544z"/>
	</g>
	<g>
		<circle cx="845.147" cy="60.079" r="2.781"/>
		<path d="M851.14,66.544c0,0,0.157-3.105-3.12-3.105h-5.685c-3.162,0-3.135,2.869-3.139,3.105v8.814
			c0.052,0.475,0.521,1.017,1.104,1.017c0.576,0,1.004-0.524,1.058-1.001l0.989,14.037c0.072,0.715,0.574,0.98,1.195,0.98
			s1.122-0.266,1.197-0.98h0.873c0.075,0.715,0.583,0.98,1.198,0.98c0.623,0,1.126-0.266,1.199-0.98l1.018-14.045
			c0,0.476,0.461,1.012,1.042,1.012s1.045-0.544,1.097-1.02L851.14,66.544z"/>
	</g>
	<g>
		<circle cx="859.824" cy="60.079" r="2.781"/>
		<path d="M865.816,66.544c0,0,0.157-3.105-3.12-3.105h-5.685c-3.162,0-3.135,2.869-3.139,3.105v8.814
			c0.052,0.475,0.521,1.017,1.104,1.017c0.576,0,1.004-0.524,1.058-1.001l0.989,14.037c0.072,0.715,0.574,0.98,1.195,0.98
			s1.122-0.266,1.197-0.98h0.873c0.075,0.715,0.583,0.98,1.198,0.98c0.623,0,1.126-0.266,1.199-0.98l1.018-14.045
			c0,0.476,0.461,1.012,1.042,1.012s1.045-0.544,1.097-1.02L865.816,66.544z"/>
	</g>
	<g>
		<circle cx="874.502" cy="60.079" r="2.781"/>
		<path d="M880.494,66.544c0,0,0.157-3.105-3.12-3.105h-5.685c-3.162,0-3.135,2.869-3.139,3.105v8.814
			c0.052,0.475,0.521,1.017,1.104,1.017c0.576,0,1.004-0.524,1.058-1.001l0.989,14.037c0.072,0.715,0.574,0.98,1.195,0.98
			s1.122-0.266,1.197-0.98h0.873c0.075,0.715,0.583,0.98,1.198,0.98c0.623,0,1.126-0.266,1.199-0.98l1.018-14.045
			c0,0.476,0.461,1.012,1.042,1.012s1.045-0.544,1.097-1.02L880.494,66.544z"/>
	</g>
	<g>
		<circle cx="889.18" cy="60.079" r="2.781"/>
		<path d="M895.172,66.544c0,0,0.157-3.105-3.12-3.105h-5.685c-3.162,0-3.135,2.869-3.139,3.105v8.814
			c0.052,0.475,0.521,1.017,1.104,1.017c0.576,0,1.004-0.524,1.058-1.001l0.989,14.037c0.072,0.715,0.574,0.98,1.195,0.98
			s1.122-0.266,1.197-0.98h0.873c0.075,0.715,0.583,0.98,1.198,0.98c0.623,0,1.126-0.266,1.199-0.98l1.018-14.045
			c0,0.476,0.461,1.012,1.042,1.012s1.045-0.544,1.097-1.02L895.172,66.544z"/>
	</g>
	<g>
		<circle cx="903.857" cy="60.079" r="2.781"/>
		<path d="M909.85,66.544c0,0,0.157-3.105-3.12-3.105h-5.685c-3.162,0-3.135,2.869-3.139,3.105v8.814
			c0.052,0.475,0.521,1.017,1.104,1.017c0.576,0,1.004-0.524,1.058-1.001l0.989,14.037c0.072,0.715,0.574,0.98,1.195,0.98
			s1.122-0.266,1.197-0.98h0.873c0.075,0.715,0.583,0.98,1.198,0.98c0.623,0,1.126-0.266,1.199-0.98l1.018-14.045
			c0,0.476,0.461,1.012,1.042,1.012s1.045-0.544,1.097-1.02L909.85,66.544z"/>
	</g>
	<g>
		<circle cx="918.534" cy="60.079" r="2.781"/>
		<path d="M924.526,66.544c0,0,0.157-3.105-3.12-3.105h-5.685c-3.162,0-3.135,2.869-3.139,3.105v8.814
			c0.052,0.475,0.521,1.017,1.104,1.017c0.576,0,1.004-0.524,1.058-1.001l0.989,14.037c0.072,0.715,0.574,0.98,1.195,0.98
			s1.122-0.266,1.197-0.98h0.873c0.075,0.715,0.583,0.98,1.198,0.98c0.623,0,1.126-0.266,1.199-0.98l1.018-14.045
			c0,0.476,0.461,1.012,1.042,1.012s1.045-0.544,1.097-1.02L924.526,66.544z"/>
	</g>
	<g>
		<circle cx="933.212" cy="60.079" r="2.781"/>
		<path d="M939.204,66.544c0,0,0.157-3.105-3.12-3.105h-5.685c-3.162,0-3.135,2.869-3.139,3.105v8.814
			c0.052,0.475,0.521,1.017,1.104,1.017c0.576,0,1.004-0.524,1.058-1.001l0.989,14.037c0.072,0.715,0.574,0.98,1.195,0.98
			s1.122-0.266,1.197-0.98h0.873c0.075,0.715,0.583,0.98,1.198,0.98c0.623,0,1.126-0.266,1.199-0.98l1.018-14.045
			c0,0.476,0.461,1.012,1.042,1.012s1.045-0.544,1.097-1.02L939.204,66.544z"/>
	</g>
	<g>
		<circle cx="947.89" cy="60.079" r="2.781"/>
		<path d="M953.882,66.544c0,0,0.157-3.105-3.12-3.105h-5.685c-3.162,0-3.135,2.869-3.139,3.105v8.814
			c0.052,0.475,0.521,1.017,1.104,1.017c0.576,0,1.004-0.524,1.058-1.001l0.989,14.037c0.072,0.715,0.574,0.98,1.195,0.98
			s1.122-0.266,1.197-0.98h0.873c0.075,0.715,0.583,0.98,1.198,0.98c0.623,0,1.126-0.266,1.199-0.98l1.018-14.045
			c0,0.476,0.461,1.012,1.042,1.012s1.045-0.544,1.097-1.02L953.882,66.544z"/>
	</g>
	<g>
		<circle cx="962.566" cy="60.079" r="2.781"/>
		<path d="M968.559,66.544c0,0,0.157-3.105-3.12-3.105h-5.685c-3.162,0-3.135,2.869-3.139,3.105v8.814
			c0.052,0.475,0.521,1.017,1.104,1.017c0.576,0,1.004-0.524,1.058-1.001l0.989,14.037c0.072,0.715,0.574,0.98,1.195,0.98
			s1.122-0.266,1.197-0.98h0.873c0.075,0.715,0.583,0.98,1.198,0.98c0.623,0,1.126-0.266,1.199-0.98l1.018-14.045
			c0,0.476,0.461,1.012,1.042,1.012s1.045-0.544,1.097-1.02L968.559,66.544z"/>
	</g>
	<g>
		<circle cx="977.244" cy="60.079" r="2.781"/>
		<path d="M983.236,66.544c0,0,0.157-3.105-3.12-3.105h-5.685c-3.162,0-3.135,2.869-3.139,3.105v8.814
			c0.052,0.475,0.521,1.017,1.104,1.017c0.576,0,1.004-0.524,1.058-1.001l0.989,14.037c0.072,0.715,0.574,0.98,1.195,0.98
			s1.122-0.266,1.197-0.98h0.873c0.075,0.715,0.583,0.98,1.198,0.98c0.623,0,1.126-0.266,1.199-0.98l1.018-14.045
			c0,0.476,0.461,1.012,1.042,1.012s1.045-0.544,1.097-1.02L983.236,66.544z"/>
	</g>
	<g>
		<circle cx="991.922" cy="60.079" r="2.781"/>
		<path d="M997.914,66.544c0,0,0.157-3.105-3.12-3.105h-5.685c-3.162,0-3.135,2.869-3.139,3.105v8.814
			c0.052,0.475,0.521,1.017,1.104,1.017c0.576,0,1.004-0.524,1.058-1.001l0.989,14.037c0.072,0.715,0.574,0.98,1.195,0.98
			s1.122-0.266,1.197-0.98h0.873c0.075,0.715,0.583,0.98,1.198,0.98c0.623,0,1.126-0.266,1.199-0.98l1.018-14.045
			c0,0.476,0.461,1.012,1.042,1.012s1.045-0.544,1.097-1.02L997.914,66.544z"/>
	</g>
	<g>
		<circle cx="1006.6" cy="60.079" r="2.781"/>
		<path d="M1012.592,66.544c0,0,0.157-3.105-3.12-3.105h-5.685c-3.162,0-3.135,2.869-3.139,3.105v8.814
			c0.052,0.475,0.521,1.017,1.104,1.017c0.576,0,1.004-0.524,1.058-1.001l0.989,14.037c0.072,0.715,0.574,0.98,1.195,0.98
			s1.122-0.266,1.197-0.98h0.873c0.075,0.715,0.583,0.98,1.198,0.98c0.623,0,1.126-0.266,1.199-0.98l1.018-14.045
			c0,0.476,0.461,1.012,1.042,1.012s1.045-0.544,1.097-1.02L1012.592,66.544z"/>
	</g>
	<g>
		<circle cx="1021.276" cy="60.079" r="2.781"/>
		<path d="M1027.269,66.544c0,0,0.157-3.105-3.12-3.105h-5.685c-3.162,0-3.135,2.869-3.139,3.105v8.814
			c0.052,0.475,0.521,1.017,1.104,1.017c0.576,0,1.004-0.524,1.058-1.001l0.989,14.037c0.072,0.715,0.574,0.98,1.195,0.98
			s1.122-0.266,1.197-0.98h0.873c0.075,0.715,0.583,0.98,1.198,0.98c0.623,0,1.126-0.266,1.199-0.98l1.018-14.045
			c0,0.476,0.461,1.012,1.042,1.012s1.045-0.544,1.097-1.02L1027.269,66.544z"/>
	</g>
	<g>
		<circle cx="1035.954" cy="60.079" r="2.781"/>
		<path d="M1041.946,66.544c0,0,0.157-3.105-3.12-3.105h-5.685c-3.162,0-3.135,2.869-3.139,3.105v8.814
			c0.052,0.475,0.521,1.017,1.104,1.017c0.576,0,1.004-0.524,1.058-1.001l0.989,14.037c0.072,0.715,0.574,0.98,1.195,0.98
			s1.122-0.266,1.197-0.98h0.873c0.075,0.715,0.583,0.98,1.198,0.98c0.623,0,1.126-0.266,1.199-0.98l1.018-14.045
			c0,0.476,0.461,1.012,1.042,1.012s1.045-0.544,1.097-1.02L1041.946,66.544z"/>
	</g>
	<g>
		<circle cx="1050.632" cy="60.079" r="2.781"/>
		<path d="M1056.624,66.544c0,0,0.157-3.105-3.12-3.105h-5.685c-3.162,0-3.135,2.869-3.139,3.105v8.814
			c0.052,0.475,0.521,1.017,1.104,1.017c0.576,0,1.004-0.524,1.058-1.001l0.989,14.037c0.072,0.715,0.574,0.98,1.195,0.98
			s1.122-0.266,1.197-0.98h0.873c0.075,0.715,0.583,0.98,1.198,0.98c0.623,0,1.126-0.266,1.199-0.98l1.018-14.045
			c0,0.476,0.461,1.012,1.042,1.012s1.045-0.544,1.097-1.02L1056.624,66.544z"/>
	</g>
	<g>
		<circle cx="1065.309" cy="60.079" r="2.781"/>
		<path d="M1071.301,66.544c0,0,0.157-3.105-3.12-3.105h-5.685c-3.162,0-3.135,2.869-3.139,3.105v8.814
			c0.052,0.475,0.521,1.017,1.104,1.017c0.576,0,1.004-0.524,1.058-1.001l0.989,14.037c0.072,0.715,0.574,0.98,1.195,0.98
			s1.122-0.266,1.197-0.98h0.873c0.075,0.715,0.583,0.98,1.198,0.98c0.623,0,1.126-0.266,1.199-0.98l1.018-14.045
			c0,0.476,0.461,1.012,1.042,1.012s1.045-0.544,1.097-1.02L1071.301,66.544z"/>
	</g>
	<g>
		<circle cx="1079.986" cy="60.079" r="2.781"/>
		<path d="M1085.979,66.544c0,0,0.157-3.105-3.12-3.105h-5.685c-3.162,0-3.135,2.869-3.139,3.105v8.814
			c0.052,0.475,0.521,1.017,1.104,1.017c0.576,0,1.004-0.524,1.058-1.001l0.989,14.037c0.072,0.715,0.574,0.98,1.195,0.98
			s1.122-0.266,1.197-0.98h0.873c0.075,0.715,0.583,0.98,1.198,0.98c0.623,0,1.126-0.266,1.199-0.98l1.018-14.045
			c0,0.476,0.461,1.012,1.042,1.012s1.045-0.544,1.097-1.02L1085.979,66.544z"/>
	</g>
	<g>
		<circle cx="1094.664" cy="60.079" r="2.781"/>
		<path d="M1100.656,66.544c0,0,0.157-3.105-3.12-3.105h-5.685c-3.162,0-3.135,2.869-3.139,3.105v8.814
			c0.052,0.475,0.521,1.017,1.104,1.017c0.576,0,1.004-0.524,1.058-1.001l0.989,14.037c0.072,0.715,0.574,0.98,1.195,0.98
			s1.122-0.266,1.197-0.98h0.873c0.075,0.715,0.583,0.98,1.198,0.98c0.623,0,1.126-0.266,1.199-0.98l1.018-14.045
			c0,0.476,0.461,1.012,1.042,1.012s1.045-0.544,1.097-1.02L1100.656,66.544z"/>
	</g>
	<g>
		<circle cx="1109.342" cy="60.079" r="2.781"/>
		<path d="M1115.334,66.544c0,0,0.157-3.105-3.12-3.105h-5.685c-3.162,0-3.135,2.869-3.139,3.105v8.814
			c0.052,0.475,0.521,1.017,1.104,1.017c0.576,0,1.004-0.524,1.058-1.001l0.989,14.037c0.072,0.715,0.574,0.98,1.195,0.98
			s1.122-0.266,1.197-0.98h0.873c0.075,0.715,0.583,0.98,1.198,0.98c0.623,0,1.126-0.266,1.199-0.98l1.018-14.045
			c0,0.476,0.461,1.012,1.042,1.012s1.045-0.544,1.097-1.02L1115.334,66.544z"/>
	</g>
	<g>
		<circle cx="1124.019" cy="60.079" r="2.781"/>
		<path d="M1130.011,66.544c0,0,0.157-3.105-3.12-3.105h-5.685c-3.162,0-3.135,2.869-3.139,3.105v8.814
			c0.052,0.475,0.521,1.017,1.104,1.017c0.576,0,1.004-0.524,1.058-1.001l0.989,14.037c0.072,0.715,0.574,0.98,1.195,0.98
			s1.122-0.266,1.197-0.98h0.873c0.075,0.715,0.583,0.98,1.198,0.98c0.623,0,1.126-0.266,1.199-0.98l1.018-14.045
			c0,0.476,0.461,1.012,1.042,1.012s1.045-0.544,1.097-1.02L1130.011,66.544z"/>
	</g>
	<g>
		<circle cx="1138.696" cy="60.079" r="2.781"/>
		<path d="M1144.688,66.544c0,0,0.157-3.105-3.12-3.105h-5.685c-3.162,0-3.135,2.869-3.139,3.105v8.814
			c0.052,0.475,0.521,1.017,1.104,1.017c0.576,0,1.004-0.524,1.058-1.001l0.989,14.037c0.072,0.715,0.574,0.98,1.195,0.98
			s1.122-0.266,1.197-0.98h0.873c0.075,0.715,0.583,0.98,1.198,0.98c0.623,0,1.126-0.266,1.199-0.98l1.018-14.045
			c0,0.476,0.461,1.012,1.042,1.012s1.045-0.544,1.097-1.02L1144.688,66.544z"/>
	</g>
	<g>
		<circle cx="1153.374" cy="60.079" r="2.781"/>
		<path d="M1159.366,66.544c0,0,0.157-3.105-3.12-3.105h-5.685c-3.162,0-3.135,2.869-3.139,3.105v8.814
			c0.052,0.475,0.521,1.017,1.104,1.017c0.576,0,1.004-0.524,1.058-1.001l0.989,14.037c0.072,0.715,0.574,0.98,1.195,0.98
			s1.122-0.266,1.197-0.98h0.873c0.075,0.715,0.583,0.98,1.198,0.98c0.623,0,1.126-0.266,1.199-0.98l1.018-14.045
			c0,0.476,0.461,1.012,1.042,1.012s1.045-0.544,1.097-1.02L1159.366,66.544z"/>
	</g>
	<g>
		<circle cx="1168.051" cy="60.079" r="2.781"/>
		<path d="M1174.043,66.544c0,0,0.157-3.105-3.12-3.105h-5.685c-3.162,0-3.135,2.869-3.139,3.105v8.814
			c0.052,0.475,0.521,1.017,1.104,1.017c0.576,0,1.004-0.524,1.058-1.001l0.989,14.037c0.072,0.715,0.574,0.98,1.195,0.98
			s1.122-0.266,1.197-0.98h0.873c0.075,0.715,0.583,0.98,1.198,0.98c0.623,0,1.126-0.266,1.199-0.98l1.018-14.045
			c0,0.476,0.461,1.012,1.042,1.012s1.045-0.544,1.097-1.02L1174.043,66.544z"/>
	</g>
	<g>
		<circle cx="1182.729" cy="60.079" r="2.781"/>
		<path d="M1188.721,66.544c0,0,0.157-3.105-3.12-3.105h-5.685c-3.162,0-3.135,2.869-3.139,3.105v8.814
			c0.052,0.475,0.521,1.017,1.104,1.017c0.576,0,1.004-0.524,1.058-1.001l0.989,14.037c0.072,0.715,0.574,0.98,1.195,0.98
			s1.122-0.266,1.197-0.98h0.873c0.075,0.715,0.583,0.98,1.198,0.98c0.623,0,1.126-0.266,1.199-0.98l1.018-14.045
			c0,0.476,0.461,1.012,1.042,1.012s1.045-0.544,1.097-1.02L1188.721,66.544z"/>
	</g>
	<g>
		<circle cx="1197.406" cy="60.079" r="2.781"/>
		<path d="M1203.398,66.544c0,0,0.157-3.105-3.12-3.105h-5.685c-3.162,0-3.135,2.869-3.139,3.105v8.814
			c0.052,0.475,0.521,1.017,1.104,1.017c0.576,0,1.004-0.524,1.058-1.001l0.989,14.037c0.072,0.715,0.574,0.98,1.195,0.98
			s1.122-0.266,1.197-0.98h0.873c0.075,0.715,0.583,0.98,1.198,0.98c0.623,0,1.126-0.266,1.199-0.98l1.018-14.045
			c0,0.476,0.461,1.012,1.042,1.012s1.045-0.544,1.097-1.02L1203.398,66.544z"/>
	</g>
	<g>
		<circle cx="1212.084" cy="60.079" r="2.781"/>
		<path d="M1218.076,66.544c0,0,0.156-3.105-3.121-3.105h-5.684c-3.162,0-3.135,2.869-3.139,3.105v8.814
			c0.051,0.475,0.521,1.017,1.104,1.017c0.576,0,1.004-0.524,1.057-1.001l0.99,14.037c0.072,0.715,0.574,0.98,1.195,0.98
			s1.121-0.266,1.197-0.98h0.873c0.074,0.715,0.582,0.98,1.197,0.98c0.623,0,1.127-0.266,1.199-0.98l1.018-14.045
			c0,0.476,0.461,1.012,1.043,1.012c0.58,0,1.045-0.544,1.096-1.02L1218.076,66.544z"/>
	</g>
	<g>
		<circle cx="1226.761" cy="60.079" r="2.781"/>
		<path d="M1232.753,66.544c0,0,0.157-3.105-3.12-3.105h-5.685c-3.162,0-3.135,2.869-3.139,3.105v8.814
			c0.052,0.475,0.521,1.017,1.104,1.017c0.576,0,1.004-0.524,1.058-1.001l0.989,14.037c0.072,0.715,0.574,0.98,1.195,0.98
			s1.122-0.266,1.197-0.98h0.873c0.075,0.715,0.583,0.98,1.198,0.98c0.623,0,1.126-0.266,1.199-0.98l1.018-14.045
			c0,0.476,0.461,1.012,1.042,1.012s1.045-0.544,1.097-1.02L1232.753,66.544z"/>
	</g>
	<g>
		<circle cx="1241.438" cy="60.079" r="2.781"/>
		<path d="M1247.431,66.544c0,0,0.157-3.105-3.12-3.105h-5.685c-3.162,0-3.135,2.869-3.139,3.105v8.814
			c0.052,0.475,0.521,1.017,1.104,1.017c0.576,0,1.004-0.524,1.058-1.001l0.989,14.037c0.072,0.715,0.574,0.98,1.195,0.98
			s1.122-0.266,1.197-0.98h0.873c0.075,0.715,0.583,0.98,1.198,0.98c0.623,0,1.126-0.266,1.199-0.98l1.018-14.045
			c0,0.476,0.461,1.012,1.042,1.012s1.045-0.544,1.097-1.02L1247.431,66.544z"/>
	</g>
</g>
<g id="busPass">
	<g>
		<circle cx="726.429" cy="137.817" r="2.174"/>
		<path d="M731.113,142.872c0,0,0.123-2.428-2.439-2.428h-4.443c-2.473,0-2.451,2.243-2.454,2.428v6.891
			c0.04,0.371,0.407,0.794,0.862,0.794c0.451,0,0.785-0.41,0.827-0.783l0.773,10.974c0.057,0.559,0.449,0.767,0.935,0.767
			s0.877-0.208,0.936-0.767h0.683c0.06,0.559,0.456,0.767,0.938,0.767c0.486,0,0.88-0.208,0.938-0.767l0.795-10.98
			c0,0.372,0.36,0.791,0.814,0.791c0.455,0,0.817-0.425,0.857-0.797L731.113,142.872z"/>
	</g>
	<g>
		<circle cx="737.903" cy="137.817" r="2.174"/>
		<path d="M742.588,142.872c0,0,0.123-2.428-2.438-2.428h-4.444c-2.473,0-2.451,2.243-2.454,2.428v6.891
			c0.041,0.371,0.408,0.794,0.863,0.794c0.45,0,0.784-0.41,0.826-0.783l0.773,10.974c0.057,0.559,0.449,0.767,0.935,0.767
			s0.877-0.208,0.937-0.767h0.683c0.059,0.559,0.455,0.767,0.937,0.767c0.487,0,0.88-0.208,0.938-0.767l0.795-10.98
			c0,0.372,0.36,0.791,0.815,0.791c0.454,0,0.816-0.425,0.857-0.797L742.588,142.872z"/>
	</g>
	<g>
		<circle cx="749.378" cy="137.817" r="2.174"/>
		<path d="M754.062,142.872c0,0,0.123-2.428-2.439-2.428h-4.444c-2.472,0-2.45,2.243-2.453,2.428v6.891
			c0.04,0.371,0.407,0.794,0.862,0.794c0.45,0,0.785-0.41,0.827-0.783l0.773,10.974c0.056,0.559,0.448,0.767,0.935,0.767
			c0.485,0,0.877-0.208,0.936-0.767h0.683c0.059,0.559,0.456,0.767,0.937,0.767c0.487,0,0.881-0.208,0.938-0.767l0.796-10.98
			c0,0.372,0.36,0.791,0.814,0.791s0.817-0.425,0.857-0.797L754.062,142.872z"/>
	</g>
	<g>
		<circle cx="760.853" cy="137.817" r="2.174"/>
		<path d="M765.537,142.872c0,0,0.123-2.428-2.439-2.428h-4.443c-2.473,0-2.451,2.243-2.454,2.428v6.891
			c0.04,0.371,0.407,0.794,0.862,0.794c0.451,0,0.785-0.41,0.827-0.783l0.773,10.974c0.057,0.559,0.449,0.767,0.935,0.767
			s0.877-0.208,0.936-0.767h0.683c0.059,0.559,0.456,0.767,0.937,0.767c0.487,0,0.881-0.208,0.938-0.767l0.796-10.98
			c0,0.372,0.36,0.791,0.814,0.791s0.817-0.425,0.857-0.797L765.537,142.872z"/>
	</g>
	<g>
		<circle cx="772.327" cy="137.817" r="2.174"/>
		<path d="M777.012,142.872c0,0,0.123-2.428-2.439-2.428h-4.443c-2.473,0-2.451,2.243-2.454,2.428v6.891
			c0.04,0.371,0.408,0.794,0.862,0.794c0.451,0,0.785-0.41,0.827-0.783l0.773,10.974c0.057,0.559,0.449,0.767,0.935,0.767
			s0.877-0.208,0.936-0.767h0.683c0.06,0.559,0.456,0.767,0.938,0.767c0.486,0,0.88-0.208,0.938-0.767l0.795-10.98
			c0,0.372,0.36,0.791,0.815,0.791c0.454,0,0.816-0.425,0.856-0.797L777.012,142.872z"/>
	</g>
	<g>
		<circle cx="783.803" cy="137.817" r="2.174"/>
		<path d="M788.486,142.872c0,0,0.123-2.428-2.438-2.428h-4.444c-2.472,0-2.451,2.243-2.454,2.428v6.891
			c0.041,0.371,0.408,0.794,0.863,0.794c0.45,0,0.784-0.41,0.826-0.783l0.773,10.974c0.057,0.559,0.449,0.767,0.935,0.767
			s0.877-0.208,0.937-0.767h0.683c0.059,0.559,0.455,0.767,0.937,0.767c0.487,0,0.88-0.208,0.938-0.767l0.796-10.98
			c0,0.372,0.359,0.791,0.814,0.791c0.454,0,0.816-0.425,0.857-0.797L788.486,142.872z"/>
	</g>
	<g>
		<circle cx="795.276" cy="137.817" r="2.174"/>
		<path d="M799.961,142.872c0,0,0.123-2.428-2.439-2.428h-4.444c-2.472,0-2.45,2.243-2.453,2.428v6.891
			c0.04,0.371,0.407,0.794,0.862,0.794c0.45,0,0.785-0.41,0.827-0.783l0.773,10.974c0.057,0.559,0.448,0.767,0.935,0.767
			c0.485,0,0.877-0.208,0.936-0.767h0.683c0.059,0.559,0.456,0.767,0.937,0.767c0.487,0,0.881-0.208,0.938-0.767l0.796-10.98
			c0,0.372,0.36,0.791,0.814,0.791s0.817-0.425,0.857-0.797L799.961,142.872z"/>
	</g>
	<g>
		<circle cx="806.751" cy="137.817" r="2.174"/>
		<path d="M811.436,142.872c0,0,0.123-2.428-2.439-2.428h-4.443c-2.473,0-2.451,2.243-2.454,2.428v6.891
			c0.04,0.371,0.407,0.794,0.862,0.794c0.451,0,0.785-0.41,0.827-0.783l0.773,10.974c0.057,0.559,0.449,0.767,0.935,0.767
			s0.877-0.208,0.936-0.767h0.683c0.059,0.559,0.456,0.767,0.937,0.767c0.487,0,0.881-0.208,0.938-0.767l0.795-10.98
			c0,0.372,0.36,0.791,0.814,0.791s0.817-0.425,0.857-0.797L811.436,142.872z"/>
	</g>
	<g>
		<circle cx="818.226" cy="137.817" r="2.174"/>
		<path d="M822.91,142.872c0,0,0.123-2.428-2.438-2.428h-4.444c-2.473,0-2.451,2.243-2.454,2.428v6.891
			c0.041,0.371,0.408,0.794,0.863,0.794c0.45,0,0.784-0.41,0.826-0.783l0.773,10.974c0.057,0.559,0.449,0.767,0.935,0.767
			s0.877-0.208,0.937-0.767h0.683c0.059,0.559,0.455,0.767,0.937,0.767c0.487,0,0.88-0.208,0.938-0.767l0.795-10.98
			c0,0.372,0.36,0.791,0.815,0.791c0.454,0,0.816-0.425,0.857-0.797L822.91,142.872z"/>
	</g>
	<g>
		<circle cx="829.7" cy="137.817" r="2.174"/>
		<path d="M834.385,142.872c0,0,0.123-2.428-2.439-2.428h-4.444c-2.472,0-2.45,2.243-2.453,2.428v6.891
			c0.04,0.371,0.407,0.794,0.862,0.794c0.45,0,0.785-0.41,0.827-0.783l0.773,10.974c0.056,0.559,0.448,0.767,0.935,0.767
			c0.485,0,0.877-0.208,0.936-0.767h0.683c0.059,0.559,0.456,0.767,0.937,0.767c0.487,0,0.881-0.208,0.938-0.767l0.796-10.98
			c0,0.372,0.36,0.791,0.814,0.791s0.817-0.425,0.857-0.797L834.385,142.872z"/>
	</g>
	<g>
		<circle cx="841.175" cy="137.817" r="2.174"/>
		<path d="M845.859,142.872c0,0,0.123-2.428-2.439-2.428h-4.444c-2.472,0-2.45,2.243-2.453,2.428v6.891
			c0.04,0.371,0.407,0.794,0.862,0.794c0.451,0,0.785-0.41,0.827-0.783l0.773,10.974c0.057,0.559,0.449,0.767,0.935,0.767
			s0.877-0.208,0.936-0.767h0.683c0.059,0.559,0.456,0.767,0.937,0.767c0.487,0,0.881-0.208,0.938-0.767l0.796-10.98
			c0,0.372,0.36,0.791,0.814,0.791s0.817-0.425,0.857-0.797L845.859,142.872z"/>
	</g>
	<g>
		<circle cx="852.649" cy="137.817" r="2.174"/>
		<path d="M857.334,142.872c0,0,0.123-2.428-2.439-2.428h-4.443c-2.473,0-2.451,2.243-2.454,2.428v6.891
			c0.04,0.371,0.407,0.794,0.862,0.794c0.451,0,0.785-0.41,0.827-0.783l0.773,10.974c0.057,0.559,0.449,0.767,0.935,0.767
			s0.877-0.208,0.936-0.767h0.683c0.06,0.559,0.456,0.767,0.938,0.767c0.486,0,0.88-0.208,0.938-0.767l0.795-10.98
			c0,0.372,0.36,0.791,0.814,0.791c0.455,0,0.817-0.425,0.857-0.797L857.334,142.872z"/>
	</g>
	<g>
		<circle cx="864.124" cy="137.817" r="2.174"/>
		<path d="M868.809,142.872c0,0,0.123-2.428-2.438-2.428h-4.444c-2.473,0-2.451,2.243-2.454,2.428v6.891
			c0.041,0.371,0.408,0.794,0.863,0.794c0.45,0,0.784-0.41,0.826-0.783l0.773,10.974c0.057,0.559,0.449,0.767,0.935,0.767
			s0.877-0.208,0.937-0.767h0.683c0.059,0.559,0.455,0.767,0.937,0.767c0.487,0,0.88-0.208,0.938-0.767l0.795-10.98
			c0,0.372,0.36,0.791,0.815,0.791c0.454,0,0.816-0.425,0.857-0.797L868.809,142.872z"/>
	</g>
	<g>
		<circle cx="875.599" cy="137.817" r="2.174"/>
		<path d="M880.283,142.872c0,0,0.123-2.428-2.439-2.428h-4.444c-2.472,0-2.45,2.243-2.453,2.428v6.891
			c0.04,0.371,0.407,0.794,0.862,0.794c0.45,0,0.785-0.41,0.827-0.783l0.773,10.974c0.057,0.559,0.448,0.767,0.935,0.767
			c0.485,0,0.877-0.208,0.936-0.767h0.683c0.059,0.559,0.456,0.767,0.937,0.767c0.487,0,0.881-0.208,0.938-0.767l0.796-10.98
			c0,0.372,0.36,0.791,0.814,0.791s0.817-0.425,0.857-0.797L880.283,142.872z"/>
	</g>
	<g>
		<circle cx="887.073" cy="137.817" r="2.174"/>
		<path d="M891.758,142.872c0,0,0.123-2.428-2.439-2.428h-4.443c-2.473,0-2.451,2.243-2.454,2.428v6.891
			c0.04,0.371,0.407,0.794,0.862,0.794c0.451,0,0.785-0.41,0.827-0.783l0.773,10.974c0.057,0.559,0.449,0.767,0.935,0.767
			s0.877-0.208,0.936-0.767h0.683c0.059,0.559,0.456,0.767,0.937,0.767c0.487,0,0.881-0.208,0.938-0.767l0.796-10.98
			c0,0.372,0.36,0.791,0.814,0.791s0.817-0.425,0.857-0.797L891.758,142.872z"/>
	</g>
	<g>
		<circle cx="898.548" cy="137.817" r="2.174"/>
		<path d="M903.232,142.872c0,0,0.123-2.428-2.439-2.428h-4.443c-2.473,0-2.451,2.243-2.454,2.428v6.891
			c0.041,0.371,0.408,0.794,0.862,0.794c0.451,0,0.785-0.41,0.827-0.783l0.773,10.974c0.057,0.559,0.449,0.767,0.935,0.767
			s0.877-0.208,0.936-0.767h0.683c0.06,0.559,0.456,0.767,0.938,0.767c0.486,0,0.88-0.208,0.938-0.767l0.795-10.98
			c0,0.372,0.36,0.791,0.815,0.791c0.454,0,0.816-0.425,0.856-0.797L903.232,142.872z"/>
	</g>
	<g>
		<circle cx="910.022" cy="137.817" r="2.174"/>
		<path d="M914.707,142.872c0,0,0.123-2.428-2.439-2.428h-4.444c-2.472,0-2.45,2.243-2.453,2.428v6.891
			c0.04,0.371,0.407,0.794,0.862,0.794c0.45,0,0.785-0.41,0.827-0.783l0.773,10.974c0.056,0.559,0.448,0.767,0.935,0.767
			c0.485,0,0.877-0.208,0.936-0.767h0.683c0.059,0.559,0.456,0.767,0.937,0.767c0.487,0,0.881-0.208,0.938-0.767l0.796-10.98
			c0,0.372,0.36,0.791,0.814,0.791s0.816-0.425,0.857-0.797L914.707,142.872z"/>
	</g>
	<g>
		<circle cx="921.497" cy="137.817" r="2.174"/>
		<path d="M926.182,142.872c0,0,0.123-2.428-2.439-2.428h-4.444c-2.472,0-2.45,2.243-2.453,2.428v6.891
			c0.04,0.371,0.407,0.794,0.862,0.794c0.45,0,0.785-0.41,0.827-0.783l0.773,10.974c0.057,0.559,0.448,0.767,0.935,0.767
			c0.485,0,0.877-0.208,0.936-0.767h0.683c0.059,0.559,0.456,0.767,0.937,0.767c0.487,0,0.881-0.208,0.938-0.767l0.796-10.98
			c0,0.372,0.36,0.791,0.814,0.791s0.817-0.425,0.857-0.797L926.182,142.872z"/>
	</g>
	<g>
		<circle cx="932.972" cy="137.817" r="2.174"/>
		<path d="M937.656,142.872c0,0,0.123-2.428-2.439-2.428h-4.443c-2.473,0-2.451,2.243-2.454,2.428v6.891
			c0.04,0.371,0.407,0.794,0.862,0.794c0.451,0,0.785-0.41,0.827-0.783l0.773,10.974c0.057,0.559,0.449,0.767,0.935,0.767
			s0.877-0.208,0.936-0.767h0.683c0.06,0.559,0.456,0.767,0.937,0.767c0.487,0,0.881-0.208,0.938-0.767l0.795-10.98
			c0,0.372,0.36,0.791,0.814,0.791s0.817-0.425,0.857-0.797L937.656,142.872z"/>
	</g>
	<g>
		<circle cx="944.446" cy="137.817" r="2.174"/>
		<path d="M949.131,142.872c0,0,0.123-2.428-2.438-2.428h-4.444c-2.473,0-2.451,2.243-2.454,2.428v6.891
			c0.041,0.371,0.408,0.794,0.863,0.794c0.45,0,0.784-0.41,0.826-0.783l0.773,10.974c0.057,0.559,0.449,0.767,0.935,0.767
			s0.877-0.208,0.937-0.767h0.683c0.059,0.559,0.455,0.767,0.937,0.767c0.487,0,0.88-0.208,0.938-0.767l0.795-10.98
			c0,0.372,0.36,0.791,0.815,0.791c0.454,0,0.816-0.425,0.857-0.797L949.131,142.872z"/>
	</g>
	<g>
		<circle cx="955.921" cy="137.817" r="2.174"/>
		<path d="M960.605,142.872c0,0,0.123-2.428-2.439-2.428h-4.444c-2.472,0-2.45,2.243-2.453,2.428v6.891
			c0.04,0.371,0.407,0.794,0.862,0.794c0.45,0,0.785-0.41,0.827-0.783l0.773,10.974c0.056,0.559,0.448,0.767,0.935,0.767
			c0.485,0,0.877-0.208,0.936-0.767h0.683c0.059,0.559,0.456,0.767,0.937,0.767c0.487,0,0.881-0.208,0.938-0.767l0.796-10.98
			c0,0.372,0.36,0.791,0.814,0.791s0.817-0.425,0.857-0.797L960.605,142.872z"/>
	</g>
	<g>
		<circle cx="967.396" cy="137.817" r="2.174"/>
		<path d="M972.08,142.872c0,0,0.123-2.428-2.439-2.428h-4.443c-2.473,0-2.451,2.243-2.454,2.428v6.891
			c0.04,0.371,0.407,0.794,0.862,0.794c0.451,0,0.785-0.41,0.827-0.783l0.773,10.974c0.057,0.559,0.449,0.767,0.935,0.767
			s0.877-0.208,0.936-0.767h0.683c0.059,0.559,0.456,0.767,0.937,0.767c0.487,0,0.881-0.208,0.938-0.767l0.796-10.98
			c0,0.372,0.36,0.791,0.814,0.791s0.817-0.425,0.857-0.797L972.08,142.872z"/>
	</g>
	<g>
		<circle cx="978.87" cy="137.817" r="2.174"/>
		<path d="M983.555,142.872c0,0,0.123-2.428-2.439-2.428h-4.443c-2.473,0-2.451,2.243-2.454,2.428v6.891
			c0.04,0.371,0.407,0.794,0.862,0.794c0.451,0,0.785-0.41,0.827-0.783l0.773,10.974c0.057,0.559,0.449,0.767,0.935,0.767
			s0.877-0.208,0.936-0.767h0.683c0.06,0.559,0.456,0.767,0.938,0.767c0.486,0,0.88-0.208,0.938-0.767l0.795-10.98
			c0,0.372,0.36,0.791,0.814,0.791c0.455,0,0.817-0.425,0.857-0.797L983.555,142.872z"/>
	</g>
	<g>
		<circle cx="990.345" cy="137.817" r="2.174"/>
		<path d="M995.029,142.872c0,0,0.123-2.428-2.439-2.428h-4.444c-2.472,0-2.45,2.243-2.454,2.428v6.891
			c0.041,0.371,0.408,0.794,0.863,0.794c0.45,0,0.785-0.41,0.827-0.783l0.772,10.974c0.057,0.559,0.449,0.767,0.935,0.767
			c0.486,0,0.878-0.208,0.937-0.767h0.683c0.059,0.559,0.456,0.767,0.937,0.767c0.487,0,0.88-0.208,0.938-0.767l0.796-10.98
			c0,0.372,0.36,0.791,0.814,0.791s0.816-0.425,0.857-0.797L995.029,142.872z"/>
	</g>
	<g>
		<circle cx="1001.819" cy="137.817" r="2.174"/>
		<path d="M1006.504,142.872c0,0,0.123-2.428-2.439-2.428h-4.444c-2.472,0-2.45,2.243-2.453,2.428v6.891
			c0.04,0.371,0.407,0.794,0.862,0.794c0.45,0,0.785-0.41,0.827-0.783l0.773,10.974c0.057,0.559,0.448,0.767,0.935,0.767
			c0.485,0,0.877-0.208,0.936-0.767h0.683c0.059,0.559,0.456,0.767,0.937,0.767c0.487,0,0.881-0.208,0.938-0.767l0.796-10.98
			c0,0.372,0.36,0.791,0.814,0.791s0.817-0.425,0.857-0.797L1006.504,142.872z"/>
	</g>
	<g>
		<circle cx="1013.294" cy="137.817" r="2.174"/>
		<path d="M1017.979,142.872c0,0,0.123-2.428-2.439-2.428h-4.443c-2.473,0-2.451,2.243-2.454,2.428v6.891
			c0.04,0.371,0.407,0.794,0.862,0.794c0.451,0,0.785-0.41,0.827-0.783l0.773,10.974c0.057,0.559,0.449,0.767,0.935,0.767
			s0.877-0.208,0.936-0.767h0.683c0.059,0.559,0.456,0.767,0.937,0.767c0.487,0,0.881-0.208,0.938-0.767l0.796-10.98
			c0,0.372,0.36,0.791,0.814,0.791s0.817-0.425,0.857-0.797L1017.979,142.872z"/>
	</g>
	<g>
		<circle cx="1024.769" cy="137.817" r="2.174"/>
		<path d="M1029.453,142.872c0,0,0.123-2.428-2.439-2.428h-4.443c-2.473,0-2.451,2.243-2.454,2.428v6.891
			c0.041,0.371,0.408,0.794,0.862,0.794c0.451,0,0.785-0.41,0.827-0.783l0.773,10.974c0.057,0.559,0.449,0.767,0.935,0.767
			s0.877-0.208,0.936-0.767h0.683c0.06,0.559,0.456,0.767,0.938,0.767c0.486,0,0.88-0.208,0.938-0.767l0.795-10.98
			c0,0.372,0.36,0.791,0.815,0.791c0.454,0,0.816-0.425,0.856-0.797L1029.453,142.872z"/>
	</g>
	<g>
		<circle cx="1036.243" cy="137.817" r="2.174"/>
		<path d="M1040.928,142.872c0,0,0.123-2.428-2.439-2.428h-4.444c-2.472,0-2.45,2.243-2.453,2.428v6.891
			c0.04,0.371,0.407,0.794,0.862,0.794c0.45,0,0.785-0.41,0.827-0.783l0.773,10.974c0.056,0.559,0.448,0.767,0.935,0.767
			c0.485,0,0.877-0.208,0.936-0.767h0.683c0.059,0.559,0.456,0.767,0.937,0.767c0.487,0,0.881-0.208,0.938-0.767l0.796-10.98
			c0,0.372,0.36,0.791,0.814,0.791s0.816-0.425,0.857-0.797L1040.928,142.872z"/>
	</g>
	<g>
		<circle cx="1047.718" cy="137.817" r="2.174"/>
		<path d="M1052.402,142.872c0,0,0.123-2.428-2.439-2.428h-4.444c-2.472,0-2.45,2.243-2.453,2.428v6.891
			c0.04,0.371,0.407,0.794,0.862,0.794c0.45,0,0.785-0.41,0.827-0.783l0.773,10.974c0.057,0.559,0.448,0.767,0.935,0.767
			c0.485,0,0.877-0.208,0.936-0.767h0.683c0.059,0.559,0.456,0.767,0.937,0.767c0.487,0,0.881-0.208,0.938-0.767l0.796-10.98
			c0,0.372,0.36,0.791,0.814,0.791s0.817-0.425,0.857-0.797L1052.402,142.872z"/>
	</g>
	<g>
		<circle cx="1059.192" cy="137.817" r="2.174"/>
		<path d="M1063.877,142.872c0,0,0.123-2.428-2.439-2.428h-4.443c-2.473,0-2.451,2.243-2.454,2.428v6.891
			c0.04,0.371,0.407,0.794,0.862,0.794c0.451,0,0.785-0.41,0.827-0.783l0.773,10.974c0.057,0.559,0.449,0.767,0.935,0.767
			s0.877-0.208,0.936-0.767h0.683c0.06,0.559,0.456,0.767,0.938,0.767c0.486,0,0.88-0.208,0.938-0.767l0.795-10.98
			c0,0.372,0.36,0.791,0.814,0.791s0.817-0.425,0.857-0.797L1063.877,142.872z"/>
	</g>
	<g>
		<circle cx="1070.667" cy="137.817" r="2.174"/>
		<path d="M1075.352,142.872c0,0,0.123-2.428-2.439-2.428h-4.444c-2.472,0-2.45,2.243-2.454,2.428v6.891
			c0.041,0.371,0.408,0.794,0.863,0.794c0.45,0,0.785-0.41,0.826-0.783l0.773,10.974c0.057,0.559,0.449,0.767,0.935,0.767
			c0.486,0,0.878-0.208,0.937-0.767h0.683c0.059,0.559,0.455,0.767,0.937,0.767c0.487,0,0.88-0.208,0.938-0.767l0.796-10.98
			c0,0.372,0.36,0.791,0.814,0.791s0.816-0.425,0.857-0.797L1075.352,142.872z"/>
	</g>
	<g>
		<circle cx="1082.142" cy="137.817" r="2.174"/>
		<path d="M1086.826,142.872c0,0,0.123-2.428-2.439-2.428h-4.444c-2.472,0-2.45,2.243-2.453,2.428v6.891
			c0.04,0.371,0.407,0.794,0.862,0.794c0.45,0,0.785-0.41,0.827-0.783l0.773,10.974c0.056,0.559,0.448,0.767,0.935,0.767
			c0.485,0,0.877-0.208,0.936-0.767h0.683c0.059,0.559,0.456,0.767,0.937,0.767c0.487,0,0.881-0.208,0.938-0.767l0.796-10.98
			c0,0.372,0.36,0.791,0.814,0.791s0.817-0.425,0.857-0.797L1086.826,142.872z"/>
	</g>
	<g>
		<circle cx="1093.616" cy="137.817" r="2.174"/>
		<path d="M1098.301,142.872c0,0,0.123-2.428-2.439-2.428h-4.443c-2.473,0-2.451,2.243-2.454,2.428v6.891
			c0.04,0.371,0.407,0.794,0.862,0.794c0.451,0,0.785-0.41,0.827-0.783l0.773,10.974c0.057,0.559,0.449,0.767,0.935,0.767
			s0.877-0.208,0.936-0.767h0.683c0.059,0.559,0.456,0.767,0.937,0.767c0.487,0,0.881-0.208,0.938-0.767l0.796-10.98
			c0,0.372,0.36,0.791,0.814,0.791s0.817-0.425,0.857-0.797L1098.301,142.872z"/>
	</g>
	<g>
		<circle cx="1105.091" cy="137.817" r="2.174"/>
		<path d="M1109.775,142.872c0,0,0.122-2.428-2.439-2.428h-4.443c-2.473,0-2.451,2.243-2.454,2.428v6.891
			c0.04,0.371,0.407,0.794,0.862,0.794c0.451,0,0.785-0.41,0.826-0.783l0.774,10.974c0.057,0.559,0.449,0.767,0.935,0.767
			s0.877-0.208,0.936-0.767h0.683c0.059,0.559,0.455,0.767,0.937,0.767c0.487,0,0.881-0.208,0.938-0.767l0.795-10.98
			c0,0.372,0.361,0.791,0.815,0.791s0.817-0.425,0.857-0.797L1109.775,142.872z"/>
	</g>
	<g>
		<circle cx="1116.565" cy="137.817" r="2.174"/>
		<path d="M1121.25,142.872c0,0,0.123-2.428-2.439-2.428h-4.444c-2.472,0-2.45,2.243-2.454,2.428v6.891
			c0.041,0.371,0.408,0.794,0.863,0.794c0.45,0,0.785-0.41,0.827-0.783l0.772,10.974c0.057,0.559,0.449,0.767,0.935,0.767
			c0.486,0,0.878-0.208,0.937-0.767h0.683c0.059,0.559,0.456,0.767,0.937,0.767c0.487,0,0.88-0.208,0.938-0.767l0.796-10.98
			c0,0.372,0.36,0.791,0.814,0.791s0.816-0.425,0.857-0.797L1121.25,142.872z"/>
	</g>
	<g>
		<circle cx="1128.04" cy="137.817" r="2.174"/>
		<path d="M1132.725,142.872c0,0,0.123-2.428-2.439-2.428h-4.444c-2.472,0-2.45,2.243-2.453,2.428v6.891
			c0.04,0.371,0.407,0.794,0.862,0.794c0.45,0,0.785-0.41,0.827-0.783l0.773,10.974c0.057,0.559,0.448,0.767,0.935,0.767
			c0.485,0,0.877-0.208,0.936-0.767h0.683c0.059,0.559,0.456,0.767,0.937,0.767c0.487,0,0.881-0.208,0.938-0.767l0.796-10.98
			c0,0.372,0.36,0.791,0.814,0.791s0.817-0.425,0.857-0.797L1132.725,142.872z"/>
	</g>
</g>
<g id="stationPass">
	<g>
		<circle cx="725.491" cy="211.514" r="1.736"/>
		<path d="M729.23,215.55c0,0,0.1-1.938-1.947-1.938h-3.547c-1.975,0-1.958,1.791-1.96,1.938v5.501
			c0.032,0.296,0.325,0.635,0.688,0.635c0.359,0,0.627-0.327,0.66-0.625l0.618,8.761c0.045,0.447,0.358,0.612,0.746,0.612
			s0.7-0.166,0.746-0.612h0.546c0.047,0.447,0.363,0.612,0.748,0.612c0.389,0,0.703-0.166,0.748-0.612l0.635-8.767
			c0,0.297,0.288,0.632,0.65,0.632c0.364,0,0.653-0.339,0.685-0.636L729.23,215.55z"/>
	</g>
	<g>
		<circle cx="734.652" cy="211.514" r="1.736"/>
		<path d="M738.392,215.55c0,0,0.099-1.938-1.946-1.938h-3.549c-1.974,0-1.956,1.791-1.959,1.938v5.501
			c0.033,0.296,0.326,0.635,0.689,0.635c0.359,0,0.626-0.327,0.659-0.625l0.618,8.761c0.045,0.447,0.359,0.612,0.746,0.612
			c0.388,0,0.7-0.166,0.747-0.612h0.546c0.046,0.447,0.362,0.612,0.747,0.612c0.39,0,0.703-0.166,0.749-0.612l0.634-8.767
			c0,0.297,0.288,0.632,0.651,0.632s0.652-0.339,0.685-0.636L738.392,215.55z"/>
	</g>
	<g>
		<circle cx="743.812" cy="211.514" r="1.736"/>
		<path d="M747.553,215.55c0,0,0.099-1.938-1.947-1.938h-3.549c-1.973,0-1.955,1.791-1.958,1.938v5.501
			c0.032,0.296,0.326,0.635,0.689,0.635c0.358,0,0.626-0.327,0.66-0.625l0.617,8.761c0.044,0.447,0.357,0.612,0.745,0.612
			c0.389,0,0.701-0.166,0.748-0.612h0.544c0.048,0.447,0.364,0.612,0.748,0.612c0.39,0,0.704-0.166,0.749-0.612l0.636-8.767
			c0,0.297,0.287,0.632,0.65,0.632c0.362,0,0.651-0.339,0.684-0.636L747.553,215.55z"/>
	</g>
	<g>
		<circle cx="752.975" cy="211.514" r="1.736"/>
		<path d="M756.715,215.55c0,0,0.098-1.938-1.948-1.938h-3.548c-1.974,0-1.956,1.791-1.958,1.938v5.501
			c0.032,0.296,0.325,0.635,0.688,0.635c0.359,0,0.626-0.327,0.66-0.625l0.617,8.761c0.045,0.447,0.358,0.612,0.746,0.612
			c0.387,0,0.7-0.166,0.747-0.612h0.545c0.047,0.447,0.364,0.612,0.748,0.612c0.389,0,0.703-0.166,0.748-0.612l0.636-8.767
			c0,0.297,0.288,0.632,0.65,0.632s0.652-0.339,0.684-0.636L756.715,215.55z"/>
	</g>
	<g>
		<circle cx="762.136" cy="211.514" r="1.736"/>
		<path d="M765.876,215.55c0,0,0.098-1.938-1.948-1.938h-3.547c-1.975,0-1.957,1.791-1.959,1.938v5.501
			c0.031,0.296,0.326,0.635,0.688,0.635c0.36,0,0.627-0.327,0.661-0.625l0.617,8.761c0.045,0.447,0.358,0.612,0.746,0.612
			s0.701-0.166,0.747-0.612h0.545c0.048,0.447,0.364,0.612,0.748,0.612c0.389,0,0.703-0.166,0.749-0.612l0.635-8.767
			c0,0.297,0.288,0.632,0.651,0.632c0.361,0,0.651-0.339,0.684-0.636L765.876,215.55z"/>
	</g>
	<g>
		<circle cx="771.298" cy="211.514" r="1.736"/>
		<path d="M775.037,215.55c0,0,0.098-1.938-1.947-1.938h-3.548c-1.974,0-1.957,1.791-1.959,1.938v5.501
			c0.032,0.296,0.326,0.635,0.688,0.635c0.36,0,0.627-0.327,0.66-0.625l0.618,8.761c0.045,0.447,0.357,0.612,0.745,0.612
			s0.701-0.166,0.748-0.612h0.545c0.047,0.447,0.363,0.612,0.748,0.612c0.389,0,0.703-0.166,0.748-0.612l0.636-8.767
			c0,0.297,0.287,0.632,0.65,0.632c0.362,0,0.651-0.339,0.685-0.636L775.037,215.55z"/>
	</g>
	<g>
		<circle cx="780.458" cy="211.514" r="1.736"/>
		<path d="M784.198,215.55c0,0,0.099-1.938-1.947-1.938h-3.549c-1.973,0-1.956,1.791-1.958,1.938v5.501
			c0.031,0.296,0.324,0.635,0.688,0.635c0.359,0,0.627-0.327,0.661-0.625l0.617,8.761c0.045,0.447,0.357,0.612,0.745,0.612
			s0.701-0.166,0.747-0.612h0.545c0.048,0.447,0.364,0.612,0.748,0.612c0.389,0,0.703-0.166,0.749-0.612l0.636-8.767
			c0,0.297,0.287,0.632,0.649,0.632s0.652-0.339,0.685-0.636L784.198,215.55z"/>
	</g>
	<g>
		<circle cx="789.619" cy="211.514" r="1.736"/>
		<path d="M793.359,215.55c0,0,0.099-1.938-1.947-1.938h-3.548c-1.974,0-1.956,1.791-1.959,1.938v5.501
			c0.032,0.296,0.324,0.635,0.688,0.635c0.36,0,0.627-0.327,0.66-0.625l0.617,8.761c0.046,0.447,0.359,0.612,0.746,0.612
			c0.388,0,0.701-0.166,0.748-0.612h0.544c0.048,0.447,0.364,0.612,0.748,0.612c0.389,0,0.703-0.166,0.75-0.612l0.635-8.767
			c0,0.297,0.287,0.632,0.649,0.632s0.652-0.339,0.685-0.636L793.359,215.55z"/>
	</g>
	<g>
		<circle cx="798.781" cy="211.514" r="1.736"/>
		<path d="M802.521,215.55c0,0,0.098-1.938-1.947-1.938h-3.549c-1.974,0-1.956,1.791-1.959,1.938v5.501
			c0.032,0.296,0.325,0.635,0.689,0.635c0.359,0,0.626-0.327,0.659-0.625l0.617,8.761c0.046,0.447,0.359,0.612,0.747,0.612
			c0.387,0,0.699-0.166,0.747-0.612h0.545c0.048,0.447,0.364,0.612,0.748,0.612c0.39,0,0.702-0.166,0.749-0.612l0.635-8.767
			c0,0.297,0.288,0.632,0.65,0.632s0.651-0.339,0.685-0.636L802.521,215.55z"/>
	</g>
	<g>
		<circle cx="807.942" cy="211.514" r="1.736"/>
		<path d="M811.683,215.55c0,0,0.098-1.938-1.948-1.938h-3.548c-1.974,0-1.956,1.791-1.959,1.938v5.501
			c0.032,0.296,0.325,0.635,0.688,0.635c0.36,0,0.628-0.327,0.66-0.625l0.617,8.761c0.046,0.447,0.358,0.612,0.747,0.612
			c0.388,0,0.699-0.166,0.747-0.612h0.545c0.046,0.447,0.364,0.612,0.748,0.612c0.389,0,0.702-0.166,0.748-0.612l0.635-8.767
			c0,0.297,0.288,0.632,0.65,0.632c0.363,0,0.653-0.339,0.686-0.636L811.683,215.55z"/>
	</g>
	<g>
		<circle cx="817.104" cy="211.514" r="1.736"/>
		<path d="M820.844,215.55c0,0,0.099-1.938-1.947-1.938h-3.549c-1.973,0-1.957,1.791-1.959,1.938v5.501
			c0.032,0.296,0.325,0.635,0.688,0.635c0.36,0,0.628-0.327,0.66-0.625l0.618,8.761c0.046,0.447,0.358,0.612,0.746,0.612
			s0.7-0.166,0.747-0.612h0.545c0.047,0.447,0.364,0.612,0.748,0.612c0.389,0,0.703-0.166,0.749-0.612l0.634-8.767
			c0,0.297,0.288,0.632,0.65,0.632c0.363,0,0.653-0.339,0.686-0.636L820.844,215.55z"/>
	</g>
	<g>
		<circle cx="826.265" cy="211.514" r="1.736"/>
		<path d="M830.005,215.55c0,0,0.099-1.938-1.947-1.938h-3.548c-1.974,0-1.957,1.791-1.96,1.938v5.501
			c0.032,0.296,0.325,0.635,0.688,0.635c0.361,0,0.627-0.327,0.661-0.625l0.617,8.761c0.046,0.447,0.359,0.612,0.746,0.612
			c0.388,0,0.7-0.166,0.747-0.612h0.545c0.047,0.447,0.364,0.612,0.749,0.612c0.388,0,0.702-0.166,0.749-0.612l0.633-8.767
			c0,0.297,0.288,0.632,0.651,0.632s0.652-0.339,0.685-0.636L830.005,215.55z"/>
	</g>
	<g>
		<circle cx="835.426" cy="211.514" r="1.736"/>
		<path d="M839.166,215.55c0,0,0.099-1.938-1.946-1.938h-3.549c-1.975,0-1.957,1.791-1.96,1.938v5.501
			c0.033,0.296,0.326,0.635,0.69,0.635c0.359,0,0.625-0.327,0.659-0.625l0.617,8.761c0.045,0.447,0.359,0.612,0.746,0.612
			c0.388,0,0.7-0.166,0.748-0.612h0.545c0.047,0.447,0.363,0.612,0.748,0.612c0.389,0,0.702-0.166,0.748-0.612l0.635-8.767
			c0,0.297,0.287,0.632,0.651,0.632c0.362,0,0.651-0.339,0.685-0.636L839.166,215.55z"/>
	</g>
	<g>
		<circle cx="844.588" cy="211.514" r="1.736"/>
		<path d="M848.328,215.55c0,0,0.098-1.938-1.948-1.938h-3.548c-1.975,0-1.957,1.791-1.959,1.938v5.501
			c0.032,0.296,0.325,0.635,0.688,0.635c0.358,0,0.626-0.327,0.66-0.625l0.617,8.761c0.045,0.447,0.358,0.612,0.747,0.612
			c0.387,0,0.699-0.166,0.746-0.612h0.546c0.046,0.447,0.364,0.612,0.748,0.612c0.389,0,0.702-0.166,0.747-0.612l0.636-8.767
			c0,0.297,0.288,0.632,0.65,0.632c0.363,0,0.653-0.339,0.685-0.636L848.328,215.55z"/>
	</g>
	<g>
		<circle cx="853.749" cy="211.514" r="1.736"/>
		<path d="M857.489,215.55c0,0,0.098-1.938-1.948-1.938h-3.547c-1.976,0-1.958,1.791-1.96,1.938v5.501
			c0.032,0.296,0.325,0.635,0.688,0.635c0.359,0,0.627-0.327,0.66-0.625l0.617,8.761c0.045,0.447,0.359,0.612,0.747,0.612
			s0.7-0.166,0.746-0.612h0.546c0.046,0.447,0.364,0.612,0.748,0.612c0.389,0,0.702-0.166,0.747-0.612l0.636-8.767
			c0,0.297,0.288,0.632,0.65,0.632c0.363,0,0.653-0.339,0.685-0.636L857.489,215.55z"/>
	</g>
	<g>
		<circle cx="862.91" cy="211.514" r="1.736"/>
		<path d="M866.65,215.55c0,0,0.099-1.938-1.947-1.938h-3.548c-1.975,0-1.958,1.791-1.96,1.938v5.501
			c0.033,0.296,0.326,0.635,0.688,0.635c0.36,0,0.627-0.327,0.66-0.625l0.618,8.761c0.045,0.447,0.358,0.612,0.746,0.612
			s0.7-0.166,0.746-0.612h0.546c0.047,0.447,0.364,0.612,0.748,0.612c0.389,0,0.703-0.166,0.748-0.612l0.635-8.767
			c0,0.297,0.288,0.632,0.651,0.632s0.652-0.339,0.684-0.636L866.65,215.55z"/>
	</g>
	<g>
		<circle cx="872.07" cy="211.514" r="1.736"/>
		<path d="M875.811,215.55c0,0,0.1-1.938-1.947-1.938h-3.549c-1.973,0-1.956,1.791-1.958,1.938v5.501
			c0.032,0.296,0.325,0.635,0.689,0.635c0.358,0,0.626-0.327,0.66-0.625l0.617,8.761c0.044,0.447,0.358,0.612,0.746,0.612
			s0.7-0.166,0.746-0.612h0.546c0.047,0.447,0.363,0.612,0.747,0.612c0.39,0,0.704-0.166,0.749-0.612l0.636-8.767
			c0,0.297,0.287,0.632,0.65,0.632c0.362,0,0.651-0.339,0.684-0.636L875.811,215.55z"/>
	</g>
	<g>
		<circle cx="881.231" cy="211.514" r="1.736"/>
		<path d="M884.972,215.55c0,0,0.099-1.938-1.947-1.938h-3.549c-1.973,0-1.955,1.791-1.958,1.938v5.501
			c0.033,0.296,0.325,0.635,0.689,0.635c0.358,0,0.626-0.327,0.66-0.625l0.617,8.761c0.045,0.447,0.357,0.612,0.746,0.612
			c0.388,0,0.7-0.166,0.747-0.612h0.544c0.048,0.447,0.364,0.612,0.748,0.612c0.39,0,0.704-0.166,0.749-0.612l0.636-8.767
			c0,0.297,0.287,0.632,0.65,0.632c0.361,0,0.652-0.339,0.684-0.636L884.972,215.55z"/>
	</g>
	<g>
		<circle cx="890.394" cy="211.514" r="1.736"/>
		<path d="M894.134,215.55c0,0,0.098-1.938-1.948-1.938h-3.548c-1.974,0-1.956,1.791-1.958,1.938v5.501
			c0.031,0.296,0.325,0.635,0.688,0.635c0.359,0,0.626-0.327,0.66-0.625l0.617,8.761c0.045,0.447,0.358,0.612,0.747,0.612
			c0.387,0,0.699-0.166,0.746-0.612h0.545c0.048,0.447,0.364,0.612,0.747,0.612c0.39,0,0.704-0.166,0.75-0.612l0.635-8.767
			c0,0.297,0.288,0.632,0.65,0.632c0.361,0,0.651-0.339,0.685-0.636L894.134,215.55z"/>
	</g>
	<g>
		<circle cx="899.555" cy="211.514" r="1.736"/>
		<path d="M903.295,215.55c0,0,0.098-1.938-1.947-1.938H897.8c-1.975,0-1.957,1.791-1.959,1.938v5.501
			c0.032,0.296,0.326,0.635,0.688,0.635c0.359,0,0.627-0.327,0.66-0.625l0.617,8.761c0.045,0.447,0.358,0.612,0.746,0.612
			c0.389,0,0.7-0.166,0.748-0.612h0.545c0.047,0.447,0.363,0.612,0.748,0.612c0.389,0,0.702-0.166,0.748-0.612l0.635-8.767
			c0,0.297,0.288,0.632,0.651,0.632c0.362,0,0.651-0.339,0.684-0.636L903.295,215.55z"/>
	</g>
	<g>
		<circle cx="908.716" cy="211.514" r="1.736"/>
		<path d="M912.456,215.55c0,0,0.099-1.938-1.947-1.938h-3.549c-1.973,0-1.956,1.791-1.958,1.938v5.501
			c0.031,0.296,0.325,0.635,0.688,0.635c0.36,0,0.628-0.327,0.661-0.625l0.618,8.761c0.044,0.447,0.357,0.612,0.745,0.612
			s0.701-0.166,0.747-0.612h0.545c0.048,0.447,0.364,0.612,0.748,0.612c0.389,0,0.704-0.166,0.749-0.612l0.635-8.767
			c0,0.297,0.288,0.632,0.649,0.632c0.363,0,0.653-0.339,0.686-0.636L912.456,215.55z"/>
	</g>
	<g>
		<circle cx="917.877" cy="211.514" r="1.736"/>
		<path d="M921.617,215.55c0,0,0.099-1.938-1.947-1.938h-3.548c-1.974,0-1.956,1.791-1.959,1.938v5.501
			c0.031,0.296,0.325,0.635,0.688,0.635c0.36,0,0.627-0.327,0.661-0.625l0.617,8.761c0.045,0.447,0.358,0.612,0.745,0.612
			c0.388,0,0.701-0.166,0.747-0.612h0.545c0.048,0.447,0.364,0.612,0.748,0.612c0.389,0,0.704-0.166,0.749-0.612l0.635-8.767
			c0,0.297,0.288,0.632,0.65,0.632s0.652-0.339,0.685-0.636L921.617,215.55z"/>
	</g>
	<g>
		<circle cx="927.038" cy="211.514" r="1.736"/>
		<path d="M930.778,215.55c0,0,0.099-1.938-1.947-1.938h-3.548c-1.974,0-1.956,1.791-1.959,1.938v5.501
			c0.032,0.296,0.325,0.635,0.688,0.635c0.36,0,0.627-0.327,0.661-0.625l0.617,8.761c0.045,0.447,0.358,0.612,0.745,0.612
			c0.388,0,0.7-0.166,0.748-0.612h0.544c0.049,0.447,0.364,0.612,0.749,0.612c0.389,0,0.702-0.166,0.749-0.612l0.635-8.767
			c0,0.297,0.287,0.632,0.649,0.632c0.363,0,0.652-0.339,0.685-0.636L930.778,215.55z"/>
	</g>
	<g>
		<circle cx="936.2" cy="211.514" r="1.736"/>
		<path d="M939.94,215.55c0,0,0.098-1.938-1.948-1.938h-3.548c-1.974,0-1.956,1.791-1.96,1.938v5.501
			c0.033,0.296,0.326,0.635,0.689,0.635c0.359,0,0.627-0.327,0.66-0.625l0.616,8.761c0.046,0.447,0.359,0.612,0.747,0.612
			s0.7-0.166,0.748-0.612h0.545c0.047,0.447,0.364,0.612,0.748,0.612c0.389,0,0.701-0.166,0.748-0.612l0.636-8.767
			c0,0.297,0.288,0.632,0.649,0.632c0.363,0,0.652-0.339,0.686-0.636L939.94,215.55z"/>
	</g>
	<g>
		<circle cx="945.361" cy="211.514" r="1.736"/>
		<path d="M949.102,215.55c0,0,0.098-1.938-1.948-1.938h-3.548c-1.973,0-1.956,1.791-1.959,1.938v5.501
			c0.032,0.296,0.325,0.635,0.688,0.635c0.36,0,0.628-0.327,0.66-0.625l0.618,8.761c0.045,0.447,0.357,0.612,0.746,0.612
			c0.388,0,0.7-0.166,0.747-0.612h0.545c0.046,0.447,0.364,0.612,0.748,0.612c0.389,0,0.702-0.166,0.748-0.612l0.636-8.767
			c0,0.297,0.287,0.632,0.649,0.632c0.363,0,0.653-0.339,0.686-0.636L949.102,215.55z"/>
	</g>
	<g>
		<circle cx="954.522" cy="211.514" r="1.736"/>
		<path d="M958.263,215.55c0,0,0.099-1.938-1.947-1.938h-3.548c-1.974,0-1.957,1.791-1.96,1.938v5.501
			c0.032,0.296,0.325,0.635,0.688,0.635c0.361,0,0.628-0.327,0.66-0.625l0.618,8.761c0.046,0.447,0.358,0.612,0.746,0.612
			s0.7-0.166,0.747-0.612h0.545c0.046,0.447,0.364,0.612,0.748,0.612c0.389,0,0.703-0.166,0.749-0.612l0.634-8.767
			c0,0.297,0.288,0.632,0.651,0.632c0.362,0,0.652-0.339,0.685-0.636L958.263,215.55z"/>
	</g>
	<g>
		<circle cx="963.684" cy="211.514" r="1.736"/>
		<path d="M967.424,215.55c0,0,0.099-1.938-1.947-1.938h-3.548c-1.974,0-1.957,1.791-1.96,1.938v5.501
			c0.033,0.296,0.326,0.635,0.689,0.635c0.36,0,0.627-0.327,0.66-0.625l0.617,8.761c0.046,0.447,0.359,0.612,0.746,0.612
			c0.388,0,0.7-0.166,0.747-0.612h0.545c0.048,0.447,0.364,0.612,0.749,0.612c0.388,0,0.702-0.166,0.749-0.612l0.634-8.767
			c0,0.297,0.287,0.632,0.65,0.632s0.652-0.339,0.685-0.636L967.424,215.55z"/>
	</g>
	<g>
		<circle cx="972.846" cy="211.514" r="1.736"/>
		<path d="M976.586,215.55c0,0,0.098-1.938-1.948-1.938h-3.549c-1.974,0-1.956,1.791-1.959,1.938v5.501
			c0.033,0.296,0.326,0.635,0.689,0.635c0.359,0,0.626-0.327,0.66-0.625l0.617,8.761c0.044,0.447,0.358,0.612,0.747,0.612
			c0.387,0,0.699-0.166,0.747-0.612h0.544c0.047,0.447,0.364,0.612,0.748,0.612c0.39,0,0.703-0.166,0.748-0.612l0.636-8.767
			c0,0.297,0.287,0.632,0.65,0.632c0.362,0,0.652-0.339,0.685-0.636L976.586,215.55z"/>
	</g>
	<g>
		<circle cx="982.007" cy="211.514" r="1.736"/>
		<path d="M985.747,215.55c0,0,0.098-1.938-1.948-1.938h-3.548c-1.975,0-1.957,1.791-1.959,1.938v5.501
			c0.032,0.296,0.325,0.635,0.688,0.635c0.359,0,0.626-0.327,0.66-0.625l0.617,8.761c0.045,0.447,0.358,0.612,0.747,0.612
			c0.387,0,0.699-0.166,0.747-0.612h0.545c0.046,0.447,0.364,0.612,0.748,0.612c0.389,0,0.702-0.166,0.747-0.612l0.636-8.767
			c0,0.297,0.288,0.632,0.65,0.632c0.363,0,0.652-0.339,0.686-0.636L985.747,215.55z"/>
	</g>
	<g>
		<circle cx="991.168" cy="211.514" r="1.736"/>
		<path d="M994.908,215.55c0,0,0.098-1.938-1.948-1.938h-3.547c-1.976,0-1.958,1.791-1.96,1.938v5.501
			c0.032,0.296,0.325,0.635,0.688,0.635c0.359,0,0.627-0.327,0.66-0.625l0.617,8.761c0.045,0.447,0.359,0.612,0.747,0.612
			s0.7-0.166,0.746-0.612h0.546c0.047,0.447,0.364,0.612,0.749,0.612c0.388,0,0.701-0.166,0.747-0.612l0.635-8.767
			c0,0.297,0.288,0.632,0.65,0.632c0.363,0,0.653-0.339,0.685-0.636L994.908,215.55z"/>
	</g>
	<g>
		<circle cx="1000.329" cy="211.514" r="1.736"/>
		<path d="M1004.068,215.55c0,0,0.1-1.938-1.946-1.938h-3.549c-1.974,0-1.957,1.791-1.96,1.938v5.501
			c0.033,0.296,0.326,0.635,0.689,0.635c0.359,0,0.627-0.327,0.66-0.625l0.617,8.761c0.045,0.447,0.359,0.612,0.746,0.612
			c0.389,0,0.701-0.166,0.747-0.612h0.546c0.047,0.447,0.363,0.612,0.747,0.612c0.39,0,0.703-0.166,0.749-0.612l0.635-8.767
			c0,0.297,0.288,0.632,0.65,0.632c0.363,0,0.652-0.339,0.685-0.636L1004.068,215.55z"/>
	</g>
	<g>
		<circle cx="1009.49" cy="211.514" r="1.736"/>
		<path d="M1013.229,215.55c0,0,0.1-1.938-1.946-1.938h-3.549c-1.974,0-1.956,1.791-1.959,1.938v5.501
			c0.032,0.296,0.325,0.635,0.689,0.635c0.358,0,0.626-0.327,0.66-0.625l0.617,8.761c0.044,0.447,0.357,0.612,0.746,0.612
			c0.388,0,0.7-0.166,0.746-0.612h0.546c0.047,0.447,0.363,0.612,0.747,0.612c0.389,0,0.704-0.166,0.749-0.612l0.636-8.767
			c0,0.297,0.287,0.632,0.65,0.632c0.362,0,0.652-0.339,0.684-0.636L1013.229,215.55z"/>
	</g>
	<g>
		<circle cx="1018.65" cy="211.514" r="1.736"/>
		<path d="M1022.391,215.55c0,0,0.1-1.938-1.947-1.938h-3.547c-1.975,0-1.957,1.791-1.959,1.938v5.501
			c0.032,0.296,0.325,0.635,0.688,0.635c0.359,0,0.626-0.327,0.66-0.625l0.617,8.761c0.045,0.447,0.358,0.612,0.745,0.612
			c0.389,0,0.701-0.166,0.748-0.612h0.545c0.047,0.447,0.363,0.612,0.747,0.612c0.39,0,0.704-0.166,0.749-0.612l0.636-8.767
			c0,0.297,0.287,0.632,0.65,0.632c0.362,0,0.652-0.339,0.684-0.636L1022.391,215.55z"/>
	</g>
	<g>
		<circle cx="1027.812" cy="211.514" r="1.736"/>
		<path d="M1031.553,215.55c0,0,0.097-1.938-1.948-1.938h-3.548c-1.974,0-1.956,1.791-1.958,1.938v5.501
			c0.032,0.296,0.325,0.635,0.688,0.635c0.359,0,0.626-0.327,0.659-0.625l0.618,8.761c0.045,0.447,0.358,0.612,0.746,0.612
			s0.7-0.166,0.747-0.612h0.546c0.046,0.447,0.362,0.612,0.747,0.612c0.389,0,0.703-0.166,0.748-0.612l0.635-8.767
			c0,0.297,0.289,0.632,0.651,0.632c0.363,0,0.652-0.339,0.685-0.636L1031.553,215.55z"/>
	</g>
	<g>
		<circle cx="1036.974" cy="211.514" r="1.736"/>
		<path d="M1040.714,215.55c0,0,0.098-1.938-1.947-1.938h-3.549c-1.973,0-1.956,1.791-1.959,1.938v5.501
			c0.032,0.296,0.326,0.635,0.688,0.635c0.36,0,0.628-0.327,0.661-0.625l0.617,8.761c0.045,0.447,0.357,0.612,0.745,0.612
			c0.389,0,0.702-0.166,0.748-0.612h0.545c0.047,0.447,0.364,0.612,0.748,0.612c0.389,0,0.703-0.166,0.748-0.612l0.636-8.767
			c0,0.297,0.288,0.632,0.65,0.632s0.651-0.339,0.685-0.636L1040.714,215.55z"/>
	</g>
	<g>
		<circle cx="1046.135" cy="211.514" r="1.736"/>
		<path d="M1049.875,215.55c0,0,0.099-1.938-1.947-1.938h-3.549c-1.973,0-1.956,1.791-1.958,1.938v5.501
			c0.031,0.296,0.325,0.635,0.688,0.635c0.36,0,0.628-0.327,0.661-0.625l0.618,8.761c0.045,0.447,0.357,0.612,0.745,0.612
			s0.701-0.166,0.747-0.612h0.545c0.048,0.447,0.364,0.612,0.748,0.612c0.389,0,0.704-0.166,0.749-0.612l0.635-8.767
			c0,0.297,0.288,0.632,0.651,0.632c0.361,0,0.651-0.339,0.684-0.636L1049.875,215.55z"/>
	</g>
</g>
</svg>
