<?xml version="1.0" encoding="utf-8"?>
<!-- Generator: Adobe Illustrator 16.0.0, SVG Export Plug-In . SVG Version: 6.00 Build 0)  -->
<!DOCTYPE svg PUBLIC "-//W3C//DTD SVG 1.1//EN" "http://www.w3.org/Graphics/SVG/1.1/DTD/svg11.dtd">
<svg version="1.1" id="Layer_1" xmlns="http://www.w3.org/2000/svg" xmlns:xlink="http://www.w3.org/1999/xlink" x="0px" y="0px"
	 width="1280px" height="800px" viewBox="0 0 1280 800" enable-background="new 0 0 1280 800" xml:space="preserve">
<g id="busIcon">
	<g id="_x31_45_2_">
		<path fill="#2D4CA1" d="M68.743,408.584c-0.001,3.115-2.531,5.645-5.651,5.643c-3.118-0.002-5.644-2.533-5.639-5.654
			c0-3.117,2.53-5.645,5.653-5.643C66.22,402.932,68.748,405.465,68.743,408.584z"/>
		<path fill="#2D4CA1" d="M90.798,408.604c-0.004,3.121-2.537,5.646-5.653,5.646c-3.121,0-5.643-2.535-5.641-5.652
			c0.003-3.123,2.535-5.646,5.651-5.645C88.275,402.951,90.801,405.484,90.798,408.604z"/>
		<path fill="#2D4CA1" d="M98.907,404.58c-0.007,2.854-2.323,5.168-5.178,5.166l-38.555-0.035c-2.864,0-5.176-2.32-5.174-5.176
			l0.015-15.363c0-2.859,2.322-5.17,5.183-5.17l38.554,0.033c2.857,0.006,5.171,2.324,5.169,5.184L98.907,404.58z"/>
		
			<text transform="matrix(1 9.099997e-04 -9.099997e-04 1 60.7485 403.7129)" fill="#FFFFFF" font-family="'GillSansMT'" font-size="18.2869">145</text>
	</g>
	<g id="_x32_62_2_">
		<circle fill="#2D4CA1" cx="139.097" cy="408.581" r="5.646"/>
		<path fill="#2D4CA1" d="M166.801,408.606c-0.007,3.117-2.533,5.646-5.656,5.641c-3.116,0-5.643-2.531-5.641-5.648
			c0.005-3.115,2.533-5.645,5.654-5.645C164.273,402.954,166.801,405.487,166.801,408.606z"/>
		<path fill="#2D4CA1" d="M174.905,404.583c-0.002,2.854-2.317,5.172-5.173,5.17l-38.558-0.035c-2.862-0.004-5.172-2.324-5.172-5.18
			l0.014-15.361c0.004-2.855,2.322-5.174,5.176-5.174l38.56,0.037c2.857,0.004,5.174,2.322,5.167,5.182L174.905,404.583z"/>
		
			<text transform="matrix(1 9.099997e-04 -9.099997e-04 1 136.7627 403.7168)" fill="#FFFFFF" font-family="'GillSansMT'" font-size="18.2869">262</text>
	</g>
	<g id="_x31_218_2_">
		<path fill="#568740" d="M220.742,408.582c0,3.119-2.53,5.643-5.651,5.643c-3.121-0.002-5.645-2.533-5.641-5.654
			c0-3.113,2.533-5.645,5.654-5.645C218.221,402.936,220.749,405.465,220.742,408.582z"/>
		<path fill="#568740" d="M242.797,408.607c-0.002,3.115-2.535,5.646-5.653,5.639c-3.119,0-5.643-2.531-5.643-5.646
			c0.007-3.123,2.532-5.645,5.658-5.645C240.274,402.953,242.802,405.486,242.797,408.607z"/>
		<path fill="#568740" d="M250.903,404.584c0,2.854-2.32,5.168-5.174,5.166l-38.56-0.037c-2.857-0.002-5.171-2.322-5.169-5.186
			l0.016-15.354c0.007-2.857,2.322-5.172,5.178-5.17l38.56,0.037c2.858,0.004,5.172,2.32,5.167,5.18L250.903,404.584z"/>
		<g>
			
				<text transform="matrix(1 9.999995e-04 -9.999995e-04 1 207.0859 403.6738)" fill="#FFFFFF" font-family="'GillSansMT'" font-size="18.2869">1218</text>
		</g>
	</g>
	<g id="_x32_015_2_">
		<path fill="#568740" d="M296.74,408.58c-0.001,3.121-2.532,5.645-5.649,5.645c-3.123-0.004-5.646-2.537-5.644-5.656
			c0.005-3.113,2.531-5.646,5.655-5.643C294.218,402.932,296.748,405.461,296.74,408.58z"/>
		<path fill="#568740" d="M318.792,408.602c0,3.123-2.531,5.65-5.647,5.646c-3.121-0.004-5.644-2.537-5.644-5.652
			c0.004-3.121,2.533-5.645,5.654-5.643C316.272,402.951,318.8,405.486,318.792,408.602z"/>
		<path fill="#568740" d="M326.902,404.58c-0.003,2.854-2.32,5.17-5.171,5.17l-38.565-0.037c-2.857-0.004-5.171-2.324-5.166-5.182
			l0.016-15.363c0.001-2.855,2.32-5.17,5.18-5.166l38.555,0.039c2.858,0.002,5.172,2.316,5.17,5.18L326.902,404.58z"/>
		<g>
			
				<text transform="matrix(1 9.999995e-04 -9.999995e-04 1 284.2012 403.666)" fill="#FFFFFF" font-family="'GillSansMT'" font-size="18.2869">2015</text>
		</g>
	</g>
	<g id="_x32_112_2_">
		<path fill="#568740" d="M372.744,408.582c-0.002,3.119-2.532,5.643-5.653,5.643c-3.117-0.004-5.644-2.535-5.639-5.656
			c0.003-3.111,2.532-5.645,5.647-5.641C370.223,402.934,372.749,405.463,372.744,408.582z"/>
		<path fill="#568740" d="M394.797,408.604c0,3.121-2.53,5.648-5.649,5.646c-3.118-0.004-5.645-2.537-5.643-5.652
			c0.002-3.119,2.533-5.645,5.653-5.643C392.274,402.953,394.806,405.49,394.797,408.604z"/>
		<path fill="#568740" d="M402.907,404.58c-0.004,2.855-2.324,5.17-5.177,5.17l-38.562-0.037c-2.855-0.002-5.169-2.324-5.167-5.182
			l0.016-15.363c0.002-2.855,2.315-5.168,5.179-5.166l38.557,0.037c2.859,0.002,5.176,2.318,5.169,5.182L402.907,404.58z"/>
		<g>
			
				<text transform="matrix(1 9.999995e-04 -9.999995e-04 1 360.2085 403.6719)" fill="#FFFFFF" font-family="'GillSansMT'" font-size="18.2869">2112</text>
		</g>
	</g>
	<g id="_x32_211_2_">
		<path fill="#568740" d="M448.741,408.583c-0.002,3.119-2.535,5.643-5.653,5.643c-3.117-0.006-5.645-2.533-5.641-5.654
			c0-3.115,2.533-5.643,5.652-5.641C446.215,402.933,448.746,405.466,448.741,408.583z"/>
		<circle fill="#568740" cx="465.146" cy="408.601" r="5.646"/>
		<path fill="#568740" d="M478.902,404.585c0,2.854-2.322,5.168-5.174,5.164l-38.563-0.035c-2.854-0.004-5.172-2.322-5.167-5.178
			l0.018-15.361c0.004-2.857,2.32-5.172,5.182-5.172l38.558,0.041c2.86,0.004,5.176,2.322,5.169,5.18L478.902,404.585z"/>
		<g>
			
				<text transform="matrix(1 9.999995e-04 -9.999995e-04 1 436.2031 403.6719)" fill="#FFFFFF" font-family="'GillSansMT'" font-size="18.2869">2211</text>
		</g>
	</g>
	<g id="_x32_230_2_">
		<path fill="#568740" d="M524.746,408.584c-0.007,3.121-2.532,5.645-5.651,5.643c-3.119-0.006-5.646-2.531-5.643-5.65
			c0-3.119,2.531-5.646,5.654-5.646C522.221,402.934,524.749,405.467,524.746,408.584z"/>
		<path fill="#568740" d="M546.796,408.605c0,3.119-2.526,5.646-5.648,5.645c-3.121-0.004-5.645-2.533-5.643-5.656
			c0.007-3.115,2.533-5.643,5.651-5.643C544.275,402.953,546.801,405.486,546.796,408.605z"/>
		<path fill="#568740" d="M554.905,404.582c-0.004,2.854-2.32,5.17-5.177,5.166l-38.563-0.037c-2.854-0.006-5.167-2.322-5.167-5.182
			l0.021-15.359c0.002-2.857,2.32-5.17,5.176-5.17l38.562,0.039c2.854,0.004,5.169,2.32,5.167,5.182L554.905,404.582z"/>
		<g>
			
				<text transform="matrix(1 9.999995e-04 -9.999995e-04 1 512.2119 403.6719)" fill="#FFFFFF" font-family="'GillSansMT'" font-size="18.2869">2230</text>
		</g>
	</g>
	<g id="_x32_233_2_">
		<path fill="#568740" d="M600.746,408.584c-0.005,3.121-2.535,5.646-5.651,5.645c-3.119-0.002-5.645-2.535-5.645-5.656
			c0-3.113,2.535-5.645,5.653-5.645C598.219,402.934,600.749,405.467,600.746,408.584z"/>
		<path fill="#568740" d="M622.798,408.607c0,3.117-2.533,5.646-5.649,5.643c-3.119,0-5.645-2.533-5.645-5.648
			c0.007-3.119,2.53-5.646,5.651-5.645C620.277,402.953,622.802,405.486,622.798,408.607z"/>
		<path fill="#568740" d="M630.909,404.584c-0.004,2.854-2.322,5.168-5.178,5.164l-38.562-0.035
			c-2.854-0.004-5.174-2.322-5.172-5.182l0.021-15.359c0.004-2.859,2.32-5.172,5.18-5.172l38.56,0.039
			c2.855,0.004,5.169,2.316,5.169,5.184L630.909,404.584z"/>
		<g>
			
				<text transform="matrix(1 9.999995e-04 -9.999995e-04 1 588.2075 403.6719)" fill="#FFFFFF" font-family="'GillSansMT'" font-size="18.2869">2233</text>
		</g>
	</g>
	<g id="_x33_220_2_">
		<path fill="#568740" d="M676.744,408.582c-0.008,3.125-2.533,5.646-5.652,5.646c-3.121-0.002-5.646-2.535-5.645-5.652
			c0-3.115,2.535-5.645,5.65-5.643C674.221,402.936,676.75,405.469,676.744,408.582z"/>
		<path fill="#568740" d="M698.795,408.607c-0.002,3.115-2.529,5.646-5.648,5.639c-3.125-0.002-5.645-2.531-5.641-5.646
			c0-3.121,2.531-5.645,5.646-5.645C696.271,402.955,698.803,405.49,698.795,408.607z"/>
		<path fill="#568740" d="M706.904,404.584c-0.002,2.855-2.32,5.17-5.178,5.17l-38.562-0.039c-2.855-0.004-5.17-2.324-5.166-5.182
			l0.016-15.359c0.004-2.859,2.32-5.172,5.18-5.17l38.559,0.039c2.854,0.002,5.174,2.316,5.17,5.182L706.904,404.584z"/>
		<g>
			
				<text transform="matrix(1 9.999995e-04 -9.999995e-04 1 664.207 403.6738)" fill="#FFFFFF" font-family="'GillSansMT'" font-size="18.2869">3220</text>
		</g>
	</g>
</g>
<g id="graph">
	<g id="_x31_45_1_">
		<circle fill="#2D4CA1" cx="83.868" cy="585.596" r="2.51"/>
		<path fill="#2D4CA1" d="M281.755,585.596c0,3.355-2.722,6.084-6.083,6.084c-3.359,0-6.078-2.729-6.078-6.084
			c0-3.36,2.719-6.083,6.078-6.083C279.033,579.513,281.755,582.233,281.755,585.596z"/>
		<circle fill="#2D4CA1" cx="275.568" cy="715.534" r="2.51"/>
	</g>
	<g id="_x32_62_1_">
		<circle fill="#2D4CA1" cx="83.868" cy="577.171" r="2.51"/>
		<path fill="#2D4CA1" d="M163.098,571.088c3.358,0,6.082,2.725,6.082,6.084c0,3.354-2.724,6.082-6.082,6.082
			c-3.361,0-6.083-2.728-6.083-6.082C157.016,573.812,159.737,571.088,163.098,571.088z"/>
		<circle fill="#2D4CA1" cx="163.097" cy="715.569" r="2.51"/>
	</g>
	<g id="_x31_218_1_">
		<circle fill="#568740" cx="83.868" cy="618.727" r="2.51"/>
		<circle fill="#568740" cx="196.453" cy="618.726" r="6.085"/>
		<path fill="#568740" d="M196.714,713.058c-1.386,0-2.513,1.125-2.513,2.513c0,1.386,1.127,2.511,2.513,2.511
			c1.385,0,2.512-1.125,2.512-2.511C199.226,714.183,198.099,713.058,196.714,713.058z"/>
	</g>
	<g id="_x32_015_1_">
		<circle fill="#568740" cx="83.804" cy="552.464" r="2.51"/>
		<path fill="#568740" d="M265.078,552.465c0,3.356-2.722,6.081-6.084,6.081c-3.36,0-6.081-2.725-6.081-6.081
			c0-3.358,2.723-6.082,6.081-6.082C262.356,546.381,265.078,549.104,265.078,552.465z"/>
		<circle fill="#568740" cx="259.223" cy="715.534" r="2.51"/>
	</g>
	<g id="_x32_112_1_">
		<circle fill="#568740" cx="83.868" cy="539.935" r="2.51"/>
		<circle fill="#568740" cx="212.952" cy="715.569" r="2.51"/>
		<path fill="#568740" d="M219.293,539.935c0,3.358-2.722,6.084-6.085,6.084c-3.358,0-6.078-2.726-6.078-6.084
			c0-3.356,2.722-6.086,6.078-6.086C216.571,533.849,219.293,536.579,219.293,539.935z"/>
	</g>
	<g id="_x32_211_1_">
		<g>
			<path fill="#568740" d="M86.65,505.8c-0.259-1.297-1.41-2.274-2.782-2.274c-1.375,0-2.522,0.979-2.785,2.274h-1.502v1.128h1.502
				c0.263,1.297,1.41,2.279,2.785,2.279c1.374,0,2.523-0.982,2.782-2.279h1.505V505.8H86.65z"/>
		</g>
		<circle fill="#568740" cx="250.656" cy="506.481" r="6.083"/>
		<g>
			<path fill="#568740" d="M251.39,711.249v1.786c1.144,0.261,1.999,1.272,1.999,2.493c0,1.222-0.854,2.235-1.999,2.494v1.793
				h-1.126v-1.793c-1.141-0.261-1.994-1.272-1.994-2.494c0-1.221,0.854-2.235,1.994-2.493v-1.786H251.39z"/>
		</g>
	</g>
	<g id="_x32_230_1_">
		<circle fill="#568740" cx="83.868" cy="531.541" r="2.51"/>
		<path fill="#568740" d="M223.384,531.541c0,3.359-2.724,6.082-6.085,6.082c-3.359,0-6.079-2.723-6.079-6.082
			c0-3.358,2.724-6.081,6.079-6.081C220.66,525.46,223.384,528.183,223.384,531.541z"/>
		<circle fill="#568740" cx="217.258" cy="715.569" r="2.51"/>
	</g>
	<g id="_x32_233_1_">
		<circle fill="#568740" cx="83.868" cy="568.424" r="2.51"/>
		<path fill="#568740" d="M223.384,568.811c0,3.358-2.724,6.083-6.085,6.083c-3.359,0-6.079-2.725-6.079-6.083
			c0-3.354,2.724-6.084,6.079-6.084C220.66,562.727,223.384,565.454,223.384,568.811z"/>
		<circle fill="#568740" cx="217.258" cy="715.569" r="2.51"/>
	</g>
	<g id="_x33_220_1_">
		<circle fill="#568740" cx="83.869" cy="552.464" r="2.51"/>
		<path fill="#568740" d="M202.533,552.465c0,3.356-2.72,6.081-6.08,6.081c-3.361,0-6.083-2.725-6.083-6.081
			c0-3.358,2.723-6.082,6.083-6.082C199.814,546.381,202.533,549.104,202.533,552.465z"/>
		<path fill="#568740" d="M196.714,713.021c-1.386,0-2.513,1.125-2.513,2.512c0,1.386,1.127,2.511,2.513,2.511
			c1.385,0,2.512-1.125,2.512-2.511C199.226,714.146,198.099,713.021,196.714,713.021z"/>
	</g>
	<g>
		<text transform="matrix(0.9 0 0 1 -179.771 208.4678)" fill="#568740" font-family="'MyriadPro-Regular'" font-size="6.9419">23.2</text>
		
			<line fill="none" stroke="#995F82" stroke-width="0.3857" stroke-miterlimit="10" x1="83.868" y1="715.567" x2="292.648" y2="715.567"/>
		
			<line fill="none" stroke="#995F82" stroke-width="0.3857" stroke-miterlimit="10" x1="83.805" y1="506.364" x2="83.805" y2="714.622"/>
		<g>
			
				<text transform="matrix(0.9 0 0 1 -187.1968 274.7305)" fill="#568740" font-family="'MyriadPro-Regular'" font-size="6.9419" letter-spacing="20"> </text>
			<text transform="matrix(0.9 0 0 1 -162.7739 274.7305)" fill="#568740" font-family="'MyriadPro-Regular'" font-size="6.9419">54.6%</text>
		</g>
		<path fill="#995F82" d="M87.696,714.818h-1.602c-0.229-1.021-1.136-1.783-2.226-1.783c-1.091,0-1.996,0.765-2.226,1.783h-1.6
			v1.004h1.598c0.232,1.02,1.138,1.784,2.229,1.784c1.09,0,1.997-0.769,2.226-1.784h1.602L87.696,714.818L87.696,714.818z"/>
		<path fill="#995F82" d="M84.371,711.708v1.599c1.02,0.229,1.784,1.138,1.784,2.226c0,1.091-0.764,1.998-1.784,2.229v1.603h-1.005
			v-1.602c-1.021-0.229-1.785-1.139-1.785-2.229c0-1.089,0.764-1.995,1.785-2.226v-1.6H84.371L84.371,711.708z"/>
		
			<line fill="none" stroke="#995F82" stroke-width="1.5118" stroke-miterlimit="10" x1="80.734" y1="548.327" x2="87.004" y2="548.327"/>
		
			<line fill="none" stroke="#995F82" stroke-width="1.5118" stroke-miterlimit="10" x1="80.734" y1="589.852" x2="87.004" y2="589.852"/>
		
			<line fill="none" stroke="#995F82" stroke-width="1.5118" stroke-miterlimit="10" x1="80.734" y1="631.732" x2="87.004" y2="631.732"/>
		
			<line fill="none" stroke="#995F82" stroke-width="1.5118" stroke-miterlimit="10" x1="80.734" y1="674.155" x2="87.004" y2="674.155"/>
		
			<line fill="none" stroke="#995F82" stroke-width="1.5118" stroke-miterlimit="10" x1="208.865" y1="718.704" x2="208.865" y2="712.432"/>
		
			<line fill="none" stroke="#995F82" stroke-width="1.5118" stroke-miterlimit="10" x1="292.648" y1="718.704" x2="292.648" y2="712.432"/>
		
			<line fill="none" stroke="#995F82" stroke-width="1.5118" stroke-miterlimit="10" x1="166.983" y1="718.704" x2="166.983" y2="712.432"/>
		
			<line fill="none" stroke="#995F82" stroke-width="1.5118" stroke-miterlimit="10" x1="125.751" y1="718.704" x2="125.751" y2="712.432"/>
		<g>
			
				<text transform="matrix(0.9 0 0 1 -187.1968 241.6016)" fill="#2D4CA1" font-family="'MyriadPro-Regular'" font-size="6.9419" letter-spacing="20"> </text>
			<text transform="matrix(0.9 0 0 1 -162.7739 241.6016)" fill="#2D4CA1" font-family="'MyriadPro-Regular'" font-size="6.9419">38.3%</text>
		</g>
		<g>
			
				<text transform="matrix(0.9 0 0 1 -187.1968 233.1748)" fill="#2D4CA1" font-family="'MyriadPro-Regular'" font-size="6.9419" letter-spacing="20"> </text>
			<text transform="matrix(0.9 0 0 1 -162.7739 233.1748)" fill="#2D4CA1" font-family="'MyriadPro-Regular'" font-size="6.9419">34.9%</text>
		</g>
		<g>
			
				<text transform="matrix(0.9 0 0 1 -187.1968 224.4268)" fill="#568740" font-family="'MyriadPro-Regular'" font-size="6.9419" letter-spacing="20"> </text>
			<text transform="matrix(0.9 0 0 1 -162.7739 224.4268)" fill="#568740" font-family="'MyriadPro-Regular'" font-size="6.9419">31.6%</text>
		</g>
		<g>
			<text transform="matrix(0.9 0 0 1 -162.7739 208.4678)" fill="#568740" font-family="'MyriadPro-Regular'" font-size="6.9419">23.7%</text>
		</g>
		<g>
			
				<text transform="matrix(0.9 0 0 1 -187.1968 195.9414)" fill="#568740" font-family="'MyriadPro-Regular'" font-size="6.9419" letter-spacing="20"> </text>
			<text transform="matrix(0.9 0 0 1 -162.7739 195.9414)" fill="#568740" font-family="'MyriadPro-Regular'" font-size="6.9419">17.0%</text>
		</g>
		<g>
			
				<text transform="matrix(0.9 0 0 1 -187.1968 187.5469)" fill="#568740" font-family="'MyriadPro-Regular'" font-size="6.9419" letter-spacing="20"> </text>
			<text transform="matrix(0.9 0 0 1 -162.7739 187.5469)" fill="#568740" font-family="'MyriadPro-Regular'" font-size="6.9419">13.3%</text>
		</g>
		<g>
			
				<text transform="matrix(0.9 0 0 1 -187.1968 162.7764)" fill="#568740" font-family="'MyriadPro-Regular'" font-size="6.9419" letter-spacing="23.333"> </text>
			<text transform="matrix(0.9 0 0 1 -159.4644 162.7764)" fill="#568740" font-family="'MyriadPro-Regular'" font-size="6.9419">2.0%</text>
		</g>
		<g>
			<text transform="matrix(0 0.9 -1 0 195.1133 986.8945)" fill="#568740" font-family="'MyriadPro-Regular'" font-size="6.9419">47.2 </text>
		</g>
		<g>
			<text transform="matrix(0 0.9 -1 0 274.0254 990.3076)" fill="#2D4CA1" font-family="'MyriadPro-Regular'" font-size="6.9419">9.9%</text>
		</g>
		<g>
			<text transform="matrix(0 0.9 -1 0 161.498 986.3877)" fill="#2D4CA1" font-family="'MyriadPro-Regular'" font-size="6.9419">63.2%</text>
		</g>
		<g>
			<text transform="matrix(0 0.9 -1 0 216 986.5537)" fill="#568740" font-family="'MyriadPro-Regular'" font-size="6.9419">36.5 </text>
		</g>
		<g>
			<text transform="matrix(0 0.9 -1 0 249.1953 986.7432)" fill="#568740" font-family="'MyriadPro-Regular'" font-size="6.9419">21.2%</text>
		</g>
		<g>
			<text transform="matrix(0 0.9 -1 0 257.6211 986.7441)" fill="#568740" font-family="'MyriadPro-Regular'" font-size="6.9419">17.8%</text>
		</g>
		<text transform="matrix(0 1 -1 0 318.0762 678.2939)" fill="#6D3155" font-family="'YDIYGO330'" font-size="10.7514">일 평균 승객수</text>
		<text transform="matrix(0 1 -1 0 305.1758 721.623)" fill="#6D3155" font-family="'YDIYGO330'" font-size="10.7514"> 순위</text>
		<text transform="matrix(0 0.9 -1 0 210.1133 986.3994)" fill="#568740" font-family="'MyriadPro-Regular'" font-size="6.9419">39.8%</text>
		<g>
			<g>
				<g>
					<text transform="matrix(1 0 0 1 56.4204 469.9492)" fill="#6D3155" font-family="'YDIYGO330'" font-size="11.0539">일 평균 승객수</text>
					<text transform="matrix(1 0 0 1 75.5444 485.1992)" fill="#6D3155" font-family="'YDIYGO330'" font-size="11.0539">차량수</text>
				</g>
				
					<line fill="none" stroke="#6D3155" stroke-width="0.7212" stroke-miterlimit="10" x1="57.513" y1="474.768" x2="124.083" y2="474.768"/>
				<text transform="matrix(1 0 0 1 50.2383 481.6973)" fill="#6D3155" font-family="'YDIYGO310'" font-size="25.6101">(</text>
				<text transform="matrix(1 0 0 1 124.73 481.6973)" fill="#6D3155" font-family="'YDIYGO310'" font-size="25.6101">)</text>
				<g>
					<text transform="matrix(1 0 0 1 133.0469 477.5908)" fill="#6D3155" font-family="'YDIYGO330'" font-size="9.7574">순위</text>
				</g>
			</g>
		</g>
		<g>
			
				<text transform="matrix(-3.278200e-08 0.75 -1 -4.371139e-08 305.1753 494.0312)" fill="#6D3155" font-family="'SDGothicNeo2OTFB-KSCpc-EUC-H'" font-size="7.8452">2014.3.10 ~ 3.16, 405개 노선 중</text>
		</g>
		
			<text transform="matrix(-4.371139e-08 1 -1 -4.371139e-08 318.0742 494.0303)" fill="#6D3155" font-family="'YDIYGO330'" font-size="10.4749">서울시내 버스 노선 중 상위 %</text>
		
			<text transform="matrix(0.75 0 0 1 55.6758 722.2002)" fill="#6D3155" font-family="'SDGothicNeo2OTFB-KSCpc-EUC-H'" font-size="9.8997">상위</text>
		<text transform="matrix(1 0 0 1 52.5356 745.167)" fill="#6D3155" font-family="'LeagueGothic'" font-size="23.0993"> 100%</text>
		
			<text transform="matrix(-4.371139e-08 1 -1 -4.371139e-08 283.3516 728.793)" fill="#6D3155" font-family="'LeagueGothic'" font-size="16.4249"> 0%</text>
		<text transform="matrix(1 0 0 1 55.6758 510.71)" fill="#6D3155" font-family="'LeagueGothic'" font-size="16.4249"> 0%</text>
		<text transform="matrix(0.9 0 0 1 -167.9927 208.4678)" fill="#568740" font-family="'MyriadPro-Regular'" font-size="6.9419"> - </text>
		
			<text transform="matrix(-3.934025e-08 0.9 -1 -4.371139e-08 195.1089 999.9775)" fill="#568740" font-family="'MyriadPro-Regular'" font-size="6.9419">- </text>
		
			<text transform="matrix(-3.934025e-08 0.9 -1 -4.371139e-08 195.1089 1004.2178)" fill="#568740" font-family="'MyriadPro-Regular'" font-size="6.9419">42.7%</text>
		<text transform="matrix(0 0.9 -1 0 215.6562 999.9785)" fill="#568740" font-family="'MyriadPro-Regular'" font-size="6.9419">- </text>
		
			<text transform="matrix(-3.934025e-08 0.9 -1 -4.371139e-08 215.9995 1004.2178)" fill="#568740" font-family="'MyriadPro-Regular'" font-size="6.9419">37.8%</text>
	</g>
</g>
</svg>
