<?xml version="1.0" encoding="utf-8"?>
<!-- Generator: Adobe Illustrator 16.0.0, SVG Export Plug-In . SVG Version: 6.00 Build 0)  -->
<!DOCTYPE svg PUBLIC "-//W3C//DTD SVG 1.1//EN" "http://www.w3.org/Graphics/SVG/1.1/DTD/svg11.dtd">
<svg version="1.1" id="Layer_1" xmlns="http://www.w3.org/2000/svg" xmlns:xlink="http://www.w3.org/1999/xlink" x="0px" y="0px"
	 width="1280px" height="800px" viewBox="0 0 1280 800" enable-background="new 0 0 1280 800" xml:space="preserve">
<g id="busIcon">
	<g id="_x31_45_3_">
		<path fill="#2D4CA1" d="M1040.399,289.736c-0.001,3.419-2.781,6.204-6.211,6.202c-3.425-0.002-6.203-2.782-6.198-6.212
			c0-3.422,2.78-6.205,6.214-6.204C1037.627,283.521,1040.405,286.307,1040.399,289.736z"/>
		<path fill="#2D4CA1" d="M1064.638,289.754c-0.005,3.43-2.789,6.205-6.213,6.205c-3.431,0-6.2-2.782-6.198-6.208
			c0.003-3.433,2.784-6.206,6.208-6.206C1061.866,283.541,1064.642,286.325,1064.638,289.754z"/>
		<path fill="#2D4CA1" d="M1073.551,285.331c-0.007,3.137-2.554,5.68-5.692,5.678l-42.372-0.034c-3.147,0-5.689-2.55-5.688-5.692
			l0.019-16.881c0-3.142,2.551-5.683,5.695-5.683l42.374,0.033c3.138,0.006,5.682,2.554,5.679,5.701L1073.551,285.331z"/>
		<g enable-background="new    ">
			<path fill="#FFFFFF" d="M1035.688,270.674l1.963,0.001l-0.015,13.713l-1.961-0.001L1035.688,270.674z"/>
			<path fill="#FFFFFF" d="M1048.811,270.51l0.805,0.001l-0.009,7.693l1.532,0.001l-0.002,1.671l-1.531-0.001l-0.004,4.52
				l-1.913-0.002l0.004-4.521l-5.798-0.006v-0.846L1048.811,270.51z M1047.692,278.204l0.003-3.974l-3.177,3.97L1047.692,278.204z"
				/>
			<path fill="#FFFFFF" d="M1053.756,270.693l6.083,0.005v1.746l-4.299-0.003l-0.003,3.465c0.139-0.018,0.277-0.024,0.421-0.024
				c1.33,0.001,2.422,0.404,3.277,1.214c0.856,0.804,1.283,1.838,1.282,3.089c-0.001,1.291-0.426,2.338-1.273,3.143
				c-0.847,0.803-1.945,1.213-3.294,1.212c-1.112-0.001-2.192-0.271-3.237-0.804l0.003-2.025c0.986,0.642,1.95,0.964,2.893,0.965
				c0.826,0,1.519-0.239,2.077-0.716c0.559-0.482,0.84-1.074,0.842-1.768c0-0.726-0.302-1.335-0.91-1.821
				c-0.61-0.482-1.368-0.731-2.277-0.732c-0.777,0-1.31,0.068-1.59,0.199L1053.756,270.693z"/>
		</g>
	</g>
	<g id="_x32_62_3_">
		<circle fill="#2D4CA1" cx="1117.178" cy="289.729" r="6.205"/>
		<path fill="#2D4CA1" d="M1147.625,289.756c-0.008,3.424-2.783,6.205-6.217,6.2c-3.424,0-6.202-2.778-6.2-6.205
			c0.007-3.422,2.784-6.206,6.215-6.206C1144.848,283.544,1147.625,286.328,1147.625,289.756z"/>
		<path fill="#2D4CA1" d="M1156.53,285.338c-0.002,3.137-2.544,5.685-5.684,5.683l-42.376-0.039
			c-3.146-0.004-5.687-2.554-5.687-5.697l0.017-16.878c0.005-3.137,2.553-5.687,5.688-5.687l42.382,0.038
			c3.139,0.008,5.685,2.551,5.678,5.698L1156.53,285.338z"/>
		<g enable-background="new    ">
			<path fill="#FFFFFF" d="M1118.756,282.492l5.221,0.008l-0.002,1.895l-8.676-0.007v-0.138l0.825-0.97
				c1.29-1.595,2.316-2.954,3.08-4.061c0.763-1.111,1.262-1.948,1.494-2.52c0.231-0.573,0.35-1.128,0.35-1.684
				c0-0.772-0.217-1.395-0.658-1.86c-0.436-0.469-1.019-0.705-1.744-0.705c-0.549-0.001-1.09,0.161-1.626,0.481
				c-0.533,0.324-1.014,0.779-1.439,1.364l0.002-2.494c1.066-0.87,2.165-1.306,3.298-1.306c1.197,0.003,2.183,0.4,2.956,1.203
				c0.776,0.801,1.163,1.809,1.161,3.045c0,0.55-0.098,1.138-0.292,1.763c-0.192,0.622-0.535,1.348-1.026,2.159
				c-0.491,0.814-1.326,1.923-2.505,3.328L1118.756,282.492z"/>
			<path fill="#FFFFFF" d="M1130.846,270.65l0.198-0.137l1.185,1.488c-1.046,0.674-1.915,1.412-2.605,2.214
				c-0.691,0.801-1.224,1.74-1.599,2.816c0.727-0.372,1.449-0.558,2.17-0.558c1.08,0.001,1.989,0.387,2.727,1.151
				c0.738,0.762,1.108,1.706,1.107,2.817c-0.002,1.145-0.404,2.115-1.212,2.909c-0.804,0.802-1.783,1.194-2.935,1.193
				c-1.288-0.001-2.329-0.455-3.124-1.356c-0.795-0.907-1.19-2.092-1.188-3.559c0-1.1,0.205-2.19,0.616-3.279
				c0.41-1.085,0.999-2.109,1.769-3.056C1128.725,272.342,1129.688,271.462,1130.846,270.65z M1127.601,279.069
				c-0.052,0.304-0.078,0.651-0.078,1.03c-0.001,0.769,0.222,1.403,0.67,1.901c0.447,0.494,1.022,0.75,1.722,0.75
				c0.627,0.001,1.146-0.21,1.556-0.635c0.411-0.429,0.614-0.962,0.615-1.613c0-0.664-0.216-1.196-0.65-1.605
				c-0.437-0.41-1.01-0.615-1.722-0.618c-0.366,0-0.698,0.058-0.997,0.165C1128.416,278.563,1128.047,278.766,1127.601,279.069z"/>
			<path fill="#FFFFFF" d="M1138.854,282.512l5.221,0.004l-0.002,1.898l-8.675-0.008v-0.137l0.825-0.973
				c1.291-1.592,2.314-2.95,3.081-4.058c0.763-1.111,1.259-1.947,1.492-2.521c0.233-0.572,0.351-1.127,0.351-1.687
				c0-0.768-0.219-1.392-0.657-1.857c-0.438-0.468-1.021-0.704-1.745-0.704c-0.551-0.004-1.092,0.161-1.626,0.482
				c-0.534,0.327-1.014,0.779-1.44,1.369l0.002-2.497c1.066-0.869,2.166-1.305,3.299-1.305c1.196,0.001,2.181,0.401,2.956,1.203
				c0.774,0.803,1.162,1.81,1.16,3.046c0,0.55-0.097,1.136-0.291,1.762c-0.194,0.622-0.536,1.349-1.027,2.159
				c-0.491,0.812-1.326,1.922-2.505,3.326L1138.854,282.512z"/>
		</g>
	</g>
	<g id="_x31_218_4_">
		<path fill="#568740" d="M1206.373,289.73c0,3.428-2.78,6.206-6.21,6.206c-3.429-0.002-6.204-2.782-6.2-6.212
			c0-3.417,2.783-6.205,6.214-6.205C1203.604,283.525,1206.383,286.307,1206.373,289.73z"/>
		<path fill="#568740" d="M1230.613,289.757c-0.002,3.422-2.784,6.206-6.213,6.197c-3.427,0-6.202-2.777-6.202-6.204
			c0.009-3.433,2.783-6.206,6.218-6.206C1227.842,283.543,1230.618,286.327,1230.613,289.757z"/>
		<path fill="#568740" d="M1239.522,285.34c0,3.136-2.55,5.68-5.686,5.673l-42.381-0.037c-3.139-0.002-5.683-2.552-5.681-5.702
			l0.019-16.874c0.008-3.138,2.55-5.685,5.692-5.682l42.377,0.036c3.142,0.008,5.686,2.55,5.68,5.697L1239.522,285.34z"/>
		<g>
			<g enable-background="new    ">
				<path fill="#FFFFFF" d="M1195.441,270.631l1.963,0.002l-0.014,13.713l-1.962-0.002L1195.441,270.631z"/>
				<path fill="#FFFFFF" d="M1205.559,282.459l5.221,0.005l-0.002,1.897l-8.675-0.012v-0.137l0.823-0.97
					c1.291-1.594,2.315-2.953,3.082-4.057c0.763-1.113,1.262-1.946,1.494-2.52c0.233-0.572,0.348-1.131,0.348-1.687
					c0.001-0.772-0.215-1.396-0.654-1.856c-0.438-0.472-1.021-0.708-1.747-0.709c-0.55,0-1.091,0.162-1.625,0.482
					c-0.534,0.323-1.016,0.779-1.442,1.368l0.003-2.497c1.067-0.87,2.166-1.305,3.298-1.305c1.197,0.001,2.183,0.397,2.958,1.201
					c0.774,0.8,1.162,1.809,1.16,3.045c0,0.55-0.097,1.138-0.29,1.763c-0.196,0.623-0.536,1.348-1.031,2.161
					c-0.491,0.812-1.324,1.924-2.504,3.326L1205.559,282.459z"/>
				<path fill="#FFFFFF" d="M1215.54,270.652l1.962,0.002l-0.014,13.712l-1.962-0.002L1215.54,270.652z"/>
				<path fill="#FFFFFF" d="M1222.484,274.335c0.002-1.076,0.404-1.981,1.21-2.727c0.806-0.75,1.792-1.122,2.956-1.122
					c1.144,0.001,2.109,0.374,2.897,1.12c0.788,0.744,1.181,1.657,1.181,2.738c-0.002,1.222-0.573,2.231-1.712,3.032
					c1.269,0.735,1.901,1.812,1.901,3.238c-0.005,1.133-0.415,2.073-1.242,2.812c-0.824,0.739-1.865,1.107-3.121,1.106
					c-1.245-0.001-2.286-0.379-3.132-1.133c-0.843-0.755-1.263-1.693-1.26-2.809c0-1.397,0.648-2.466,1.946-3.219
					c-0.58-0.475-0.998-0.94-1.25-1.408C1222.608,275.494,1222.484,274.952,1222.484,274.335z M1228.937,280.693v-0.199
					c0-0.625-0.224-1.141-0.672-1.535c-0.447-0.392-1.028-0.594-1.741-0.596c-0.7-0.001-1.27,0.203-1.713,0.597
					c-0.442,0.4-0.664,0.916-0.664,1.551s0.223,1.152,0.676,1.55c0.451,0.397,1.036,0.6,1.756,0.601
					c0.688,0.001,1.254-0.183,1.693-0.547C1228.713,281.75,1228.935,281.277,1228.937,280.693z M1228.774,274.403
					c0-0.595-0.203-1.083-0.614-1.471c-0.406-0.39-0.925-0.581-1.554-0.582c-0.636-0.001-1.155,0.192-1.56,0.572
					c-0.408,0.382-0.612,0.865-0.612,1.461c0,0.573,0.211,1.056,0.642,1.463c0.43,0.406,0.941,0.614,1.545,0.614
					c0.595,0.001,1.102-0.204,1.522-0.606C1228.564,275.451,1228.773,274.966,1228.774,274.403z"/>
			</g>
		</g>
	</g>
	<g id="_x32_015_3_">
		<path fill="#568740" d="M1040.396,342.888c0,3.43-2.783,6.206-6.208,6.206c-3.431-0.005-6.205-2.788-6.204-6.215
			c0.007-3.42,2.782-6.204,6.216-6.203C1037.624,336.681,1040.403,339.464,1040.396,342.888z"/>
		<path fill="#568740" d="M1064.631,342.912c0,3.432-2.782,6.21-6.206,6.205c-3.431-0.004-6.202-2.784-6.202-6.208
			c0.005-3.43,2.782-6.206,6.213-6.206C1061.862,336.701,1064.641,339.487,1064.631,342.912z"/>
		<path fill="#568740" d="M1073.545,338.491c-0.003,3.137-2.552,5.684-5.684,5.684l-42.386-0.039
			c-3.138-0.004-5.681-2.554-5.677-5.699l0.02-16.88c0.001-3.138,2.55-5.685,5.693-5.678l42.375,0.04
			c3.138,0.006,5.683,2.545,5.681,5.696L1073.545,338.491z"/>
		<g>
			<g enable-background="new    ">
				<path fill="#FFFFFF" d="M1030.761,335.597l5.219,0.005l-0.001,1.899l-8.677-0.009v-0.137l0.825-0.975
					c1.292-1.591,2.316-2.952,3.082-4.056c0.762-1.115,1.259-1.948,1.494-2.52c0.231-0.573,0.349-1.132,0.349-1.688
					c0.001-0.771-0.219-1.396-0.655-1.856c-0.439-0.472-1.021-0.707-1.747-0.708c-0.55-0.001-1.091,0.16-1.625,0.481
					c-0.534,0.324-1.013,0.78-1.439,1.368l0.002-2.496c1.067-0.869,2.167-1.306,3.299-1.306c1.196,0.001,2.181,0.402,2.956,1.202
					c0.774,0.801,1.162,1.812,1.16,3.046c0,0.55-0.098,1.134-0.292,1.762c-0.192,0.625-0.535,1.348-1.027,2.163
					c-0.49,0.809-1.324,1.923-2.504,3.323L1030.761,335.597z"/>
				<path fill="#FFFFFF" d="M1041.779,323.621c1.257,0.002,2.295,0.663,3.115,1.979c0.819,1.32,1.226,2.997,1.224,5.018
					c0,2.083-0.415,3.775-1.236,5.071c-0.821,1.307-1.888,1.949-3.194,1.947c-1.327-0.001-2.395-0.64-3.197-1.917
					c-0.803-1.273-1.204-2.964-1.202-5.071c0.003-2.083,0.419-3.776,1.252-5.078C1039.372,324.267,1040.453,323.62,1041.779,323.621
					z M1041.799,325.48h-0.098c-0.754,0-1.351,0.463-1.792,1.392c-0.443,0.926-0.665,2.175-0.667,3.763
					c-0.001,1.625,0.213,2.898,0.644,3.821c0.435,0.923,1.028,1.389,1.785,1.389c0.759,0.002,1.359-0.462,1.799-1.386
					c0.437-0.922,0.658-2.174,0.661-3.757c0-1.586-0.207-2.859-0.629-3.798C1043.081,325.958,1042.512,325.482,1041.799,325.48z"/>
				<path fill="#FFFFFF" d="M1050.788,323.806l1.964,0.002l-0.013,13.711l-1.963-0.002L1050.788,323.806z"/>
				<path fill="#FFFFFF" d="M1058.806,323.811l6.086,0.007l-0.002,1.749l-4.298-0.007l-0.004,3.464
					c0.137-0.017,0.278-0.023,0.423-0.023c1.325,0.002,2.421,0.408,3.275,1.214c0.856,0.805,1.283,1.838,1.282,3.09
					c-0.002,1.289-0.425,2.336-1.274,3.14c-0.847,0.804-1.945,1.213-3.292,1.211c-1.113-0.001-2.191-0.27-3.238-0.804l0.004-2.025
					c0.984,0.644,1.95,0.968,2.893,0.969c0.824,0.001,1.516-0.244,2.077-0.719c0.559-0.482,0.841-1.074,0.841-1.768
					c0.002-0.724-0.303-1.334-0.911-1.82c-0.607-0.485-1.367-0.729-2.276-0.73c-0.777-0.004-1.308,0.063-1.589,0.194
					L1058.806,323.811z"/>
			</g>
		</g>
	</g>
	<g id="_x32_112_3_">
		<path fill="#568740" d="M1123.385,342.891c-0.002,3.427-2.784,6.205-6.212,6.205c-3.426-0.004-6.204-2.784-6.2-6.215
			c0.006-3.414,2.785-6.204,6.209-6.201C1120.613,336.683,1123.389,339.467,1123.385,342.891z"/>
		<path fill="#568740" d="M1147.619,342.915c0,3.43-2.779,6.208-6.209,6.205c-3.427-0.005-6.205-2.785-6.202-6.208
			c0.003-3.428,2.782-6.206,6.214-6.206C1144.848,336.704,1147.631,339.492,1147.619,342.915z"/>
		<path fill="#568740" d="M1156.534,338.491c-0.004,3.137-2.555,5.684-5.69,5.684l-42.382-0.039
			c-3.136-0.002-5.68-2.554-5.678-5.699l0.019-16.88c0.003-3.138,2.544-5.683,5.691-5.678l42.376,0.038
			c3.141,0.003,5.688,2.547,5.681,5.698L1156.534,338.491z"/>
		<g>
			<g enable-background="new    ">
				<path fill="#FFFFFF" d="M1113.75,335.603l5.22,0.006l-0.002,1.898l-8.675-0.009v-0.138l0.823-0.973
					c1.293-1.591,2.317-2.949,3.082-4.057c0.763-1.111,1.261-1.948,1.494-2.52c0.232-0.573,0.35-1.129,0.35-1.688
					c0.002-0.769-0.218-1.396-0.655-1.856c-0.438-0.47-1.022-0.707-1.747-0.708c-0.55-0.001-1.091,0.161-1.624,0.482
					c-0.534,0.327-1.014,0.78-1.441,1.367l0.002-2.495c1.069-0.87,2.167-1.306,3.299-1.306c1.198,0.001,2.182,0.401,2.957,1.205
					c0.774,0.801,1.162,1.809,1.161,3.044c0,0.551-0.099,1.136-0.293,1.764c-0.192,0.62-0.536,1.344-1.028,2.158
					c-0.49,0.813-1.323,1.923-2.503,3.324L1113.75,335.603z"/>
				<path fill="#FFFFFF" d="M1123.732,323.803l1.962,0.002l-0.012,13.711l-1.964-0.005L1123.732,323.803z"/>
				<path fill="#FFFFFF" d="M1133.78,323.81l1.965,0.002l-0.015,13.712l-1.963-0.002L1133.78,323.81z"/>
				<path fill="#FFFFFF" d="M1143.9,335.634l5.218,0.008v1.899l-8.678-0.013v-0.138l0.824-0.97c1.291-1.595,2.316-2.951,3.082-4.056
					c0.764-1.112,1.262-1.952,1.494-2.52c0.232-0.573,0.35-1.132,0.35-1.688c0-0.771-0.219-1.396-0.656-1.858
					c-0.438-0.471-1.019-0.705-1.746-0.706c-0.549,0-1.091,0.16-1.626,0.48c-0.533,0.324-1.013,0.78-1.44,1.368l0.002-2.496
					c1.067-0.869,2.165-1.306,3.298-1.306c1.197,0.001,2.183,0.398,2.957,1.201c0.774,0.802,1.163,1.81,1.161,3.046
					c0,0.551-0.098,1.137-0.292,1.763c-0.193,0.622-0.535,1.348-1.026,2.158c-0.492,0.813-1.327,1.923-2.506,3.329L1143.9,335.634z"
					/>
			</g>
		</g>
	</g>
	<g id="_x32_211_2_">
		<path fill="#568740" d="M1206.37,342.895c-0.002,3.423-2.786,6.202-6.211,6.202c-3.426-0.007-6.206-2.782-6.2-6.212
			c0-3.42,2.78-6.204,6.208-6.202C1203.593,336.682,1206.377,339.469,1206.37,342.895z"/>
		<circle fill="#568740" cx="1224.4" cy="342.911" r="6.205"/>
		<path fill="#568740" d="M1239.519,338.501c0,3.136-2.552,5.68-5.688,5.673l-42.383-0.036c-3.135-0.004-5.684-2.552-5.677-5.695
			l0.02-16.878c0.009-3.138,2.55-5.685,5.7-5.685l42.376,0.046c3.144,0.004,5.69,2.547,5.681,5.692L1239.519,338.501z"/>
		<g>
			<g enable-background="new    ">
				<path fill="#FFFFFF" d="M1196.735,335.603l5.22,0.006l-0.001,1.898l-8.676-0.009v-0.138l0.823-0.973
					c1.291-1.591,2.312-2.949,3.082-4.057c0.764-1.111,1.261-1.948,1.493-2.52c0.234-0.573,0.344-1.129,0.344-1.688
					c0.004-0.769-0.211-1.396-0.653-1.856c-0.436-0.47-1.021-0.707-1.748-0.708c-0.55-0.001-1.091,0.161-1.625,0.482
					c-0.53,0.327-1.016,0.78-1.441,1.367l0.002-2.495c1.066-0.87,2.165-1.306,3.297-1.306c1.198,0.001,2.184,0.401,2.958,1.205
					c0.774,0.801,1.162,1.809,1.162,3.044c0,0.551-0.099,1.136-0.292,1.764c-0.198,0.621-0.537,1.344-1.032,2.158
					c-0.488,0.813-1.326,1.923-2.501,3.324L1196.735,335.603z"/>
				<path fill="#FFFFFF" d="M1206.785,335.618l5.219,0.005l-0.001,1.897l-8.678-0.011v-0.137l0.827-0.971
					c1.296-1.595,2.314-2.952,3.085-4.057c0.756-1.114,1.261-1.947,1.488-2.521c0.232-0.572,0.349-1.131,0.349-1.687
					c0.004-0.771-0.217-1.396-0.654-1.856c-0.438-0.472-1.026-0.708-1.751-0.709c-0.549,0-1.087,0.162-1.625,0.482
					c-0.535,0.321-1.013,0.779-1.441,1.369l0.004-2.497c1.069-0.871,2.168-1.305,3.298-1.305c1.199,0.001,2.179,0.396,2.953,1.199
					c0.775,0.801,1.167,1.808,1.165,3.045c0,0.551-0.103,1.138-0.296,1.763c-0.191,0.626-0.536,1.348-1.027,2.162
					c-0.49,0.812-1.324,1.924-2.504,3.327L1206.785,335.618z"/>
				<path fill="#FFFFFF" d="M1216.765,323.81l1.964,0.002l-0.019,13.712l-1.961-0.002L1216.765,323.81z"/>
				<path fill="#FFFFFF" d="M1226.814,323.819l1.961,0.005l-0.014,13.714l-1.962-0.007L1226.814,323.819z"/>
			</g>
		</g>
	</g>
	<g id="_x32_230_3_">
		<path fill="#568740" d="M1041.053,396.06c-0.007,3.425-2.783,6.204-6.209,6.202c-3.429-0.007-6.206-2.78-6.204-6.208
			c0-3.423,2.782-6.205,6.211-6.205C1038.275,389.846,1041.056,392.633,1041.053,396.06z"/>
		<path fill="#568740" d="M1065.285,396.079c0,3.426-2.775,6.206-6.206,6.204c-3.43-0.004-6.204-2.78-6.204-6.212
			c0.008-3.424,2.783-6.206,6.21-6.206C1062.516,389.867,1065.29,392.651,1065.285,396.079z"/>
		<path fill="#568740" d="M1074.198,391.657c-0.004,3.137-2.548,5.687-5.69,5.678l-42.38-0.036
			c-3.138-0.011-5.679-2.553-5.679-5.699l0.021-16.876c0.004-3.14,2.548-5.686,5.692-5.686l42.38,0.042
			c3.138,0.007,5.681,2.551,5.679,5.7L1074.198,391.657z"/>
		<g>
			<g enable-background="new    ">
				<path fill="#FFFFFF" d="M1031.423,388.767l5.219,0.005l-0.001,1.899l-8.677-0.008v-0.138l0.824-0.975
					c1.291-1.59,2.316-2.947,3.082-4.056c0.763-1.11,1.261-1.947,1.494-2.519c0.231-0.574,0.349-1.129,0.349-1.688
					c0.001-0.769-0.217-1.396-0.661-1.857c-0.437-0.469-1.021-0.706-1.746-0.707c-0.549-0.001-1.093,0.16-1.626,0.481
					c-0.533,0.329-1.017,0.781-1.441,1.368l0.002-2.495c1.072-0.87,2.17-1.306,3.298-1.306c1.199,0.001,2.183,0.402,2.957,1.206
					c0.774,0.801,1.163,1.808,1.162,3.045c0,0.55-0.099,1.135-0.293,1.763c-0.196,0.623-0.536,1.344-1.03,2.159
					c-0.487,0.813-1.325,1.923-2.5,3.323L1031.423,388.767z"/>
				<path fill="#FFFFFF" d="M1041.471,388.781l5.22,0.005l-0.002,1.897l-8.677-0.012v-0.138l0.826-0.97
					c1.29-1.595,2.312-2.953,3.08-4.057c0.759-1.114,1.26-1.947,1.492-2.52c0.232-0.572,0.346-1.131,0.346-1.688
					c0.001-0.771-0.217-1.396-0.655-1.856c-0.438-0.472-1.022-0.707-1.747-0.708c-0.55,0-1.09,0.161-1.626,0.482
					c-0.53,0.323-1.013,0.779-1.438,1.368l0.002-2.497c1.066-0.87,2.166-1.305,3.297-1.305c1.197,0.001,2.18,0.396,2.955,1.2
					c0.775,0.801,1.168,1.809,1.168,3.045c0,0.551-0.102,1.138-0.298,1.764c-0.195,0.62-0.532,1.348-1.028,2.161
					c-0.492,0.811-1.326,1.924-2.505,3.326L1041.471,388.781z"/>
				<path fill="#FFFFFF" d="M1051.003,382.703h0.116c0.854,0.001,1.51-0.17,1.957-0.527c0.443-0.349,0.668-0.862,0.669-1.536
					c0-0.613-0.214-1.103-0.651-1.487c-0.435-0.379-1.005-0.573-1.712-0.573c-0.714-0.001-1.505,0.22-2.375,0.664l0.001-1.875
					c0.8-0.393,1.671-0.596,2.611-0.594c1.26,0.002,2.259,0.335,2.988,0.993c0.727,0.664,1.091,1.562,1.09,2.707
					c-0.001,0.694-0.141,1.277-0.425,1.753c-0.285,0.475-0.729,0.882-1.35,1.217c0.535,0.208,0.928,0.467,1.175,0.769
					c0.251,0.305,0.438,0.674,0.577,1.108c0.137,0.436,0.204,0.893,0.204,1.375c-0.001,1.199-0.399,2.185-1.198,2.969
					c-0.802,0.782-1.809,1.167-3.023,1.167c-1.041-0.002-2.046-0.252-3.013-0.756l0.002-2.137c1.032,0.648,2.039,0.978,3.013,0.979
					c0.66,0.001,1.191-0.2,1.594-0.587c0.4-0.39,0.605-0.913,0.606-1.56c0-0.543-0.167-1.02-0.499-1.423
					c-0.195-0.23-0.413-0.399-0.652-0.507c-0.24-0.112-0.755-0.212-1.546-0.31l-0.178-0.024L1051.003,382.703z"/>
				<path fill="#FFFFFF" d="M1062.538,376.806c1.26,0.001,2.295,0.665,3.115,1.98c0.818,1.32,1.229,2.998,1.227,5.021
					c-0.002,2.082-0.415,3.772-1.237,5.069c-0.821,1.305-1.89,1.946-3.197,1.945c-1.326-0.001-2.393-0.639-3.195-1.917
					c-0.801-1.273-1.205-2.963-1.203-5.07c0.004-2.085,0.421-3.779,1.252-5.079C1060.133,377.457,1061.212,376.805,1062.538,376.806
					z M1062.56,378.672h-0.104c-0.754-0.001-1.351,0.462-1.794,1.39c-0.436,0.926-0.664,2.176-0.664,3.763
					c-0.001,1.626,0.208,2.899,0.646,3.821c0.432,0.924,1.026,1.386,1.784,1.388c0.756,0.002,1.353-0.462,1.798-1.384
					c0.442-0.922,0.659-2.176,0.663-3.759c0-1.588-0.207-2.859-0.629-3.797C1063.839,379.143,1063.27,378.673,1062.56,378.672z"/>
			</g>
		</g>
	</g>
	<g id="_x32_233_3_">
		<path fill="#568740" d="M1124.036,396.06c-0.008,3.425-2.787,6.205-6.212,6.204c-3.427-0.002-6.204-2.784-6.204-6.214
			c0-3.417,2.786-6.205,6.21-6.205C1121.258,389.846,1124.038,392.633,1124.036,396.06z"/>
		<path fill="#568740" d="M1148.27,396.081c0,3.424-2.782,6.206-6.205,6.202c-3.428,0-6.204-2.78-6.204-6.205
			c0.008-3.426,2.78-6.204,6.209-6.204C1145.5,389.867,1148.274,392.651,1148.27,396.081z"/>
		<path fill="#568740" d="M1157.185,391.664c-0.004,3.136-2.551,5.68-5.691,5.671l-42.379-0.034
			c-3.138-0.004-5.688-2.553-5.686-5.699l0.023-16.876c0.009-3.143,2.549-5.687,5.696-5.687l42.381,0.041
			c3.136,0.009,5.682,2.546,5.682,5.702L1157.185,391.664z"/>
		<g>
			<g enable-background="new    ">
				<path fill="#FFFFFF" d="M1114.4,388.767l5.217,0.005v1.899l-8.678-0.008v-0.138l0.823-0.975c1.292-1.59,2.317-2.947,3.082-4.056
					c0.763-1.11,1.262-1.947,1.495-2.519c0.231-0.574,0.348-1.129,0.348-1.688c0-0.769-0.216-1.396-0.66-1.857
					c-0.436-0.469-1.021-0.706-1.745-0.707c-0.55-0.001-1.091,0.16-1.626,0.481c-0.533,0.329-1.017,0.781-1.442,1.368l0.002-2.495
					c1.07-0.87,2.168-1.306,3.297-1.306c1.198,0.001,2.184,0.402,2.959,1.206c0.774,0.801,1.161,1.808,1.161,3.045
					c0,0.55-0.099,1.135-0.292,1.763c-0.197,0.623-0.537,1.344-1.03,2.159c-0.49,0.813-1.324,1.923-2.501,3.323L1114.4,388.767z"/>
				<path fill="#FFFFFF" d="M1124.447,388.781l5.222,0.005l-0.003,1.897l-8.678-0.012v-0.138l0.824-0.97
					c1.294-1.595,2.313-2.953,3.084-4.057c0.757-1.114,1.261-1.947,1.488-2.52c0.234-0.572,0.349-1.131,0.349-1.688
					c0.002-0.771-0.217-1.396-0.654-1.856c-0.438-0.472-1.025-0.707-1.747-0.708c-0.551,0-1.092,0.161-1.625,0.482
					c-0.535,0.321-1.014,0.779-1.44,1.368l0.002-2.497c1.067-0.87,2.166-1.305,3.298-1.305c1.197,0.001,2.177,0.396,2.955,1.2
					c0.774,0.801,1.167,1.809,1.167,3.045c0,0.551-0.101,1.138-0.298,1.764c-0.194,0.62-0.531,1.348-1.028,2.161
					c-0.492,0.811-1.325,1.924-2.505,3.326L1124.447,388.781z"/>
				<path fill="#FFFFFF" d="M1133.98,382.703h0.117c0.852,0.001,1.51-0.17,1.953-0.527c0.447-0.349,0.671-0.862,0.674-1.536
					c0-0.613-0.216-1.103-0.652-1.487c-0.434-0.379-1.006-0.573-1.716-0.573c-0.709-0.001-1.501,0.22-2.371,0.664l0.001-1.875
					c0.799-0.393,1.67-0.596,2.61-0.594c1.26,0.002,2.259,0.335,2.988,0.993c0.728,0.664,1.092,1.562,1.091,2.707
					c-0.001,0.694-0.143,1.277-0.427,1.753c-0.284,0.475-0.729,0.882-1.35,1.217c0.537,0.208,0.931,0.467,1.178,0.769
					c0.248,0.305,0.435,0.674,0.572,1.108c0.138,0.436,0.206,0.893,0.206,1.375c0,1.199-0.4,2.185-1.2,2.969
					c-0.802,0.782-1.809,1.167-3.024,1.167c-1.039-0.002-2.043-0.252-3.01-0.756l0.002-2.137c1.03,0.648,2.037,0.978,3.012,0.979
					c0.659,0.001,1.191-0.2,1.591-0.587c0.4-0.39,0.607-0.913,0.609-1.56c0-0.543-0.166-1.02-0.498-1.423
					c-0.197-0.23-0.414-0.399-0.655-0.507c-0.242-0.112-0.756-0.212-1.543-0.31l-0.178-0.024L1133.98,382.703z"/>
				<path fill="#FFFFFF" d="M1144.031,382.713h0.114c0.856,0.001,1.51-0.175,1.957-0.526c0.448-0.354,0.672-0.867,0.675-1.541
					c0-0.608-0.217-1.103-0.656-1.482c-0.436-0.384-1.005-0.573-1.714-0.573c-0.712-0.001-1.503,0.218-2.374,0.665l0.002-1.875
					c0.799-0.394,1.671-0.597,2.609-0.596c1.264,0.001,2.26,0.332,2.988,0.989c0.729,0.664,1.093,1.563,1.092,2.707
					c-0.001,0.697-0.144,1.277-0.426,1.754s-0.73,0.88-1.348,1.215c0.533,0.208,0.931,0.472,1.173,0.773
					c0.251,0.302,0.441,0.67,0.579,1.104c0.137,0.436,0.205,0.893,0.204,1.375c-0.001,1.204-0.397,2.189-1.201,2.97
					c-0.799,0.782-1.809,1.167-3.023,1.167c-1.04-0.001-2.041-0.251-3.01-0.756l0.002-2.139c1.031,0.652,2.037,0.977,3.01,0.978
					c0.665,0.001,1.193-0.2,1.595-0.585c0.403-0.391,0.606-0.911,0.606-1.562c0-0.54-0.162-1.018-0.497-1.423
					c-0.197-0.229-0.414-0.394-0.655-0.507c-0.238-0.113-0.755-0.208-1.544-0.31l-0.176-0.023L1144.031,382.713z"/>
			</g>
		</g>
	</g>
	<g id="_x33_220_3_">
		<path fill="#568740" d="M1207.029,396.047c-0.009,3.434-2.783,6.206-6.212,6.206c-3.429-0.002-6.205-2.784-6.204-6.21
			c0-3.421,2.785-6.204,6.205-6.203C1204.256,389.842,1207.034,392.629,1207.029,396.047z"/>
		<path fill="#568740" d="M1231.264,396.075c-0.003,3.421-2.779,6.205-6.207,6.196c-3.434-0.002-6.204-2.777-6.202-6.204
			c0-3.43,2.781-6.205,6.205-6.205C1228.489,389.863,1231.271,392.649,1231.264,396.075z"/>
		<path fill="#568740" d="M1240.176,391.655c-0.002,3.137-2.548,5.682-5.694,5.682l-42.381-0.041
			c-3.138-0.006-5.683-2.554-5.679-5.699l0.02-16.876c0.004-3.14,2.548-5.686,5.697-5.683l42.378,0.041
			c3.137,0.004,5.687,2.544,5.683,5.698L1240.176,391.655z"/>
		<g>
			<g enable-background="new    ">
				<path fill="#FFFFFF" d="M1196.879,382.681h0.116c0.853,0.001,1.51-0.173,1.959-0.526c0.442-0.354,0.666-0.867,0.666-1.542
					c0.002-0.608-0.21-1.102-0.651-1.485c-0.436-0.38-1.005-0.574-1.711-0.574c-0.713-0.001-1.506,0.222-2.376,0.666l0.002-1.875
					c0.8-0.397,1.669-0.597,2.61-0.596c1.262,0.001,2.259,0.332,2.988,0.991c0.728,0.664,1.092,1.563,1.091,2.707
					c-0.001,0.697-0.144,1.277-0.424,1.754c-0.288,0.473-0.729,0.88-1.352,1.216c0.537,0.206,0.935,0.467,1.178,0.77
					c0.248,0.304,0.437,0.672,0.574,1.106c0.135,0.436,0.206,0.893,0.206,1.376c-0.002,1.2-0.402,2.184-1.2,2.967
					c-0.802,0.782-1.81,1.169-3.025,1.168c-1.039-0.001-2.042-0.252-3.011-0.758l0.002-2.135c1.03,0.651,2.037,0.976,3.012,0.978
					c0.661,0.001,1.193-0.199,1.591-0.586c0.4-0.389,0.609-0.913,0.609-1.561c0.001-0.543-0.164-1.018-0.498-1.423
					c-0.197-0.229-0.414-0.398-0.653-0.507c-0.242-0.111-0.756-0.209-1.544-0.31l-0.177-0.022L1196.879,382.681z"/>
				<path fill="#FFFFFF" d="M1207.444,388.776l5.22,0.006l-0.002,1.897l-8.679-0.012v-0.137l0.825-0.97
					c1.295-1.595,2.316-2.953,3.086-4.057c0.758-1.114,1.26-1.947,1.489-2.52c0.233-0.572,0.349-1.131,0.349-1.688
					c0.002-0.771-0.216-1.396-0.654-1.856c-0.438-0.471-1.025-0.708-1.752-0.708c-0.55,0-1.086,0.161-1.625,0.482
					c-0.534,0.323-1.016,0.779-1.443,1.368l0.008-2.497c1.068-0.87,2.167-1.305,3.301-1.305c1.197,0.001,2.175,0.396,2.953,1.2
					c0.776,0.801,1.166,1.809,1.162,3.045c0,0.551-0.101,1.138-0.293,1.764c-0.195,0.623-0.534,1.348-1.029,2.161
					c-0.489,0.812-1.326,1.924-2.503,3.327L1207.444,388.776z"/>
				<path fill="#FFFFFF" d="M1217.494,388.786l5.219,0.005l-0.002,1.897l-8.677-0.009v-0.137l0.825-0.975
					c1.292-1.591,2.312-2.949,3.081-4.057c0.763-1.11,1.261-1.946,1.493-2.519c0.232-0.572,0.344-1.127,0.344-1.688
					c0-0.768-0.211-1.393-0.656-1.857c-0.435-0.468-1.021-0.707-1.746-0.707c-0.549-0.002-1.09,0.161-1.624,0.482
					c-0.529,0.328-1.015,0.781-1.441,1.369l0.003-2.497c1.069-0.87,2.167-1.305,3.299-1.305c1.197,0.001,2.183,0.4,2.957,1.204
					c0.773,0.802,1.161,1.81,1.161,3.046c-0.001,0.551-0.099,1.134-0.293,1.763c-0.198,0.62-0.536,1.346-1.03,2.158
					c-0.49,0.812-1.324,1.922-2.503,3.325L1217.494,388.786z"/>
				<path fill="#FFFFFF" d="M1228.514,376.802c1.258,0.002,2.293,0.665,3.113,1.981c0.818,1.32,1.229,2.997,1.226,5.021
					c-0.003,2.083-0.414,3.773-1.235,5.068c-0.823,1.305-1.891,1.947-3.196,1.946c-1.329-0.001-2.394-0.64-3.198-1.915
					c-0.802-1.277-1.205-2.965-1.203-5.072c0.002-2.084,0.421-3.778,1.254-5.078
					C1226.106,377.452,1227.185,376.801,1228.514,376.802z M1228.531,378.668h-0.099c-0.753-0.001-1.352,0.465-1.792,1.389
					c-0.436,0.929-0.664,2.177-0.664,3.767c-0.002,1.624,0.207,2.896,0.645,3.818c0.432,0.925,1.026,1.389,1.784,1.39
					c0.757,0.001,1.351-0.462,1.798-1.385c0.435-0.922,0.659-2.175,0.662-3.759c0.002-1.586-0.205-2.857-0.623-3.797
					C1229.812,379.139,1229.241,378.669,1228.531,378.668z"/>
			</g>
		</g>
	</g>
</g>
<g id="graph">
	<g id="_x31_45_2_">
		<circle fill="#2D4CA1" cx="686.379" cy="973.987" r="2.307"/>
		<path fill="#2D4CA1" d="M868.265,973.99c0,3.083-2.501,5.592-5.591,5.592c-3.088,0-5.588-2.509-5.588-5.592
			c0-3.087,2.5-5.595,5.588-5.595C865.764,968.395,868.265,970.895,868.265,973.99z"/>
		<circle fill="#2D4CA1" cx="862.578" cy="1093.419" r="2.307"/>
	</g>
	<g id="_x32_62_2_">
		<circle fill="#2D4CA1" cx="686.379" cy="966.242" r="2.307"/>
		<path fill="#2D4CA1" d="M759.203,960.655c3.086,0,5.59,2.504,5.59,5.592c0,3.082-2.504,5.591-5.59,5.591
			c-3.09,0-5.592-2.509-5.592-5.591C753.613,963.158,756.113,960.655,759.203,960.655z"/>
		<circle fill="#2D4CA1" cx="759.201" cy="1093.449" r="2.307"/>
	</g>
	<g id="_x31_218_3_">
		<circle fill="#568740" cx="686.379" cy="1004.439" r="2.307"/>
		<circle fill="#568740" cx="789.86" cy="1004.438" r="5.593"/>
		<path fill="#568740" d="M790.101,1091.142c-1.271,0-2.31,1.034-2.31,2.312c0,1.271,1.035,2.308,2.31,2.308
			c1.275,0,2.311-1.034,2.311-2.308C792.41,1092.177,791.373,1091.142,790.101,1091.142z"/>
	</g>
	<g id="_x32_015_2_">
		<circle fill="#568740" cx="686.32" cy="943.533" r="2.307"/>
		<path fill="#568740" d="M852.937,943.535c0,3.084-2.502,5.589-5.592,5.589c-3.089,0-5.589-2.505-5.589-5.589
			c0-3.085,2.502-5.591,5.589-5.591C850.435,937.946,852.937,940.448,852.937,943.535z"/>
		<circle fill="#568740" cx="847.556" cy="1093.419" r="2.307"/>
	</g>
	<g id="_x32_112_2_">
		<circle fill="#568740" cx="686.379" cy="932.018" r="2.307"/>
		<circle fill="#568740" cx="805.025" cy="1093.449" r="2.307"/>
		<path fill="#568740" d="M810.854,932.017c0,3.086-2.503,5.596-5.594,5.596c-3.086,0-5.587-2.51-5.587-5.596
			c0-3.083,2.502-5.594,5.587-5.594C808.352,926.424,810.854,928.932,810.854,932.017z"/>
	</g>
	<g id="_x32_211_1_">
		<g>
			<path fill="#568740" d="M688.937,900.643c-0.236-1.189-1.296-2.089-2.558-2.089c-1.264,0-2.317,0.9-2.559,2.089h-1.381v1.036
				h1.381c0.241,1.192,1.295,2.098,2.559,2.098c1.265,0,2.32-0.902,2.558-2.098h1.385v-1.036H688.937z"/>
		</g>
		<circle fill="#568740" cx="839.681" cy="901.269" r="5.591"/>
		<g>
			<path fill="#568740" d="M840.354,1089.48v1.644c1.052,0.24,1.838,1.168,1.838,2.291s-0.784,2.053-1.838,2.293v1.646h-1.034
				v-1.646c-1.05-0.242-1.832-1.169-1.832-2.293s0.784-2.054,1.832-2.291v-1.644H840.354z"/>
		</g>
	</g>
	<g id="_x32_230_2_">
		<circle fill="#568740" cx="686.379" cy="924.305" r="2.308"/>
		<path fill="#568740" d="M814.613,924.302c0,3.088-2.503,5.591-5.594,5.591c-3.087,0-5.587-2.503-5.587-5.591
			c0-3.086,2.503-5.588,5.587-5.588C812.11,918.714,814.613,921.216,814.613,924.302z"/>
		<circle fill="#568740" cx="808.982" cy="1093.449" r="2.307"/>
	</g>
	<g id="_x32_233_1_">
		<circle fill="#568740" cx="686.379" cy="958.202" r="2.308"/>
		<path fill="#568740" d="M814.613,958.558c0,3.087-2.503,5.595-5.594,5.595c-3.087,0-5.587-2.507-5.587-5.595
			c0-3.083,2.503-5.592,5.587-5.592C812.11,952.967,814.613,955.472,814.613,958.558z"/>
		<circle fill="#568740" cx="808.982" cy="1093.449" r="2.307"/>
	</g>
	<g id="_x33_220_2_">
		<circle fill="#568740" cx="686.379" cy="943.533" r="2.307"/>
		<path fill="#568740" d="M795.449,943.535c0,3.084-2.5,5.589-5.589,5.589c-3.09,0-5.592-2.505-5.592-5.589
			c0-3.085,2.502-5.591,5.592-5.591C792.949,937.944,795.449,940.448,795.449,943.535z"/>
		<path fill="#568740" d="M790.101,1091.111c-1.271,0-2.31,1.031-2.31,2.309s1.035,2.309,2.31,2.309
			c1.275,0,2.311-1.031,2.311-2.309S791.373,1091.111,790.101,1091.111z"/>
	</g>
	<g id="AXIS">
		
			<line fill="none" stroke="#995F82" stroke-width="0.3545" stroke-miterlimit="10" x1="686.379" y1="1093.45" x2="878.277" y2="1093.45"/>
		
			<line fill="none" stroke="#995F82" stroke-width="0.3545" stroke-miterlimit="10" x1="686.322" y1="901.161" x2="686.322" y2="1092.579"/>
		<path fill="#995F82" d="M689.897,1092.76h-1.474c-0.21-0.938-1.044-1.639-2.046-1.639s-1.834,0.703-2.045,1.639h-1.471v0.923
			h1.469c0.213,0.938,1.045,1.643,2.047,1.643c1.003,0,1.837-0.708,2.047-1.643h1.472L689.897,1092.76L689.897,1092.76z"/>
		<path fill="#995F82" d="M686.842,1089.905v1.469c0.938,0.21,1.641,1.048,1.641,2.048c0,1.003-0.702,1.836-1.641,2.049v1.477
			h-0.924v-1.477c-0.938-0.211-1.641-1.047-1.641-2.049c0-1.001,0.702-1.833,1.641-2.048v-1.471h0.924V1089.905z"/>
		
			<line fill="none" stroke="#995F82" stroke-width="1.3896" stroke-miterlimit="10" x1="683.498" y1="939.734" x2="689.262" y2="939.734"/>
		
			<line fill="none" stroke="#995F82" stroke-width="1.3896" stroke-miterlimit="10" x1="683.498" y1="977.898" x2="689.262" y2="977.898"/>
		
			<line fill="none" stroke="#995F82" stroke-width="1.3896" stroke-miterlimit="10" x1="683.498" y1="1016.392" x2="689.262" y2="1016.392"/>
		
			<line fill="none" stroke="#995F82" stroke-width="1.3896" stroke-miterlimit="10" x1="683.498" y1="1055.385" x2="689.262" y2="1055.385"/>
		
			<line fill="none" stroke="#995F82" stroke-width="1.3896" stroke-miterlimit="10" x1="801.271" y1="1096.331" x2="801.271" y2="1090.57"/>
		
			<line fill="none" stroke="#995F82" stroke-width="1.3896" stroke-miterlimit="10" x1="878.277" y1="1096.331" x2="878.277" y2="1090.57"/>
		
			<line fill="none" stroke="#995F82" stroke-width="1.3896" stroke-miterlimit="10" x1="762.773" y1="1096.331" x2="762.773" y2="1090.57"/>
		
			<line fill="none" stroke="#995F82" stroke-width="1.3896" stroke-miterlimit="10" x1="724.875" y1="1096.331" x2="724.875" y2="1090.57"/>
		<g enable-background="new    ">
			<path fill="#6D3155" d="M900.365,1061.146h2.185v5.188h0.671v-5.188h0.771v6.274h-2.186v-5.168h-0.671v5.405h-0.771V1061.146z
				 M904.377,1066.446h4.584v0.985h-4.584V1066.446z M905.217,1063.843c-0.375-0.477-0.562-1.018-0.562-1.63
				c0-0.604,0.187-1.146,0.559-1.626c0.371-0.479,0.861-0.717,1.467-0.717c0.606,0,1.094,0.237,1.463,0.708
				c0.368,0.473,0.556,1.016,0.556,1.635c0,0.612-0.187,1.157-0.556,1.63c-0.369,0.479-0.856,0.709-1.463,0.709
				C906.08,1064.555,905.593,1064.321,905.217,1063.843z M907.504,1063.148c0.222-0.271,0.33-0.586,0.33-0.936
				s-0.111-0.661-0.334-0.934c-0.225-0.276-0.491-0.411-0.801-0.411c-0.324,0-0.599,0.135-0.826,0.411
				c-0.228,0.271-0.34,0.584-0.34,0.934s0.112,0.661,0.34,0.936c0.229,0.275,0.502,0.409,0.826,0.409
				C907.016,1063.557,907.283,1063.419,907.504,1063.148z"/>
			<path fill="#6D3155" d="M900.617,1079.159c-0.326-0.588-0.488-1.424-0.488-2.511c0-1.078,0.162-1.914,0.488-2.506
				c0.325-0.593,0.731-0.888,1.219-0.888c0.496,0,0.91,0.295,1.246,0.888c0.336,0.592,0.504,1.428,0.504,2.506
				c0,1.09-0.166,1.927-0.498,2.511c-0.334,0.587-0.747,0.878-1.241,0.878C901.354,1080.04,900.943,1079.746,900.617,1079.159z
				 M901.166,1074.984c-0.191,0.437-0.287,0.991-0.287,1.68c0,0.671,0.093,1.226,0.277,1.663c0.185,0.436,0.412,0.649,0.682,0.649
				c0.283,0,0.517-0.218,0.697-0.649c0.181-0.438,0.271-0.988,0.271-1.663c0-0.688-0.089-1.245-0.268-1.68
				c-0.176-0.438-0.407-0.652-0.691-0.652C901.584,1074.329,901.356,1074.547,901.166,1074.984z M903.656,1078.946h1.809v-1.347
				h0.75v1.347h0.652v-1.347h0.75v1.347h1.344v0.985h-5.307L903.656,1078.946L903.656,1078.946z M904.185,1076.822
				c-0.021-0.396-0.042-0.782-0.056-1.156c-0.02-0.54-0.028-1.239-0.028-2.095c0-0.856,0-1.314,0-1.371h0.83v1.186l2.422-0.161
				v0.989l-2.422,0.138c0.006,0.211,0.011,0.396,0.011,0.557c0,0.158,0.003,0.35,0.011,0.57l2.4,0.134v0.977l-2.361-0.13
				c0.015,0.257,0.027,0.517,0.045,0.782c0.018,0.264,0.039,0.504,0.062,0.722h-0.81
				C904.242,1077.592,904.207,1077.214,904.185,1076.822z M907.668,1072.443h0.83v4.988h-0.83V1072.443z"/>
			<path fill="#6D3155" d="M900.464,1082.157h2.698v0.985h-1.867v5.751h-0.83L900.464,1082.157L900.464,1082.157z M904.525,1087.59
				h-2.234v-0.998h2.234v-1.466h-2.234v-1.008h2.234v-3.093h0.83v6.205c0.217,0.056,0.568,0.127,1.057,0.212
				c0.487,0.091,0.933,0.15,1.334,0.19v-5.609h0.83v6.752c-0.707-0.052-1.322-0.117-1.849-0.215
				c-0.526-0.096-0.985-0.201-1.375-0.319v1.479h-0.829L904.525,1087.59L904.525,1087.59z"/>
			<path fill="#6D3155" d="M900.606,1100.511c-0.325-0.606-0.487-1.473-0.487-2.585c0-1.104,0.162-1.969,0.487-2.577
				c0.325-0.606,0.738-0.914,1.239-0.914c0.507,0,0.925,0.308,1.25,0.914c0.325,0.608,0.489,1.473,0.489,2.577
				c0,1.112-0.164,1.976-0.489,2.585c-0.325,0.612-0.744,0.913-1.25,0.913C901.346,1101.425,900.934,1101.12,900.606,1100.511z
				 M902.559,1096.24c-0.172-0.422-0.403-0.635-0.702-0.635c-0.283,0-0.517,0.213-0.701,0.635c-0.186,0.422-0.277,0.981-0.277,1.689
				c0,0.698,0.091,1.258,0.271,1.688c0.182,0.424,0.413,0.634,0.695,0.634c0.29,0,0.524-0.211,0.703-0.634
				c0.178-0.431,0.267-0.987,0.267-1.688C902.815,1097.221,902.729,1096.659,902.559,1096.24z M904.148,1093.578h0.82v8.697h-0.82
				V1093.578z M906.24,1096.655c-0.395-0.639-0.636-1.289-0.728-1.956l0.691-0.604c0.289,1.37,0.697,2.271,1.226,2.686
				c0.526,0.419,0.938,0.631,1.235,0.631H909v1.049h-0.334c-0.297,0-0.721,0.227-1.271,0.682c-0.551,0.454-0.947,1.33-1.191,2.628
				l-0.69-0.604c0.071-0.605,0.296-1.233,0.67-1.883c0.376-0.648,0.805-1.101,1.285-1.354
				C907.041,1097.717,906.631,1097.291,906.24,1096.655z"/>
			<path fill="#6D3155" d="M900.266,1109.725h2.154v-5.466h0.83v6.454h-2.983L900.266,1109.725L900.266,1109.725z M903.744,1109.785
				h2.104v-0.969h-2.104v-0.959h5.069v0.959h-2.065v0.969h2.213v0.959h-5.217V1109.785L903.744,1109.785z M905.543,1105.996
				c-0.902-0.674-1.5-1.537-1.789-2.585l0.623-0.604c0.229,0.87,0.649,1.568,1.259,2.098c0.608,0.522,1.231,0.844,1.862,0.943
				v-2.449h0.83v3.599C907.375,1107.005,906.445,1106.67,905.543,1105.996z"/>
			<path fill="#6D3155" d="M903.526,1116.623h-3.262v-1.028h3.262v-3.835h0.83v8.697h-0.83V1116.623z M905.953,1114.805
				c-0.359-0.637-0.614-1.28-0.768-1.935l0.684-0.604c0.256,1.377,0.685,2.275,1.283,2.693c0.6,0.418,1.053,0.631,1.363,0.631h0.444
				v1.048h-0.444c-0.312,0-0.75,0.195-1.323,0.589c-0.573,0.396-1.016,1.305-1.323,2.734l-0.683-0.602
				c0.064-0.528,0.297-1.142,0.691-1.833c0.396-0.696,0.855-1.17,1.383-1.42C906.748,1115.876,906.312,1115.447,905.953,1114.805z"
				/>
		</g>
		<g enable-background="new    ">
			<path fill="#6D3155" d="M888.606,1103.797h2.449v0.988h-1.619v5.723h-0.83V1103.797L888.606,1103.797z M892.006,1107.615h-1.828
				v-1.01h1.828v-3.935h0.83v8.697h-0.83V1107.615z M894.254,1105.781c-0.387-0.599-0.641-1.267-0.766-2.004l0.68-0.604
				c0.257,1.396,0.687,2.3,1.285,2.706s1.054,0.612,1.363,0.612h0.325v1.05h-0.325c-0.311,0-0.757,0.211-1.34,0.635
				c-0.583,0.425-1.021,1.321-1.31,2.687l-0.682-0.604c0.125-0.651,0.389-1.312,0.791-1.977c0.4-0.666,0.828-1.093,1.283-1.275
				C895.076,1106.784,894.64,1106.375,894.254,1105.781z"/>
			<path fill="#6D3155" d="M888.408,1118.868h8.696v0.985h-8.696V1118.868z M891.586,1117.014c-0.049-0.652-0.074-1.151-0.074-1.497
				h-2.904v-0.984h2.896v-2.396h0.85v2.66c0,0.48,0.029,1.154,0.086,2.021c0.058,0.859,0.105,1.44,0.152,1.732h-0.84
				C891.689,1118.182,891.636,1117.671,891.586,1117.014z M896.363,1116.843c-0.375,0.415-0.812,0.624-1.313,0.624
				s-0.935-0.209-1.3-0.624c-0.365-0.413-0.549-0.977-0.549-1.677s0.183-1.259,0.549-1.681c0.365-0.425,0.799-0.635,1.3-0.635
				s0.938,0.21,1.313,0.635c0.375,0.422,0.562,0.979,0.562,1.681S896.738,1116.426,896.363,1116.843z M895.801,1114.164
				c-0.225-0.218-0.471-0.327-0.741-0.327c-0.27,0-0.517,0.109-0.734,0.327c-0.223,0.215-0.332,0.549-0.332,0.998
				c0,0.441,0.109,0.78,0.332,0.998c0.221,0.215,0.465,0.326,0.734,0.326c0.271,0,0.518-0.108,0.741-0.326
				c0.225-0.219,0.336-0.557,0.336-0.998C896.137,1114.713,896.023,1114.382,895.801,1114.164z"/>
		</g>
		<g>
			<g>
				<g>
					<g enable-background="new    ">
						<path fill="#6D3155" d="M665.937,864.027c-0.486,0.386-1.047,0.575-1.676,0.575c-0.624,0-1.181-0.188-1.671-0.571
							c-0.491-0.385-0.736-0.888-0.736-1.512s0.242-1.127,0.729-1.507c0.482-0.376,1.043-0.563,1.681-0.563
							c0.63,0,1.188,0.188,1.677,0.563c0.486,0.38,0.73,0.882,0.73,1.507C666.668,863.135,666.424,863.636,665.937,864.027z
							 M665.221,861.671c-0.281-0.227-0.602-0.341-0.96-0.341s-0.681,0.116-0.96,0.346c-0.281,0.23-0.422,0.505-0.422,0.824
							c0,0.331,0.142,0.614,0.422,0.848c0.279,0.234,0.602,0.354,0.96,0.354s0.68-0.121,0.96-0.354
							c0.281-0.23,0.421-0.517,0.421-0.848C665.642,862.174,665.5,861.9,665.221,861.671z M663.162,869.011v-2.242h5.334v-0.688
							h-5.334v-0.792h6.453v2.246h-5.313v0.688h5.558v0.789H663.162L663.162,869.011z M668.608,864.886v-4.717h1.017v4.717H668.608z
							"/>
						<path fill="#6D3155" d="M679.275,865.085c-0.406,0.021-0.803,0.042-1.188,0.057c-0.555,0.021-1.272,0.03-2.153,0.03
							s-1.351,0-1.413,0v-0.854h1.222l-0.162-2.489h1.016l0.144,2.489c0.215-0.009,0.404-0.016,0.567-0.016s0.359-0.003,0.589-0.011
							l0.133-2.469h1.006l-0.133,2.429c0.264-0.015,0.53-0.029,0.803-0.047c0.271-0.021,0.519-0.038,0.742-0.064v0.832
							C680.072,865.029,679.684,865.061,679.275,865.085z M674.774,861.505v-0.854h5.132v0.854H674.774z M681.685,868.753
							c-0.603,0.334-1.462,0.505-2.58,0.505c-1.109,0-1.971-0.171-2.576-0.505c-0.604-0.333-0.908-0.752-0.908-1.253
							c0-0.511,0.304-0.938,0.908-1.282c0.605-0.346,1.465-0.517,2.576-0.517c1.116,0,1.979,0.172,2.58,0.514
							c0.603,0.342,0.905,0.771,0.905,1.277C682.588,867.997,682.287,868.417,681.685,868.753z M677.387,868.188
							c0.445,0.196,1.023,0.292,1.728,0.292c0.689,0,1.26-0.096,1.707-0.282c0.446-0.188,0.67-0.427,0.67-0.701
							c0-0.29-0.224-0.529-0.67-0.717c-0.445-0.188-1.017-0.278-1.707-0.278c-0.705,0-1.281,0.092-1.728,0.271
							c-0.446,0.186-0.67,0.423-0.67,0.71C676.716,867.758,676.939,867.992,677.387,868.188z M681.461,865.628v-1.858h-1.381v-0.771
							h1.381v-0.671h-1.381v-0.771h1.381v-1.384h1.016v5.457L681.461,865.628L681.461,865.628z"/>
						<path fill="#6D3155" d="M690.351,864.737v2.296h-1.025v-2.296h-1.504v2.296h-1.035v-2.296h-3.18v-0.856h6.381
							c0.055-0.224,0.127-0.586,0.219-1.088c0.092-0.501,0.156-0.959,0.199-1.372h-5.771v-0.85h6.939
							c-0.049,0.726-0.121,1.355-0.219,1.896c-0.101,0.545-0.209,1.016-0.33,1.412h1.523v0.856L690.351,864.737L690.351,864.737z
							 M684.764,868.909v-2.775h1.017v1.92h5.914v0.855H684.764L684.764,868.909z"/>
						<path fill="#6D3155" d="M696.509,865.12v-0.843h8.94v0.843H696.509z M699.668,862.97c-0.658,0.403-1.328,0.653-2.012,0.747
							l-0.619-0.711c1.408-0.295,2.328-0.715,2.758-1.258c0.43-0.544,0.646-0.967,0.646-1.272v-0.345h1.075v0.345
							c0,0.309,0.232,0.743,0.702,1.312c0.467,0.562,1.368,0.975,2.702,1.222l-0.619,0.711c-0.624-0.074-1.27-0.304-1.936-0.689
							c-0.668-0.389-1.129-0.824-1.388-1.32C700.761,862.151,700.324,862.572,699.668,862.97z M703.636,868.762
							c-0.627,0.335-1.513,0.502-2.658,0.502c-1.138,0-2.021-0.167-2.646-0.502c-0.627-0.334-0.938-0.761-0.938-1.274
							c0-0.521,0.313-0.948,0.938-1.284c0.627-0.334,1.51-0.503,2.646-0.503c1.146,0,2.03,0.169,2.658,0.503
							c0.626,0.335,0.938,0.765,0.938,1.284C704.576,868.002,704.262,868.428,703.636,868.762z M699.24,866.757
							c-0.434,0.177-0.649,0.417-0.649,0.721c0,0.291,0.217,0.532,0.649,0.725c0.435,0.188,1.014,0.287,1.737,0.287
							c0.72,0,1.295-0.099,1.732-0.282c0.438-0.188,0.656-0.426,0.656-0.714c0-0.298-0.221-0.541-0.656-0.725
							c-0.438-0.183-1.014-0.274-1.732-0.274C700.254,866.492,699.675,866.579,699.24,866.757z"/>
						<path fill="#6D3155" d="M709.273,863.688c-0.695,0.931-1.58,1.547-2.656,1.842l-0.621-0.64
							c0.896-0.237,1.611-0.67,2.154-1.296c0.542-0.629,0.866-1.266,0.975-1.915h-2.521v-0.854h3.698
							C710.312,861.804,709.969,862.76,709.273,863.688z M713.109,869.116v-2.214h-5.619v-0.854h6.635v3.068H713.109z
							 M713.17,865.536v-2.163h-0.995v2.163h-0.984v-5.214h0.984v2.125h0.995v-2.278h0.986v5.366L713.17,865.536L713.17,865.536z"/>
						<path fill="#6D3155" d="M720.201,865.76v3.354h-1.058v-3.354h-3.94v-0.853h8.939v0.853H720.201z M718.332,863.266
							c-0.657,0.369-1.321,0.632-1.992,0.787l-0.62-0.704c1.416-0.262,2.338-0.704,2.77-1.319c0.43-0.615,0.646-1.083,0.646-1.4
							v-0.457h1.075v0.457c0,0.321,0.203,0.774,0.605,1.36c0.402,0.59,1.34,1.044,2.811,1.357l-0.621,0.703
							c-0.541-0.068-1.17-0.305-1.883-0.711c-0.715-0.402-1.201-0.88-1.459-1.422C719.433,862.45,718.988,862.896,718.332,863.266z"
							/>
					</g>
					<g enable-background="new    ">
						<path fill="#6D3155" d="M684.266,881.536c-0.271-0.135-0.661-0.429-1.168-0.88c-0.508-0.446-0.85-0.875-1.024-1.274
							c-0.156,0.453-0.479,0.914-0.967,1.382c-0.486,0.467-0.927,0.785-1.32,0.955l-0.771-0.729
							c0.808-0.339,1.423-0.823,1.854-1.447c0.431-0.628,0.646-1.279,0.646-1.956v-0.345h-2.002v-0.888h5.09v0.888h-1.991v0.345
							c0,0.657,0.192,1.239,0.579,1.747c0.387,0.507,0.969,0.979,1.746,1.423L684.266,881.536z M680.619,875.48v-0.854h2.875v0.854
							H680.619z M686.847,874.193v3.586h1.331v0.925h-1.331v4.429h-1.017v-8.939H686.847L686.847,874.193z"/>
						<path fill="#6D3155" d="M692.754,879.237c-0.627,0.044-1.229,0.066-1.803,0.073l-2.256,0.021v-2.713h3.424v-1.107h-3.424
							v-0.843h4.439v2.783h-3.423v1.048l1.615-0.021c0.439-0.007,0.948-0.024,1.523-0.065c0.574-0.041,1.021-0.087,1.341-0.134v0.82
							C693.859,879.144,693.381,879.193,692.754,879.237z M695.346,882.801c-0.594,0.317-1.444,0.478-2.555,0.478
							c-1.104,0-1.949-0.157-2.535-0.478c-0.586-0.312-0.879-0.724-0.879-1.225s0.291-0.912,0.875-1.233
							c0.582-0.323,1.425-0.479,2.529-0.479c1.108,0,1.963,0.157,2.56,0.479c0.596,0.323,0.895,0.732,0.895,1.233
							S695.938,882.488,695.346,882.801z M691.094,880.885c-0.405,0.156-0.609,0.393-0.609,0.703c0,0.286,0.214,0.505,0.642,0.661
							c0.427,0.155,0.981,0.233,1.666,0.233c0.678,0,1.232-0.08,1.666-0.239c0.436-0.158,0.65-0.384,0.65-0.674
							c0-0.312-0.217-0.543-0.65-0.691c-0.433-0.148-0.988-0.224-1.666-0.224C692.064,880.655,691.5,880.73,691.094,880.885z
							 M695.889,878.181v1.524h-1.016v-5.521h1.016v1.208h1.271v0.863h-1.271v1.064h1.271v0.854L695.889,878.181L695.889,878.181z"
							/>
						<path fill="#6D3155" d="M702.625,879.78v3.353h-1.058v-3.353h-3.942v-0.854h8.941v0.854H702.625z M700.756,877.284
							c-0.657,0.369-1.321,0.632-1.992,0.787l-0.619-0.703c1.416-0.266,2.339-0.705,2.771-1.322c0.43-0.616,0.645-1.084,0.645-1.401
							v-0.457h1.077v0.457c0,0.321,0.2,0.774,0.604,1.36c0.401,0.59,1.34,1.044,2.81,1.36l-0.62,0.703
							c-0.542-0.067-1.17-0.308-1.885-0.714c-0.715-0.399-1.201-0.879-1.457-1.421C701.856,876.465,701.412,876.913,700.756,877.284
							z"/>
					</g>
				</g>
				
					<line fill="none" stroke="#6D3155" stroke-width="0.6629" stroke-miterlimit="10" x1="662.156" y1="872.12" x2="723.343" y2="872.12"/>
				<g enable-background="new    ">
					<path fill="#6D3155" d="M657.834,878.054c-0.949-1.901-1.424-4.117-1.424-6.626c0-2.524,0.475-4.744,1.424-6.646
						c0.949-1.906,1.763-3.377,2.438-4.416h0.658c-1.146,1.978-1.988,3.887-2.53,5.724c-0.542,1.835-0.812,3.618-0.812,5.342
						c0,1.71,0.271,3.484,0.812,5.319c0.542,1.837,1.384,3.743,2.53,5.724h-0.658C659.597,881.43,658.783,879.961,657.834,878.054z"
						/>
				</g>
				<g enable-background="new    ">
					<path fill="#6D3155" d="M727.715,864.78c0.949,1.9,1.424,4.121,1.424,6.646c0,2.51-0.477,4.723-1.424,6.626
						c-0.949,1.906-1.77,3.38-2.459,4.416h-0.659c1.161-1.978,2.009-3.887,2.542-5.723s0.802-3.61,0.802-5.319
						c0-1.727-0.269-3.505-0.802-5.343c-0.533-1.836-1.38-3.742-2.542-5.723h0.659C725.945,861.402,726.766,862.87,727.715,864.78z"
						/>
				</g>
				<g>
					<g enable-background="new    ">
						<path fill="#6D3155" d="M736.246,872.705v1.66h-0.916v-1.66h-3.568v-0.752h7.894v0.752H736.246z M734.582,870.666
							c-0.541,0.353-1.146,0.585-1.816,0.697l-0.546-0.621c1.268-0.233,2.086-0.622,2.457-1.167c0.37-0.544,0.557-0.955,0.557-1.237
							v-0.296h0.949v0.296c0,0.282,0.192,0.688,0.579,1.213c0.386,0.528,1.197,0.928,2.437,1.188l-0.548,0.621
							c-0.593-0.113-1.188-0.355-1.794-0.721c-0.604-0.36-0.988-0.752-1.156-1.167C735.494,869.92,735.123,870.319,734.582,870.666z
							 M732.783,875.792v-2.225h0.896v1.474h5.191v0.751H732.783L732.783,875.792z"/>
						<path fill="#6D3155" d="M744.779,873.087c-0.597,0.044-1.048,0.063-1.359,0.063v2.638h-0.896v-2.626h-2.171v-0.771h2.413
							c0.438,0,1.049-0.021,1.834-0.072c0.786-0.057,1.312-0.101,1.574-0.143v0.763
							C745.838,872.994,745.373,873.042,744.779,873.087z M744.621,868.752c0.377,0.34,0.564,0.74,0.564,1.194
							c0,0.452-0.188,0.849-0.564,1.177c-0.375,0.332-0.885,0.498-1.523,0.498c-0.635,0-1.143-0.166-1.524-0.498
							c-0.383-0.328-0.574-0.725-0.574-1.177c0-0.454,0.189-0.854,0.574-1.194c0.383-0.339,0.891-0.512,1.524-0.512
							C743.736,868.242,744.244,868.41,744.621,868.752z M742.19,869.261c-0.196,0.204-0.297,0.427-0.297,0.67
							c0,0.249,0.101,0.475,0.297,0.67c0.196,0.2,0.499,0.304,0.905,0.304c0.405,0,0.708-0.104,0.905-0.304
							c0.197-0.197,0.296-0.423,0.296-0.67c0-0.245-0.099-0.468-0.296-0.67c-0.197-0.206-0.5-0.306-0.905-0.306
							C742.689,868.956,742.389,869.059,742.19,869.261z M746.459,875.969v-7.893h0.897v7.893H746.459z"/>
					</g>
				</g>
			</g>
		</g>
		<g>
			<g enable-background="new    ">
				<path fill="#6D3155" d="M890.131,890.123l1.061,0.788c0.75,0.509,1.392,0.893,2.04,0.893c0.627,0,0.872-0.249,0.872-0.673
					c0-0.239-0.18-0.601-0.354-0.823l0.701-0.144c0.201,0.251,0.396,0.67,0.396,1.114c0,0.84-0.547,1.292-1.493,1.292
					c-0.93,0-1.759-0.617-2.415-1.057l-0.617-0.39v1.461h-0.736v-2.463L890.131,890.123L890.131,890.123z"/>
				<path fill="#6D3155" d="M889.49,894.674c0-0.818,0.728-1.505,2.5-1.505h0.316c1.866,0,2.537,0.746,2.537,1.52
					c0,0.781-0.677,1.495-2.509,1.495h-0.323C890.182,896.183,889.49,895.458,889.49,894.674z M890.209,894.678
					c0,0.479,0.498,0.745,1.738,0.745h0.389c1.232,0,1.781-0.271,1.781-0.737c0-0.479-0.521-0.742-1.73-0.742h-0.396
					C890.787,893.937,890.209,894.199,890.209,894.678z"/>
				<path fill="#6D3155" d="M893.822,897.427l-0.174-0.612h0.555l0.592,0.967v0.379h-5.248v-0.73L893.822,897.427L893.822,897.427z"
					/>
				<path fill="#6D3155" d="M890.556,900.763v-1.705h0.549c1.225,0.643,2.457,1.273,3.684,1.911v0.479h-3.531v0.55h-0.7v-0.55
					h-1.052v-0.688L890.556,900.763L890.556,900.763z M891.256,900.769h1.933c-0.644-0.31-1.291-0.604-1.933-0.909V900.769z"/>
				<path fill="#6D3155" d="M890.317,902.519v0.706h-0.896v-0.706H890.317z"/>
				<path fill="#6D3155" d="M889.504,904.997c0-0.448,0.166-0.958,0.359-1.169l0.691,0.146c-0.173,0.186-0.304,0.631-0.304,0.908
					c0,0.467,0.289,0.764,0.865,0.764c0.555,0,0.777-0.316,0.785-0.764l0.014-0.448h0.686l0.008,0.402
					c0.015,0.409,0.289,0.73,0.777,0.73c0.513,0,0.707-0.283,0.707-0.671c0-0.271-0.137-0.594-0.282-0.812l0.7-0.141
					c0.188,0.255,0.332,0.752,0.332,1.138c0,0.69-0.454,1.204-1.291,1.204c-0.621,0-1.022-0.248-1.219-0.657
					c-0.131,0.467-0.498,0.781-1.275,0.781C890.103,906.409,889.504,905.847,889.504,904.997z"/>
				<path fill="#6D3155" d="M890.317,907.046v0.706h-0.896v-0.706H890.317z"/>
				<path fill="#6D3155" d="M893.822,909.095l-0.174-0.609h0.555l0.592,0.966v0.378h-5.248v-0.731L893.822,909.095L893.822,909.095z
					"/>
				<path fill="#6D3155" d="M889.49,912.331c0-0.817,0.728-1.505,2.5-1.505h0.316c1.866,0,2.537,0.746,2.537,1.52
					c0,0.781-0.677,1.495-2.509,1.495h-0.323C890.182,913.841,889.49,913.117,889.49,912.331z M890.209,912.335
					c0,0.478,0.498,0.743,1.738,0.743h0.389c1.232,0,1.781-0.271,1.781-0.737c0-0.479-0.521-0.746-1.73-0.746h-0.396
					C890.787,911.594,890.209,911.854,890.209,912.335z"/>
				<path fill="#6D3155" d="M892.539,917.582c-0.203,0.208-0.435,0.422-0.435,0.648c0,0.223,0.297,0.396,0.729,0.437l-0.229,0.485
					c-0.881-0.073-1.24-0.499-1.24-0.896c0-0.266,0.137-0.51,0.311-0.729c0.195-0.24,0.49-0.443,0.49-0.643
					c0-0.2-0.215-0.384-0.648-0.443l0.297-0.448c0.812,0.14,1.103,0.521,1.103,0.908
					C892.912,917.171,892.74,917.387,892.539,917.582z"/>
				<path fill="#6D3155" d="M889.504,922.322c0-0.448,0.166-0.958,0.359-1.169l0.691,0.144c-0.173,0.186-0.304,0.632-0.304,0.909
					c0,0.467,0.289,0.765,0.865,0.765c0.555,0,0.777-0.318,0.785-0.765l0.014-0.446h0.686l0.008,0.402
					c0.015,0.411,0.289,0.729,0.777,0.729c0.513,0,0.707-0.281,0.707-0.666c0-0.271-0.137-0.596-0.282-0.812l0.7-0.142
					c0.188,0.252,0.332,0.749,0.332,1.138c0,0.692-0.454,1.202-1.291,1.202c-0.621,0-1.022-0.247-1.219-0.653
					c-0.131,0.465-0.498,0.778-1.275,0.778C890.103,923.735,889.504,923.17,889.504,922.322z"/>
				<path fill="#6D3155" d="M890.317,924.367v0.704h-0.896v-0.704H890.317z"/>
				<path fill="#6D3155" d="M893.822,926.419l-0.174-0.612h0.555l0.592,0.964v0.382h-5.248v-0.73L893.822,926.419L893.822,926.419z"
					/>
				<path fill="#6D3155" d="M889.49,929.55c0-0.938,0.879-1.43,2.307-1.43h0.375c1.947,0,2.667,0.769,2.667,1.666
					c0,0.364-0.167,0.752-0.296,0.915l-0.692-0.187c0.108-0.138,0.229-0.46,0.229-0.71c0-0.519-0.375-0.938-1.693-0.978
					c0.226,0.178,0.455,0.528,0.455,0.899c0,0.686-0.568,1.137-1.563,1.137C890.274,930.872,889.49,930.409,889.49,929.55z
					 M890.195,929.532c0,0.378,0.359,0.646,1.01,0.646c0.699,0,0.951-0.281,0.951-0.666c0-0.248-0.259-0.562-0.504-0.676h-0.043
					C890.729,928.836,890.195,929.075,890.195,929.532z"/>
				<path fill="#6D3155" d="M890.317,931.291v0.706h-0.67c-0.692,0-1.118-0.259-1.27-0.676l0.389-0.126
					c0.103,0.244,0.306,0.399,0.656,0.424v-0.325L890.317,931.291L890.317,931.291z"/>
				<path fill="#6D3155" d="M890.556,935.835v-1.705h0.549c1.225,0.637,2.457,1.272,3.684,1.908v0.479h-3.531v0.551h-0.7v-0.551
					h-1.052v-0.687L890.556,935.835L890.556,935.835z M891.256,935.84h1.933c-0.644-0.309-1.291-0.604-1.933-0.915V935.84z"/>
				<path fill="#6D3155" d="M889.49,939.013c0-0.814,0.728-1.505,2.5-1.505h0.316c1.866,0,2.537,0.746,2.537,1.521
					c0,0.778-0.677,1.492-2.509,1.492h-0.323C890.182,940.523,889.49,939.798,889.49,939.013z M890.209,939.019
					c0,0.479,0.498,0.745,1.738,0.745h0.389c1.232,0,1.781-0.271,1.781-0.737c0-0.479-0.521-0.747-1.73-0.747h-0.396
					C890.787,938.28,890.209,938.537,890.209,939.019z"/>
				<path fill="#6D3155" d="M889.504,942.209c0-0.431,0.152-0.861,0.359-1.104l0.721,0.161c-0.166,0.208-0.315,0.513-0.315,0.775
					c0,0.498,0.346,0.812,0.975,0.812c0.654,0,0.93-0.312,0.93-0.812c0-0.222-0.159-0.606-0.281-0.78l2.87,0.135v2.038h-0.734
					v-1.486l-1.263-0.062c0.051,0.114,0.094,0.354,0.094,0.486c0,0.743-0.534,1.235-1.638,1.235
					C890.252,943.609,889.504,943.059,889.504,942.209z"/>
				<path fill="#6D3155" d="M888.935,947.771h3.409v-0.445h-3.121v-0.643h6.105v0.643h-2.256v0.445h2.364v0.639h-6.502V947.771
					L888.935,947.771z M894.781,946.237c-1.947,0.005-3.481-0.612-4.479-1.844l0.643-0.417c0.707,0.965,1.858,1.508,3.1,1.593
					v-1.312h0.736V946.237L894.781,946.237z"/>
				<path fill="#6D3155" d="M889.689,950.553h0.721v1.954h1.551v-1.321h3.072v0.673h-2.344v2.688h-0.729v-1.364h-1.551v1.968h-0.721
					L889.689,950.553L889.689,950.553z"/>
				<path fill="#6D3155" d="M888.797,956.575h2.242v0.671h-1.515v2.636h-0.729L888.797,956.575L888.797,956.575z M890.57,959.109
					h2.631v-0.967h0.728v0.967h1.506v0.671h-4.865L890.57,959.109L890.57,959.109z M891.465,958.18
					c0.209-0.411,0.828-0.921,1.441-1.137c-0.656-0.168-1.361-0.669-1.623-1.167l0.691-0.395c0.384,0.703,1.283,1.2,2.309,1.2h0.813
					v0.705h-0.785c-1.018,0-1.891,0.573-2.155,1.165L891.465,958.18z"/>
				<path fill="#6D3155" d="M889.856,965.985c-0.829,0-1.306-0.688-1.306-1.666c0-0.979,0.477-1.666,1.306-1.666
					c0.714,0,1.196,0.519,1.298,1.322h0.446v-1.954h0.729v4.594h-0.729v-1.972h-0.446
					C891.054,965.467,890.57,965.985,889.856,965.985z M889.85,965.304c0.375,0,0.601-0.402,0.601-0.996
					c0-0.593-0.226-0.982-0.601-0.982c-0.358,0-0.594,0.391-0.594,0.982C889.259,964.898,889.49,965.304,889.85,965.304z
					 M893.793,964.314c-0.642-0.25-1.131-0.938-1.226-1.688c0.146-0.057,0.562-0.216,0.707-0.271
					c0.086,0.745,0.505,1.398,1.175,1.554v-1.338h0.721v3.489h-0.721v-1.326c-0.67,0.169-1.088,0.883-1.16,1.553
					c-0.146-0.061-0.562-0.215-0.713-0.277C892.668,965.295,893.158,964.596,893.793,964.314z"/>
			</g>
		</g>
		<g enable-background="new    ">
			<path fill="#6D3155" d="M900.299,896.883h4.806v-1.896h0.848v1.896h2.82v0.963h-8.474V896.883z M901.938,895.284
				c0.166-0.369,0.5-0.785,1.006-1.244c0.504-0.46,1.016-0.801,1.535-1.024c-0.47-0.136-0.979-0.44-1.529-0.926
				c-0.555-0.479-0.947-0.935-1.186-1.348l0.604-0.773c0.496,0.896,1.125,1.54,1.889,1.938c0.764,0.395,1.666,0.596,2.705,0.596
				h1.338v1.011h-1.338c-1.053,0-1.92,0.205-2.6,0.611c-0.681,0.407-1.259,1.01-1.732,1.807L901.938,895.284z"/>
			<path fill="#6D3155" d="M904.498,902.62v-3.744h0.75v8.472h-0.75v-3.693h-0.674v2.6h-2.041v-5.26h-0.654v5.469h-0.731v-6.491
				h2.088v5.248h0.616v-5.248h0.724v2.648H904.498L904.498,902.62z M906.246,905.534c-0.273-0.543-0.41-1.353-0.41-2.422
				c0-1.065,0.136-1.871,0.41-2.416c0.271-0.551,0.629-0.821,1.072-0.821c0.438,0,0.799,0.271,1.088,0.821
				c0.289,0.545,0.435,1.351,0.435,2.416c0,1.069-0.147,1.879-0.443,2.422c-0.295,0.543-0.652,0.812-1.076,0.812
				C906.875,906.346,906.519,906.075,906.246,905.534z M907.91,904.705c0.158-0.388,0.235-0.919,0.235-1.591
				c0-0.684-0.075-1.212-0.229-1.602c-0.154-0.384-0.35-0.577-0.588-0.577c-0.226,0-0.418,0.194-0.582,0.584
				c-0.166,0.391-0.246,0.922-0.246,1.595c0,0.668,0.08,1.193,0.24,1.59c0.16,0.392,0.354,0.589,0.578,0.589
				C907.556,905.287,907.752,905.094,907.91,904.705z"/>
			<path fill="#6D3155" d="M900.299,914.618h8.474v0.962h-8.474V914.618z M901.916,913.069c0.168-0.372,0.504-0.788,1.007-1.245
				c0.505-0.46,1.017-0.805,1.536-1.026c-0.469-0.135-0.979-0.438-1.53-0.924c-0.552-0.479-0.945-0.935-1.185-1.35l0.605-0.771
				c0.495,0.894,1.124,1.537,1.889,1.935c0.764,0.4,1.666,0.598,2.704,0.598h1.339v1.013h-1.339c-1.053,0-1.919,0.207-2.601,0.611
				c-0.681,0.406-1.257,1.012-1.731,1.806L901.916,913.069z"/>
			<path fill="#6D3155" d="M900.299,923.493h4.382v-1.091h-3.997v-0.938h7.896v0.938h-3.043v1.091h3.233v0.935h-8.473
				L900.299,923.493L900.299,923.493z M902.385,920.075c-0.049-0.417-0.079-0.812-0.092-1.175l-0.021-1.521h5.671v0.953h-4.795
				l0.02,0.924c0.007,0.23,0.031,0.525,0.078,0.886c0.045,0.361,0.082,0.628,0.114,0.802h-0.866
				C902.469,920.784,902.433,920.493,902.385,920.075z"/>
			<path fill="#6D3155" d="M905.673,935.5h3.1v0.966h-8.474V935.5h4.505v-1.75h-2.732v-4.168h5.938v0.962h-2.012v2.242h2.012v0.964
				h-2.34L905.673,935.5L905.673,935.5z M905.162,932.785v-2.241h-2.272v2.241H905.162z"/>
			<path fill="#6D3155" d="M901.552,937.676h0.81v8.476h-0.81V937.676z M904.589,940.683c-0.497-0.632-0.839-1.263-1.023-1.895
				l0.702-0.671c0.494,1.45,1.093,2.354,1.796,2.729c0.702,0.371,1.252,0.557,1.65,0.557h0.587v1.02h-0.587
				c-0.398,0-0.953,0.199-1.666,0.597c-0.712,0.398-1.306,1.291-1.781,2.688l-0.703-0.672c0.186-0.649,0.54-1.279,1.063-1.891
				c0.522-0.606,1.019-1.021,1.486-1.23C905.596,941.724,905.086,941.319,904.589,940.683z"/>
			<path fill="#6D3155" d="M901.388,949.905h0.811v3.732h2.079v-2.599h4.015v0.963h-3.205v5.429h-0.81v-2.816h-2.079v3.768h-0.811
				V949.905L901.388,949.905z"/>
			<path fill="#6D3155" d="M900.492,960.573h2.637v0.963H901.3v5.286h-0.81L900.492,960.573L900.492,960.573z M902.639,965.644
				h3.438v-1.801h0.847v1.801h1.849v0.953h-6.133L902.639,965.644L902.639,965.644z M903.822,963.961
				c0.187-0.416,0.486-0.854,0.903-1.311c0.417-0.456,0.823-0.77,1.214-0.938c-0.462-0.16-0.896-0.442-1.305-0.853
				c-0.408-0.407-0.744-0.871-1.007-1.396l0.627-0.671c0.552,1.169,1.193,1.86,1.925,2.085c0.731,0.226,1.287,0.331,1.666,0.331
				h0.692v1.012h-0.692c-0.378,0-0.92,0.137-1.623,0.402c-0.702,0.266-1.275,0.915-1.718,1.949L903.822,963.961z"/>
			<path fill="#6D3155" d="M904.142,974.705v-3.717h0.799v8.473h-0.799v-3.728h-0.799c-0.046,0.919-0.211,1.625-0.501,2.116
				c-0.29,0.495-0.651,0.744-1.088,0.744c-0.469,0-0.854-0.29-1.155-0.871c-0.302-0.58-0.451-1.41-0.451-2.499
				c0-1.077,0.149-1.907,0.451-2.501c0.302-0.587,0.688-0.88,1.155-0.88c0.438,0,0.797,0.248,1.084,0.745
				c0.285,0.498,0.453,1.203,0.505,2.115L904.142,974.705L904.142,974.705z M902.385,976.867c0.156-0.418,0.234-0.969,0.234-1.643
				c0-0.681-0.076-1.229-0.227-1.648c-0.148-0.422-0.359-0.632-0.63-0.632c-0.257,0-0.464,0.21-0.622,0.632
				c-0.156,0.419-0.234,0.971-0.234,1.648c0,0.673,0.076,1.224,0.229,1.643c0.152,0.42,0.359,0.633,0.615,0.633
				C902.017,977.496,902.227,977.286,902.385,976.867z M906.871,976.492c-0.351,0.427-0.627,1.235-0.834,2.433l-0.703-0.589
				c0.072-0.68,0.264-1.301,0.578-1.861c0.315-0.562,0.606-0.976,0.877-1.235c-0.328-0.246-0.633-0.669-0.91-1.271
				c-0.279-0.604-0.461-1.214-0.545-1.829l0.703-0.589c0.147,0.933,0.381,1.666,0.698,2.2c0.317,0.537,0.636,0.854,0.958,0.948
				v-2.704h0.79v6.47h-0.79v-2.705C907.494,975.821,907.222,976.064,906.871,976.492z"/>
			<path fill="#6D3155" d="M900.641,990.172c-0.317-0.543-0.477-1.342-0.477-2.394c0-1.046,0.158-1.847,0.477-2.396
				c0.318-0.549,0.726-0.823,1.219-0.823s0.901,0.277,1.228,0.823c0.324,0.55,0.486,1.351,0.486,2.396
				c0,1.053-0.162,1.853-0.486,2.394c-0.325,0.543-0.732,0.813-1.228,0.813C901.365,990.988,900.959,990.715,900.641,990.172z
				 M902.539,989.348c0.17-0.396,0.254-0.918,0.254-1.558c0-0.654-0.084-1.18-0.25-1.573c-0.166-0.396-0.395-0.594-0.684-0.594
				c-0.275,0-0.502,0.198-0.68,0.594c-0.176,0.396-0.265,0.919-0.265,1.573c0,0.64,0.086,1.162,0.259,1.558
				c0.173,0.4,0.399,0.6,0.674,0.6C902.139,989.948,902.367,989.746,902.539,989.348z M905.885,990.725h-2.186v-0.963h5.073v0.963
				h-2.061v1.188h-0.827V990.725L905.885,990.725z M904.189,988.327c0.186-0.455,0.467-0.901,0.842-1.339
				c0.377-0.438,0.733-0.745,1.073-0.924c-0.409-0.183-0.823-0.492-1.235-0.938c-0.414-0.442-0.726-0.877-0.932-1.294l0.637-0.703
				c0.353,0.821,0.809,1.432,1.366,1.828c0.558,0.398,1.177,0.595,1.857,0.595h0.742v1.017h-0.742c-0.661,0-1.236,0.194-1.725,0.593
				c-0.486,0.396-0.873,0.976-1.156,1.739L904.189,988.327z"/>
			<path fill="#6D3155" d="M900.299,998.996h8.474v0.962h-8.474V998.996z M903.396,997.189c-0.049-0.635-0.072-1.121-0.072-1.454
				h-2.83v-0.967h2.82v-2.329h0.827v2.591c0,0.47,0.025,1.127,0.082,1.971c0.058,0.844,0.104,1.406,0.15,1.688h-0.819
				C903.496,998.327,903.442,997.828,903.396,997.189z M908.05,997.021c-0.366,0.402-0.792,0.605-1.281,0.605
				c-0.486,0-0.908-0.204-1.267-0.605c-0.354-0.401-0.533-0.948-0.533-1.637c0-0.68,0.177-1.227,0.533-1.637
				c0.357-0.411,0.779-0.615,1.267-0.615c0.488,0,0.915,0.207,1.281,0.615c0.366,0.41,0.549,0.957,0.549,1.637
				C908.6,996.073,908.416,996.617,908.05,997.021z M907.502,994.412c-0.219-0.211-0.459-0.32-0.723-0.32s-0.502,0.104-0.718,0.32
				c-0.215,0.211-0.321,0.535-0.321,0.974c0,0.439,0.105,0.759,0.321,0.972c0.218,0.215,0.454,0.32,0.718,0.32
				s0.504-0.104,0.723-0.32c0.218-0.212,0.326-0.532,0.326-0.972C907.828,994.949,907.721,994.625,907.502,994.412z"/>
			<path fill="#6D3155" d="M901.068,1006.582l-0.01-0.885l7.135,3.58v0.854L901.068,1006.582z M903.978,1011.078
				c-0.332,0.34-0.73,0.511-1.193,0.511c-0.461,0-0.863-0.171-1.203-0.511c-0.34-0.341-0.512-0.739-0.512-1.193
				c0-0.473,0.172-0.871,0.512-1.206s0.742-0.5,1.203-0.5c0.463,0,0.859,0.167,1.193,0.5s0.502,0.735,0.502,1.206
				C904.479,1010.339,904.312,1010.74,903.978,1011.078z M902.148,1010.51c0.167,0.167,0.378,0.251,0.635,0.251
				c0.25,0,0.457-0.087,0.621-0.251c0.164-0.167,0.246-0.375,0.246-0.625c0-0.258-0.082-0.471-0.246-0.632
				c-0.164-0.164-0.369-0.246-0.621-0.246c-0.256,0-0.469,0.082-0.635,0.246c-0.167,0.164-0.25,0.373-0.25,0.632
				C901.898,1010.135,901.981,1010.343,902.148,1010.51z M907.693,1007.189c-0.333,0.334-0.734,0.504-1.203,0.504
				c-0.47,0-0.871-0.17-1.203-0.504c-0.334-0.329-0.502-0.732-0.502-1.202c0-0.472,0.168-0.867,0.502-1.198
				c0.332-0.33,0.732-0.495,1.203-0.495c0.469,0,0.869,0.165,1.203,0.495c0.334,0.328,0.502,0.729,0.502,1.198
				C908.195,1006.454,908.027,1006.854,907.693,1007.189z M905.85,1006.63c0.17,0.168,0.384,0.25,0.642,0.25
				c0.262,0,0.479-0.083,0.645-0.25c0.167-0.169,0.25-0.383,0.25-0.646c0-0.259-0.083-0.472-0.25-0.638
				c-0.167-0.167-0.383-0.249-0.645-0.249c-0.258,0-0.473,0.083-0.642,0.249c-0.171,0.17-0.254,0.379-0.254,0.638
				C905.596,1006.247,905.68,1006.464,905.85,1006.63z"/>
		</g>
		<g enable-background="new    ">
			<path fill="#6D3155" d="M663.963,1096.99c-0.524-0.267-1.161-0.967-1.436-1.738c-0.197,0.825-0.854,1.635-1.476,1.973
				l-0.505-0.883c0.895-0.466,1.522-1.513,1.522-2.812v-0.792h0.887v0.746c0,1.303,0.725,2.313,1.476,2.641L663.963,1096.99z
				 M665.761,1099.244c0,1.102-0.771,1.812-2.021,1.812c-1.244,0-2.021-0.709-2.021-1.812c0-1.104,0.777-1.828,2.021-1.828
				C664.988,1097.416,665.761,1098.143,665.761,1099.244z M664.899,1099.244c0-0.555-0.444-0.919-1.161-0.919
				c-0.718,0-1.16,0.364-1.16,0.919c0,0.538,0.442,0.893,1.16,0.893C664.457,1100.136,664.899,1099.784,664.899,1099.244z
				 M665.726,1095.349v1.978h-0.847v-4.906h0.847v1.993h0.964v0.938L665.726,1095.349L665.726,1095.349z"/>
			<path fill="#6D3155" d="M668.637,1100.519v-2.655c-0.524,0.022-1.12,0.045-1.57,0.036l-0.108-0.956
				c0.574,0.01,1.305,0,1.912-0.036c0.861-0.06,1.763-0.128,2.269-0.21l0.067,0.883c-0.438,0.084-1.099,0.166-1.713,0.218v2.722
				L668.637,1100.519L668.637,1100.519z M667.387,1094.568c0-1.064,0.669-1.856,1.667-1.856s1.674,0.792,1.674,1.856
				c0,1.048-0.695,1.827-1.674,1.827C668.057,1096.395,667.387,1095.616,667.387,1094.568z M668.22,1094.556
				c0,0.521,0.356,0.896,0.834,0.896c0.491,0,0.833-0.373,0.833-0.896c0-0.524-0.354-0.919-0.833-0.919
				C668.582,1093.637,668.22,1094.032,668.22,1094.556z M671.498,1092.418h0.848v8.217h-0.848V1092.418L671.498,1092.418z"/>
		</g>
		<g enable-background="new    ">
			<path fill="#6D3155" d="M661.104,1108.424v-1.468c1.91-0.382,2.441-1.909,2.441-1.909h1.38v15.605h-2.293v-12.229
				L661.104,1108.424L661.104,1108.424z"/>
			<path fill="#6D3155" d="M669.535,1120.825c-3.08,0-3.06-3.376-3.06-3.376v-9.194c0,0-0.021-3.377,3.06-3.377
				c3.078,0,3.058,3.377,3.058,3.377v9.194C672.592,1117.45,672.613,1120.825,669.535,1120.825z M669.535,1107.111
				c-0.809,0-0.767,1.146-0.767,1.146v9.194c0,0-0.042,1.146,0.767,1.146c0.807,0,0.765-1.146,0.765-1.146v-9.194
				C670.299,1108.255,670.34,1107.111,669.535,1107.111z"/>
			<path fill="#6D3155" d="M677.049,1120.825c-3.079,0-3.059-3.376-3.059-3.376v-9.194c0,0-0.021-3.377,3.059-3.377
				c3.078,0,3.059,3.377,3.059,3.377v9.194C680.106,1117.45,680.127,1120.825,677.049,1120.825z M677.049,1107.111
				c-0.807,0-0.766,1.146-0.766,1.146v9.194c0,0-0.041,1.146,0.766,1.146c0.808,0,0.766-1.146,0.766-1.146v-9.194
				C677.813,1108.255,677.854,1107.111,677.049,1107.111z"/>
			<path fill="#6D3155" d="M683.037,1113.034c-1.678,0-1.656-1.825-1.656-1.825v-4.522c0,0-0.021-1.807,1.656-1.807
				c1.635,0,1.635,1.807,1.635,1.807v4.522C684.67,1111.206,684.67,1113.034,683.037,1113.034z M682.441,1120.658l5.731-15.606
				h1.359l-5.67,15.606H682.441z M683.037,1106.112c-0.426,0-0.383,0.571-0.383,0.571v4.522c0,0-0.041,0.574,0.383,0.574
				c0.381,0,0.36-0.574,0.36-0.574v-4.522C683.397,1106.683,683.418,1106.112,683.037,1106.112z M689.004,1120.825
				c-1.678,0-1.657-1.809-1.657-1.809v-4.521c0,0-0.021-1.824,1.657-1.824c1.635,0,1.635,1.824,1.635,1.824v4.521
				C690.638,1119.019,690.638,1120.825,689.004,1120.825z M689.004,1113.924c-0.426,0-0.383,0.574-0.383,0.574v4.521
				c0,0-0.041,0.598,0.383,0.598c0.382,0,0.361-0.598,0.361-0.598v-4.521C689.363,1114.498,689.385,1113.924,689.004,1113.924z"/>
		</g>
		<g enable-background="new    ">
			<path fill="#6D3155" d="M869.613,1110.601c0-2.188,2.396-2.171,2.396-2.171h6.532c0,0,2.4-0.018,2.4,2.171
				c0,2.19-2.4,2.176-2.4,2.176h-6.532C872.012,1112.777,869.613,1112.789,869.613,1110.601z M879.359,1110.601
				c0-0.568-0.814-0.544-0.814-0.544h-6.533c0,0-0.813-0.024-0.813,0.544c0,0.572,0.813,0.547,0.813,0.547h6.533
				C878.545,1111.143,879.359,1111.174,879.359,1110.601z"/>
			<path fill="#6D3155" d="M869.613,1119.099c0-1.188,1.281-1.175,1.281-1.175h3.215c0,0,1.299-0.017,1.299,1.175
				c0,1.164-1.299,1.164-1.299,1.164h-3.215C870.896,1120.26,869.613,1120.26,869.613,1119.099z M869.732,1114.434l11.092,4.076
				v0.966l-11.092-4.026V1114.434z M874.518,1119.099c0-0.302-0.406-0.271-0.406-0.271h-3.214c0,0-0.423-0.03-0.423,0.271
				c0,0.271,0.423,0.258,0.423,0.258h3.214C874.108,1119.359,874.518,1119.371,874.518,1119.099z M875.15,1114.861
				c0-1.192,1.299-1.181,1.299-1.181h3.213c0,0,1.283-0.016,1.283,1.181c0,1.159-1.283,1.159-1.283,1.159h-3.213
				C876.449,1116.02,875.15,1116.02,875.15,1114.861z M880.07,1114.861c0-0.305-0.406-0.272-0.406-0.272h-3.215
				c0,0-0.408-0.029-0.408,0.272c0,0.271,0.408,0.253,0.408,0.253h3.215C879.662,1115.117,880.07,1115.13,880.07,1114.861z"/>
		</g>
		<g enable-background="new    ">
			<path fill="#6D3155" d="M665.461,905.279c-2.188,0-2.172-2.396-2.172-2.396v-6.532c0,0-0.016-2.397,2.172-2.397
				c2.188,0,2.174,2.397,2.174,2.397v6.532C667.637,902.877,667.65,905.279,665.461,905.279z M665.461,895.531
				c-0.572,0-0.543,0.812-0.543,0.812v6.534c0,0-0.029,0.814,0.543,0.814c0.574,0,0.543-0.814,0.543-0.814v-6.534
				C666.006,896.343,666.035,895.531,665.461,895.531z"/>
			<path fill="#6D3155" d="M669.721,899.74c-1.19,0-1.178-1.301-1.178-1.301v-3.214c0,0-0.017-1.28,1.178-1.28
				c1.162,0,1.162,1.28,1.162,1.28v3.214C670.883,898.439,670.883,899.74,669.721,899.74z M669.298,905.159l4.073-11.093h0.967
				l-4.03,11.093H669.298z M669.721,894.821c-0.303,0-0.271,0.404-0.271,0.404v3.214c0,0-0.031,0.405,0.271,0.405
				c0.271,0,0.256-0.405,0.256-0.405v-3.214C669.977,895.225,669.992,894.821,669.721,894.821z M673.961,905.279
				c-1.192,0-1.178-1.283-1.178-1.283v-3.214c0,0-0.016-1.302,1.178-1.302c1.162,0,1.162,1.302,1.162,1.302v3.214
				C675.123,903.993,675.123,905.279,673.961,905.279z M673.961,900.372c-0.303,0-0.271,0.407-0.271,0.407v3.214
				c0,0-0.031,0.423,0.271,0.423c0.271,0,0.257-0.423,0.257-0.423v-3.214C674.218,900.782,674.231,900.372,673.961,900.372z"/>
		</g>
	</g>
</g>
<g id="busTitle">
	<g id="_x31_45">
		<g id="bus_1_">
			<g>
				<g>
					<path fill="#2D4CA1" d="M885.088,393.538c-2.611,12.762-13.9,22.361-27.424,22.361c-13.521,0-24.799-9.586-27.42-22.333
						L885.088,393.538z"/>
					<path fill="#2D4CA1" d="M775.773,393.538c-2.611,12.762-13.898,22.361-27.424,22.361c-13.52,0-24.797-9.586-27.418-22.333
						L775.773,393.538z"/>
					<path fill="#2D4CA1" d="M900.178,396.919H709.066c-16.004,0-29.025-13.023-29.025-29.032v-76.142
						c0-16.005,13.021-29.026,29.025-29.026h191.111c16.002,0,29.02,13.021,29.02,29.026l0.002,76.142
						C929.199,383.895,916.182,396.919,900.178,396.919z"/>
				</g>
			</g>
		</g>
		<g enable-background="new    ">
			<path fill="#FFFFFF" d="M748.422,293.854l10.695,0.006l-0.075,74.708l-10.69-0.006L748.422,293.854z"/>
			<path fill="#FFFFFF" d="M809.148,292.966l4.38,0.006l-0.035,41.915l8.345,0.006l-0.013,9.104l-8.338-0.006l-0.023,24.63
				l-10.427-0.012l0.024-24.63l-31.595-0.029v-4.613L809.148,292.966z M803.062,334.881l0.017-21.647l-17.303,21.63L803.062,334.881
				z"/>
			<path fill="#FFFFFF" d="M836.094,293.96l33.143,0.029v9.514l-23.425-0.018l-0.011,18.876c0.748-0.088,1.508-0.129,2.292-0.129
				c7.238,0.006,13.191,2.198,17.852,6.613c4.667,4.386,6.993,10.011,6.988,16.829c-0.006,7.029-2.315,12.736-6.936,17.122
				c-4.619,4.38-10.606,6.607-17.952,6.602c-6.057-0.006-11.939-1.475-17.635-4.387l0.012-11.027
				c5.38,3.497,10.63,5.251,15.764,5.257c4.491,0,8.264-1.305,11.311-3.905c3.052-2.627,4.572-5.848,4.583-9.632
				c0-3.953-1.649-7.28-4.964-9.923c-3.315-2.638-7.449-3.987-12.402-3.994c-4.239,0-7.135,0.368-8.666,1.082L836.094,293.96z"/>
		</g>
	</g>
	<g id="_x32_62">
		<g id="bus_2_">
			<g>
				<g>
					<path fill="#2D4CA1" d="M885.088,393.538c-2.611,12.762-13.9,22.361-27.424,22.361c-13.521,0-24.799-9.586-27.42-22.333
						L885.088,393.538z"/>
					<path fill="#2D4CA1" d="M775.773,393.538c-2.611,12.762-13.898,22.361-27.424,22.361c-13.52,0-24.797-9.586-27.418-22.333
						L775.773,393.538z"/>
					<path fill="#2D4CA1" d="M900.178,396.919H709.066c-16.004,0-29.025-13.023-29.025-29.032v-76.142
						c0-16.005,13.021-29.026,29.025-29.026h191.111c16.002,0,29.02,13.021,29.02,29.026l0.002,76.142
						C929.199,383.895,916.182,396.919,900.178,396.919z"/>
				</g>
			</g>
		</g>
		<g enable-background="new    ">
			<path fill="#FFFFFF" d="M743.782,357.187l29.056,0.041l-0.012,10.544l-48.285-0.042v-0.765l4.594-5.4
				c7.181-8.876,12.897-16.433,17.145-22.604c4.247-6.183,7.019-10.843,8.315-14.026c1.29-3.184,1.947-6.278,1.947-9.373
				c0-4.295-1.213-7.766-3.656-10.352c-2.431-2.61-5.675-3.925-9.713-3.925c-3.059-0.006-6.069,0.896-9.044,2.682
				c-2.975,1.805-5.639,4.337-8.017,7.599l0.012-13.883c5.938-4.838,12.055-7.264,18.363-7.264
				c6.654,0.018,12.144,2.229,16.457,6.69c4.313,4.456,6.47,10.071,6.458,16.947c0,3.064-0.544,6.332-1.619,9.814
				c-1.075,3.465-2.98,7.503-5.717,12.013c-2.736,4.534-7.384,10.705-13.942,18.53L743.782,357.187z"/>
			<path fill="#FFFFFF" d="M811.069,291.274l1.099-0.765l6.602,8.291c-5.831,3.752-10.67,7.855-14.511,12.317
				c-3.847,4.457-6.81,9.684-8.895,15.682c4.044-2.073,8.07-3.106,12.073-3.106c6.009,0.006,11.068,2.15,15.179,6.409
				c4.109,4.241,6.165,9.492,6.159,15.675c-0.007,6.374-2.246,11.774-6.738,16.2c-4.475,4.457-9.923,6.649-16.332,6.644
				c-7.169-0.007-12.969-2.533-17.384-7.557c-4.42-5.048-6.63-11.643-6.618-19.809c0-6.117,1.146-12.187,3.429-18.25
				c2.282-6.045,5.556-11.738,9.845-17.013C799.266,300.688,804.629,295.796,811.069,291.274z M793.011,338.131
				c-0.293,1.697-0.442,3.626-0.442,5.735c-0.006,4.283,1.243,7.813,3.734,10.585c2.484,2.754,5.687,4.176,9.581,4.176
				c3.495,0.006,6.38-1.171,8.662-3.536c2.282-2.39,3.417-5.353,3.423-8.979c0-3.698-1.207-6.655-3.626-8.931
				c-2.419-2.282-5.615-3.417-9.582-3.441c-2.037,0-3.883,0.317-5.55,0.92C797.545,335.317,795.49,336.446,793.011,338.131z"/>
			<path fill="#FFFFFF" d="M855.645,357.295l29.056,0.023l-0.013,10.562l-48.284-0.042v-0.765l4.594-5.418
				c7.181-8.858,12.891-16.409,17.144-22.586c4.248-6.183,7.02-10.843,8.316-14.026c1.29-3.184,1.947-6.278,1.947-9.391
				c0-4.277-1.213-7.748-3.656-10.34c-2.438-2.604-5.675-3.913-9.713-3.913c-3.059-0.023-6.069,0.891-9.044,2.676
				c-2.976,1.822-5.64,4.337-8.017,7.617l0.012-13.895c5.938-4.839,12.055-7.265,18.363-7.265
				c6.654,0.006,12.144,2.234,16.457,6.696c4.312,4.463,6.463,10.072,6.457,16.953c0,3.064-0.543,6.332-1.619,9.81
				c-1.08,3.458-2.986,7.502-5.717,12.013c-2.735,4.521-7.383,10.704-13.941,18.512L855.645,357.295z"/>
		</g>
	</g>
	<g id="_x31_218">
		<g id="bus_5_">
			<g>
				<g>
					<path fill="#568740" d="M885.088,393.538c-2.611,12.762-13.9,22.361-27.424,22.361c-13.521,0-24.799-9.586-27.42-22.333
						L885.088,393.538z"/>
					<path fill="#568740" d="M775.773,393.538c-2.611,12.762-13.898,22.361-27.424,22.361c-13.52,0-24.797-9.586-27.418-22.333
						L775.773,393.538z"/>
					<path fill="#568740" d="M900.178,396.919H709.066c-16.004,0-29.025-13.023-29.025-29.032v-76.142
						c0-16.005,13.021-29.026,29.025-29.026h191.111c16.002,0,29.02,13.021,29.02,29.026l0.002,76.142
						C929.199,383.895,916.182,396.919,900.178,396.919z"/>
				</g>
			</g>
		</g>
		<g>
			<g enable-background="new    ">
				<path fill="#FFFFFF" d="M721.848,293.269l10.797,0.012l-0.07,75.47l-10.799-0.012L721.848,293.269z"/>
				<path fill="#FFFFFF" d="M766.387,358.366l28.726,0.029l-0.006,10.443l-47.747-0.064v-0.756l4.537-5.341
					c7.1-8.777,12.746-16.244,16.953-22.328c4.199-6.132,6.946-10.722,8.229-13.87c1.281-3.148,1.92-6.227,1.92-9.286
					c0.006-4.247-1.193-7.686-3.604-10.226c-2.416-2.593-5.617-3.887-9.617-3.893c-3.024,0-6.002,0.886-8.943,2.652
					c-2.936,1.778-5.576,4.289-7.928,7.531l0.012-13.739c5.879-4.791,11.928-7.184,18.159-7.184
					c6.581,0.006,12.009,2.191,16.274,6.61c4.265,4.406,6.396,9.953,6.385,16.759c0,3.03-0.531,6.261-1.6,9.705
					c-1.07,3.438-2.949,7.419-5.666,11.896c-2.699,4.466-7.289,10.586-13.781,18.307L766.387,358.366z"/>
				<path fill="#FFFFFF" d="M812.944,293.387l10.798,0.012l-0.07,75.47l-10.799-0.012L812.944,293.387z"/>
				<path fill="#FFFFFF" d="M842.965,313.655c0.012-5.919,2.227-10.905,6.663-15.011c4.431-4.123,9.853-6.179,16.269-6.179
					c6.297,0.006,11.613,2.056,15.949,6.161c4.336,4.094,6.498,9.121,6.498,15.075c-0.013,6.729-3.155,12.281-9.422,16.682
					c6.981,4.047,10.461,9.978,10.461,17.828c-0.012,6.237-2.28,11.406-6.828,15.471c-4.537,4.069-10.268,6.096-17.179,6.09
					c-6.847-0.006-12.582-2.091-17.23-6.237c-4.638-4.159-6.953-9.316-6.941-15.459c0-7.691,3.568-13.575,10.71-17.722
					c-3.195-2.605-5.494-5.169-6.882-7.744C843.65,320.034,842.965,317.052,842.965,313.655z M878.479,348.648v-1.099
					c0-3.438-1.229-6.273-3.698-8.447c-2.463-2.162-5.659-3.272-9.581-3.278c-3.852-0.006-6.994,1.11-9.428,3.284
					c-2.434,2.198-3.65,5.039-3.65,8.536c0,3.491,1.229,6.338,3.721,8.53c2.481,2.186,5.701,3.302,9.664,3.308
					c3.781,0.006,6.895-1.004,9.322-3.013C877.25,354.467,878.467,351.862,878.479,348.648z M877.586,314.033
					c0-3.272-1.116-5.961-3.373-8.099c-2.244-2.145-5.098-3.196-8.553-3.202c-3.497-0.006-6.362,1.058-8.59,3.148
					c-2.244,2.098-3.366,4.762-3.366,8.04c0,3.148,1.169,5.812,3.526,8.051c2.369,2.233,5.192,3.373,8.506,3.373
					c3.279,0.006,6.066-1.116,8.377-3.325C876.429,319.799,877.58,317.128,877.586,314.033z"/>
			</g>
		</g>
	</g>
	<g id="_x32_015">
		<g id="bus_6_">
			<g>
				<g>
					<path fill="#568740" d="M885.088,393.538c-2.611,12.762-13.9,22.361-27.424,22.361c-13.521,0-24.799-9.586-27.42-22.333
						L885.088,393.538z"/>
					<path fill="#568740" d="M775.773,393.538c-2.611,12.762-13.898,22.361-27.424,22.361c-13.52,0-24.797-9.586-27.418-22.333
						L775.773,393.538z"/>
					<path fill="#568740" d="M900.178,396.919H709.066c-16.004,0-29.025-13.023-29.025-29.032v-76.142
						c0-16.005,13.021-29.026,29.025-29.026h191.111c16.002,0,29.02,13.021,29.02,29.026l0.002,76.142
						C929.199,383.895,916.182,396.919,900.178,396.919z"/>
				</g>
			</g>
		</g>
		<g>
			<g enable-background="new    ">
				<path fill="#FFFFFF" d="M730.668,356.552l28.432,0.029l-0.006,10.337l-47.258-0.047v-0.748l4.49-5.303
					c7.034-8.671,12.623-16.078,16.786-22.101c4.157-6.068,6.87-10.611,8.144-13.728c1.264-3.122,1.9-6.168,1.9-9.196
					c0.006-4.204-1.187-7.601-3.566-10.114c-2.391-2.573-5.56-3.848-9.512-3.854c-2.994-0.006-5.946,0.871-8.857,2.619
					c-2.906,1.766-5.52,4.251-7.841,7.455l0.012-13.594c5.812-4.735,11.798-7.115,17.967-7.109
					c6.519,0.006,11.886,2.187,16.106,6.542c4.222,4.368,6.332,9.875,6.326,16.593c0,2.999-0.537,6.18-1.59,9.601
					c-1.053,3.402-2.924,7.337-5.596,11.774c-2.678,4.414-7.22,10.478-13.646,18.112L730.668,356.552z"/>
				<path fill="#FFFFFF" d="M789.854,291.305c6.846,0.012,12.5,3.613,16.966,10.787c4.467,7.191,6.688,16.323,6.677,27.332
					c0,11.354-2.256,20.568-6.734,27.631c-4.479,7.109-10.285,10.617-17.412,10.605c-7.226-0.006-13.037-3.484-17.41-10.441
					c-4.373-6.935-6.561-16.148-6.549-27.625c0.012-11.349,2.28-20.568,6.817-27.66C776.739,294.837,782.627,291.3,789.854,291.305z
					 M789.958,301.443h-0.532c-4.098,0-7.36,2.52-9.764,7.577c-2.408,5.04-3.619,11.852-3.631,20.498
					c-0.006,8.852,1.164,15.786,3.509,20.813c2.355,5.028,5.595,7.56,9.729,7.56c4.128,0.012,7.396-2.514,9.787-7.542
					c2.386-5.021,3.59-11.845,3.602-20.469c0.006-8.646-1.135-15.575-3.427-20.69C796.939,304.045,793.84,301.449,789.958,301.443z"
					/>
				<path fill="#FFFFFF" d="M830.221,292.323l10.699,0.012l-0.076,74.695l-10.693-0.012L830.221,292.323z"/>
				<path fill="#FFFFFF" d="M860.566,292.352l33.15,0.034l-0.012,9.53l-23.41-0.041l-0.023,18.873
					c0.748-0.088,1.52-0.129,2.303-0.129c7.227,0.012,13.19,2.222,17.844,6.612c4.666,4.391,6.993,10.016,6.987,16.832
					c-0.006,7.022-2.315,12.729-6.94,17.107c-4.619,4.385-10.6,6.606-17.938,6.601c-6.062-0.006-11.938-1.474-17.645-4.385
					l0.018-11.026c5.373,3.502,10.635,5.268,15.763,5.273c4.49,0.006,8.255-1.321,11.313-3.917c3.039-2.625,4.572-5.847,4.572-9.63
					c0.012-3.952-1.644-7.267-4.959-9.921c-3.309-2.643-7.447-3.97-12.4-3.976c-4.238-0.023-7.127,0.345-8.658,1.058
					L860.566,292.352z"/>
			</g>
		</g>
	</g>
	<g id="_x32_112">
		<g id="bus_9_">
			<g>
				<g>
					<path fill="#568740" d="M885.088,393.538c-2.611,12.762-13.9,22.361-27.424,22.361c-13.521,0-24.799-9.586-27.42-22.333
						L885.088,393.538z"/>
					<path fill="#568740" d="M775.773,393.538c-2.611,12.762-13.898,22.361-27.424,22.361c-13.52,0-24.797-9.586-27.418-22.333
						L775.773,393.538z"/>
					<path fill="#568740" d="M900.178,396.919H709.066c-16.004,0-29.025-13.023-29.025-29.032v-76.142
						c0-16.005,13.021-29.026,29.025-29.026h191.111c16.002,0,29.02,13.021,29.02,29.026l0.002,76.142
						C929.199,383.895,916.182,396.919,900.178,396.919z"/>
				</g>
			</g>
		</g>
		<g>
			<g enable-background="new    ">
				<path fill="#FFFFFF" d="M736.852,356.443l28.539,0.029l-0.006,10.376l-47.436-0.047v-0.751l4.508-5.323
					c7.061-8.703,12.67-16.121,16.848-22.183c4.174-6.074,6.896-10.651,8.176-13.779c1.268-3.134,1.906-6.174,1.906-9.231
					c0.006-4.202-1.19-7.629-3.579-10.152c-2.399-2.564-5.581-3.861-9.548-3.867c-3.005-0.006-5.969,0.874-8.891,2.629
					c-2.917,1.79-5.541,4.267-7.869,7.482l0.012-13.645c5.832-4.754,11.842-7.142,18.033-7.136
					c6.543,0.006,11.931,2.194,16.168,6.584c4.236,4.378,6.355,9.895,6.35,16.649c0,3.01-0.54,6.209-1.596,9.642
					c-1.057,3.397-2.936,7.348-5.617,11.802c-2.688,4.448-7.248,10.517-13.697,18.181L736.852,356.443z"/>
				<path fill="#FFFFFF" d="M780.209,291.913l10.734,0.012l-0.071,74.977l-10.733-0.029L780.209,291.913z"/>
				<path fill="#FFFFFF" d="M816.503,291.96l10.739,0.012l-0.076,74.977l-10.733-0.012L816.503,291.96z"/>
				<path fill="#FFFFFF" d="M860.486,356.607l28.533,0.048v10.375l-47.453-0.064v-0.751l4.514-5.306
					c7.054-8.721,12.67-16.138,16.842-22.183c4.18-6.074,6.902-10.669,8.176-13.779c1.268-3.134,1.912-6.191,1.912-9.231
					c0-4.219-1.197-7.629-3.585-10.158c-2.399-2.576-5.575-3.855-9.548-3.861c-3.005,0-5.969,0.874-8.885,2.635
					c-2.923,1.767-5.541,4.261-7.876,7.477l0.012-13.645c5.833-4.753,11.843-7.142,18.034-7.136
					c6.543,0.006,11.936,2.177,16.174,6.566c4.23,4.384,6.35,9.895,6.344,16.655c0,3.011-0.535,6.221-1.596,9.636
					c-1.057,3.398-2.93,7.365-5.611,11.802c-2.688,4.448-7.254,10.517-13.697,18.204L860.486,356.607z"/>
			</g>
		</g>
	</g>
	<g id="_x32_211">
		<g id="bus_11_">
			<g>
				<g>
					<path fill="#568740" d="M885.088,393.538c-2.611,12.762-13.9,22.361-27.424,22.361c-13.521,0-24.799-9.586-27.42-22.333
						L885.088,393.538z"/>
					<path fill="#568740" d="M775.773,393.538c-2.611,12.762-13.898,22.361-27.424,22.361c-13.52,0-24.797-9.586-27.418-22.333
						L775.773,393.538z"/>
					<path fill="#568740" d="M900.178,396.919H709.066c-16.004,0-29.025-13.023-29.025-29.032v-76.142
						c0-16.005,13.021-29.026,29.025-29.026h191.111c16.002,0,29.02,13.021,29.02,29.026l0.002,76.142
						C929.199,383.895,916.182,396.919,900.178,396.919z"/>
				</g>
			</g>
		</g>
		<g>
			<g enable-background="new    ">
				<path fill="#FFFFFF" d="M739.438,355.677l27.746,0.028l-0.005,10.088l-46.12-0.046v-0.73l4.383-5.175
					c6.857-8.462,12.295-15.674,16.375-21.567c4.062-5.906,6.71-10.356,7.948-13.397c1.238-3.047,1.831-6.002,1.831-8.976
					c0.018-4.085-1.129-7.417-3.48-9.871c-2.316-2.493-5.426-3.754-9.289-3.759c-2.921-0.006-5.797,0.85-8.638,2.556
					c-2.819,1.74-5.397,4.148-7.657,7.274l0.012-13.266c5.672-4.622,11.514-6.943,17.527-6.938
					c6.367,0.006,11.605,2.134,15.726,6.402c4.114,4.257,6.173,9.62,6.173,16.188c0,2.927-0.523,6.036-1.551,9.374
					c-1.051,3.31-2.854,7.144-5.479,11.475c-2.602,4.324-7.052,10.225-13.305,17.676L739.438,355.677z"/>
				<path fill="#FFFFFF" d="M792.859,355.745l27.748,0.028l-0.006,10.088l-46.137-0.063v-0.73l4.394-5.157
					c6.887-8.479,12.312-15.691,16.403-21.567c4.023-5.923,6.693-10.356,7.914-13.397c1.238-3.041,1.861-6.014,1.861-8.97
					c0.011-4.102-1.153-7.423-3.487-9.876c-2.322-2.505-5.448-3.755-9.3-3.76c-2.922,0-5.785,0.855-8.645,2.562
					c-2.853,1.706-5.387,4.142-7.662,7.274l0.016-13.271c5.689-4.627,11.532-6.938,17.535-6.938
					c6.379,0.005,11.588,2.116,15.707,6.378c4.119,4.257,6.19,9.62,6.186,16.188c0,2.928-0.537,6.048-1.563,9.375
					c-1.026,3.326-2.853,7.166-5.466,11.491c-2.607,4.313-7.041,10.225-13.312,17.682L792.859,355.745z"/>
				<path fill="#FFFFFF" d="M840.789,292.982l10.436,0.011l-0.096,72.896l-10.425-0.011L840.789,292.982z"/>
				<path fill="#FFFFFF" d="M878.988,293.027l10.43,0.029l-0.067,72.896l-10.437-0.029L878.988,293.027z"/>
			</g>
		</g>
	</g>
	<g id="_x32_230">
		<g id="bus_12_">
			<g>
				<g>
					<path fill="#568740" d="M885.088,393.538c-2.611,12.762-13.9,22.361-27.424,22.361c-13.521,0-24.799-9.586-27.42-22.333
						L885.088,393.538z"/>
					<path fill="#568740" d="M775.773,393.538c-2.611,12.762-13.898,22.361-27.424,22.361c-13.52,0-24.797-9.586-27.418-22.333
						L775.773,393.538z"/>
					<path fill="#568740" d="M900.178,396.919H709.066c-16.004,0-29.025-13.023-29.025-29.032v-76.142
						c0-16.005,13.021-29.026,29.025-29.026h191.111c16.002,0,29.02,13.021,29.02,29.026l0.002,76.142
						C929.199,383.895,916.182,396.919,900.178,396.919z"/>
				</g>
			</g>
		</g>
		<g>
			<g enable-background="new    ">
				<path fill="#FFFFFF" d="M733.973,353.807l25.771,0.026l-0.005,9.369l-42.851-0.042v-0.679l4.075-4.807
					c6.375-7.858,11.441-14.557,15.215-20.031c3.768-5.485,6.227-9.618,7.376-12.442c1.145-2.83,1.728-5.575,1.728-8.336
					c0.006-3.795-1.076-6.89-3.264-9.168c-2.146-2.316-5.035-3.487-8.623-3.492c-2.713-0.006-5.389,0.789-8.022,2.374
					c-2.64,1.616-5.019,3.853-7.122,6.757l0.01-12.321c5.294-4.292,10.721-6.449,16.285-6.443
					c5.925,0.005,10.778,1.981,14.605,5.945c3.826,3.953,5.733,8.935,5.728,15.034c0,2.719-0.481,5.606-1.436,8.707
					c-0.97,3.078-2.649,6.634-5.087,10.656c-2.406,4.018-6.54,9.496-12.342,16.418L733.973,353.807z"/>
				<path fill="#FFFFFF" d="M779.432,353.871l25.771,0.026l-0.006,9.369l-42.834-0.058v-0.679l4.074-4.791
					c6.371-7.874,11.415-14.573,15.209-20.031c3.752-5.501,6.222-9.618,7.367-12.442c1.149-2.824,1.711-5.586,1.711-8.331
					c0.006-3.81-1.07-6.895-3.232-9.173c-2.168-2.326-5.051-3.487-8.627-3.492c-2.713,0-5.385,0.795-8.029,2.379
					c-2.623,1.596-5.002,3.848-7.105,6.757l0.01-12.326c5.268-4.298,10.694-6.443,16.285-6.443
					c5.908,0.005,10.764,1.966,14.584,5.925c3.826,3.953,5.766,8.935,5.76,15.034c0,2.718-0.498,5.616-1.468,8.706
					c-0.954,3.068-2.623,6.655-5.071,10.673c-2.433,4.006-6.545,9.496-12.369,16.423L779.432,353.871z"/>
				<path fill="#FFFFFF" d="M822.875,323.866h0.578c4.223,0.005,7.456-0.843,9.666-2.602c2.188-1.728,3.296-4.261,3.301-7.589
					c0-3.021-1.06-5.442-3.211-7.34c-2.146-1.87-4.966-2.824-8.452-2.824c-3.524-0.005-7.431,1.086-11.728,3.275l0.005-9.259
					c3.942-1.944,8.241-2.94,12.894-2.931c6.222,0.006,11.15,1.648,14.748,4.902c3.598,3.27,5.395,7.716,5.389,13.365
					c-0.004,3.423-0.699,6.306-2.098,8.647c-1.41,2.349-3.604,4.356-6.666,6.016c2.648,1.022,4.589,2.305,5.812,3.794
					c1.225,1.505,2.162,3.328,2.84,5.475c0.68,2.151,1.018,4.409,1.018,6.788c-0.005,5.919-1.981,10.789-5.924,14.658
					c-3.959,3.863-8.935,5.766-14.928,5.766c-5.141-0.011-10.096-1.245-14.87-3.736l0.011-10.551
					c5.092,3.201,10.062,4.822,14.869,4.827c3.26,0.006,5.888-0.98,7.869-2.898c1.977-1.924,2.989-4.504,2.994-7.7
					c0-2.681-0.82-5.034-2.464-7.026c-0.964-1.134-2.04-1.966-3.222-2.501c-1.188-0.552-3.736-1.05-7.631-1.532l-0.875-0.116
					L822.875,323.866z"/>
				<path fill="#FFFFFF" d="M874.924,294.752c6.221,0.005,11.329,3.28,15.378,9.777c4.043,6.518,6.062,14.796,6.052,24.79
					c-0.006,10.28-2.046,18.627-6.105,25.028c-4.059,6.444-9.32,9.618-15.781,9.613c-6.549-0.005-11.816-3.158-15.781-9.464
					c-3.959-6.291-5.951-14.638-5.94-25.04c0.017-10.291,2.072-18.648,6.185-25.071
					C863.041,297.964,868.373,294.747,874.924,294.752z M875.023,303.962h-0.509c-3.72-0.005-6.672,2.284-8.854,6.862
					c-2.152,4.573-3.275,10.747-3.275,18.585c-0.006,8.023,1.027,14.309,3.18,18.86c2.131,4.562,5.066,6.847,8.812,6.857
					c3.736,0.011,6.682-2.284,8.871-6.836c2.194-4.552,3.26-10.742,3.28-18.558c0-7.844-1.022-14.113-3.101-18.75
					C881.346,306.288,878.531,303.968,875.023,303.962z"/>
			</g>
		</g>
	</g>
	<g id="_x32_233">
		<g id="bus_10_">
			<g>
				<g>
					<path fill="#568740" d="M885.088,393.538c-2.611,12.762-13.9,22.361-27.424,22.361c-13.521,0-24.799-9.586-27.42-22.333
						L885.088,393.538z"/>
					<path fill="#568740" d="M775.773,393.538c-2.611,12.762-13.898,22.361-27.424,22.361c-13.52,0-24.797-9.586-27.418-22.333
						L775.773,393.538z"/>
					<path fill="#568740" d="M900.178,396.919H709.066c-16.004,0-29.025-13.023-29.025-29.032v-76.142
						c0-16.005,13.021-29.026,29.025-29.026h191.111c16.002,0,29.02,13.021,29.02,29.026l0.002,76.142
						C929.199,383.895,916.182,396.919,900.178,396.919z"/>
				</g>
			</g>
		</g>
		<g>
			<g enable-background="new    ">
				<path fill="#FFFFFF" d="M731.666,355.069l27.293,0.028v9.929l-45.41-0.045v-0.719l4.318-5.094
					c6.75-8.328,12.119-15.427,16.117-21.229c3.999-5.812,6.605-10.192,7.823-13.186c1.214-2.999,1.819-5.908,1.819-8.834
					c0-4.021-1.129-7.3-3.447-9.716c-2.275-2.453-5.336-3.694-9.138-3.701c-2.875-0.005-5.711,0.838-8.503,2.517
					c-2.785,1.713-5.317,4.083-7.547,7.16l0.012-13.057c5.593-4.549,11.344-6.835,17.257-6.829
					c6.262,0.006,11.423,2.101,15.478,6.302c4.049,4.188,6.076,9.468,6.07,15.932c0,2.881-0.511,5.941-1.521,9.227
					c-1.033,3.263-2.809,7.031-5.396,11.294c-2.562,4.257-6.93,10.063-13.086,17.397L731.666,355.069z"/>
				<path fill="#FFFFFF" d="M829.828,323.34h0.618c4.459,0.005,7.901-0.893,10.226-2.758c2.337-1.831,3.51-4.515,3.516-8.042
					c0-3.201-1.128-5.768-3.402-7.777c-2.274-1.982-5.262-2.994-8.975-2.994c-3.717-0.005-7.855,1.151-12.41,3.472l0.005-9.812
					c4.179-2.061,8.733-3.117,13.663-3.105c6.588,0.006,11.816,1.747,15.629,5.195c3.813,3.464,5.718,8.176,5.711,14.162
					c-0.005,3.628-0.746,6.684-2.234,9.165c-1.488,2.488-3.818,4.616-7.053,6.375c2.808,1.083,4.857,2.442,6.16,4.021
					c1.297,1.595,2.279,3.526,2.998,5.801c0.719,2.28,1.084,4.673,1.084,7.194c-0.006,6.272-2.1,11.434-6.283,15.533
					c-4.195,4.094-9.469,6.11-15.826,6.11c-5.436-0.012-10.687-1.32-15.746-3.959l0.01-11.182c5.393,3.392,10.66,5.11,15.753,5.116
					c3.46,0.005,6.239-1.039,8.335-3.072c2.094-2.038,3.172-4.773,3.184-8.159c0-2.842-0.871-5.336-2.611-7.447
					c-1.027-1.201-2.162-2.083-3.42-2.65c-1.264-0.584-3.959-1.112-8.082-1.623l-0.926-0.123L829.828,323.34z"/>
				<path fill="#FFFFFF" d="M872.983,323.389h0.595c4.487,0.006,7.902-0.915,10.25-2.751c2.347-1.854,3.515-4.538,3.525-8.064
					c0-3.185-1.134-5.769-3.437-7.756c-2.269-2.005-5.257-2.998-8.957-2.998c-3.734-0.007-7.874,1.14-12.428,3.476l0.006-9.811
					c4.194-2.062,8.749-3.123,13.663-3.117c6.609,0.006,11.815,1.735,15.629,5.184c3.812,3.477,5.717,8.176,5.711,14.163
					c-0.006,3.645-0.74,6.683-2.219,9.176c-1.477,2.494-3.824,4.605-7.053,6.363c2.791,1.084,4.874,2.46,6.144,4.043
					c1.319,1.578,2.309,3.504,3.026,5.778c0.72,2.28,1.073,4.673,1.068,7.195c-0.006,6.289-2.084,11.45-6.279,15.538
					c-4.184,4.089-9.463,6.11-15.82,6.11c-5.447-0.006-10.687-1.32-15.758-3.959l0.012-11.192c5.402,3.403,10.664,5.104,15.758,5.11
					c3.471,0.006,6.239-1.039,8.346-3.061c2.105-2.045,3.161-4.769,3.167-8.171c0-2.825-0.854-5.324-2.611-7.447
					c-1.022-1.196-2.162-2.061-3.415-2.65c-1.246-0.584-3.947-1.09-8.086-1.623l-0.916-0.118L872.983,323.389z"/>
				<path fill="#FFFFFF" d="M784.237,355.069l27.293,0.028v9.929l-45.41-0.045v-0.719l4.319-5.094
					c6.75-8.328,12.119-15.427,16.117-21.229c3.998-5.812,6.604-10.192,7.822-13.186c1.214-2.999,1.82-5.908,1.82-8.834
					c0-4.021-1.129-7.3-3.448-9.716c-2.274-2.453-5.335-3.694-9.138-3.701c-2.875-0.005-5.711,0.838-8.502,2.517
					c-2.785,1.713-5.318,4.083-7.548,7.16l0.011-13.057c5.594-4.549,11.345-6.835,17.258-6.829
					c6.262,0.006,11.424,2.101,15.478,6.302c4.05,4.188,6.077,9.468,6.071,15.932c0,2.881-0.512,5.941-1.522,9.227
					c-1.033,3.263-2.808,7.031-5.397,11.294c-2.561,4.257-6.93,10.063-13.084,17.397L784.237,355.069z"/>
			</g>
		</g>
	</g>
	<g id="_x32_233_2_">
		<g id="bus_17_">
			<g>
				<g>
					<path fill="#568740" d="M885.088,393.538c-2.611,12.762-13.9,22.361-27.424,22.361c-13.521,0-24.799-9.586-27.42-22.333
						L885.088,393.538z"/>
					<path fill="#568740" d="M775.773,393.538c-2.611,12.762-13.898,22.361-27.424,22.361c-13.52,0-24.797-9.586-27.418-22.333
						L775.773,393.538z"/>
					<path fill="#568740" d="M900.178,396.919H709.066c-16.004,0-29.025-13.023-29.025-29.032v-76.142
						c0-16.005,13.021-29.026,29.025-29.026h191.111c16.002,0,29.02,13.021,29.02,29.026l0.002,76.142
						C929.199,383.895,916.182,396.919,900.178,396.919z"/>
				</g>
			</g>
		</g>
		<g>
			<g enable-background="new    ">
				<path fill="#FFFFFF" d="M731.996,322.984h0.571c4.163,0.006,7.384-0.849,9.575-2.569c2.155-1.73,3.252-4.237,3.258-7.53
					c0.004-2.974-1.028-5.386-3.184-7.258c-2.124-1.856-4.908-2.801-8.359-2.801c-3.487-0.005-7.353,1.08-11.611,3.252l0.012-9.161
					c3.9-1.94,8.154-2.916,12.758-2.911c6.152,0.005,11.034,1.621,14.595,4.84c3.561,3.241,5.339,7.636,5.333,13.227
					c-0.005,3.403-0.697,6.24-2.07,8.568c-1.406,2.312-3.566,4.301-6.604,5.941c2.623,1.013,4.558,2.281,5.754,3.766
					c1.211,1.484,2.135,3.283,2.805,5.406c0.661,2.124,1.013,4.358,1.013,6.718c-0.006,5.863-1.962,10.678-5.862,14.505
					c-3.918,3.818-8.843,5.711-14.783,5.706c-5.078-0.005-9.98-1.232-14.711-3.707l0.012-10.436
					c5.039,3.184,9.957,4.771,14.714,4.776c3.231,0.006,5.832-0.97,7.777-2.863c1.956-1.903,2.974-4.462,2.974-7.624
					c0.005-2.654-0.808-4.972-2.434-6.954c-0.965-1.117-2.024-1.945-3.193-2.476c-1.18-0.545-3.697-1.022-7.547-1.516l-0.859-0.11
					L731.996,322.984z"/>
				<path fill="#FFFFFF" d="M779.268,352.766l25.502,0.026l-0.011,9.271l-42.398-0.059v-0.671l4.032-4.74
					c6.33-7.793,11.317-14.422,15.077-19.823c3.702-5.443,6.151-9.518,7.269-12.313c1.144-2.795,1.709-5.527,1.709-8.243
					c0.011-3.771-1.059-6.822-3.199-9.077c-2.145-2.298-5.013-3.451-8.558-3.456c-2.685,0-5.307,0.786-7.939,2.354
					c-2.606,1.578-4.956,3.808-7.048,6.687l0.031-12.198c5.223-4.253,10.593-6.377,16.125-6.377
					c5.854,0.006,10.636,1.945,14.433,5.868c3.792,3.912,5.695,8.836,5.679,14.878c0,2.69-0.492,5.559-1.437,8.615
					c-0.949,3.047-2.611,6.588-5.019,10.562c-2.402,3.965-6.481,9.397-12.24,16.251L779.268,352.766z"/>
				<path fill="#FFFFFF" d="M826.135,352.813l25.496,0.026l-0.01,9.271l-42.389-0.042v-0.671l4.033-4.762
					c6.309-7.772,11.301-14.406,15.051-19.823c3.729-5.427,6.161-9.518,7.305-12.308c1.133-2.795,1.673-5.517,1.678-8.249
					c0-3.755-1.039-6.802-3.203-9.077c-2.125-2.286-4.988-3.445-8.533-3.445c-2.685-0.011-5.328,0.786-7.944,2.354
					c-2.581,1.6-4.95,3.812-7.033,6.686l0.017-12.197c5.213-4.248,10.582-6.377,16.115-6.377c5.848,0.005,10.666,1.956,14.447,5.884
					c3.781,3.912,5.674,8.841,5.674,14.883c-0.005,2.69-0.482,5.548-1.426,8.61c-0.977,3.032-2.623,6.576-5.041,10.546
					c-2.396,3.971-6.471,9.393-12.233,16.246L826.135,352.813z"/>
				<path fill="#FFFFFF" d="M877.3,294.262c6.146,0.005,11.207,3.246,15.214,9.676c4.001,6.45,6.004,14.642,5.994,24.532
					c-0.011,10.179-2.025,18.438-6.042,24.768c-4.017,6.377-9.229,9.518-15.616,9.513c-6.492-0.005-11.695-3.125-15.629-9.355
					c-3.911-6.24-5.883-14.495-5.873-24.789c0.011-10.184,2.051-18.454,6.121-24.81C865.537,297.441,870.808,294.258,877.3,294.262z
					 M877.389,303.377h-0.482c-3.676-0.005-6.597,2.276-8.758,6.791c-2.129,4.536-3.24,10.636-3.24,18.401
					c-0.011,7.93,1.007,14.149,3.146,18.653c2.107,4.521,5.014,6.786,8.721,6.792c3.692,0.005,6.603-2.261,8.784-6.771
					c2.129-4.504,3.22-10.63,3.235-18.364c0.005-7.751-1.012-13.955-3.047-18.554C883.646,305.679,880.866,303.382,877.389,303.377z
					"/>
			</g>
		</g>
	</g>
</g>
<line fill="none" stroke="#000000" stroke-width="0.4228" stroke-miterlimit="10" x1="680" y1="685" x2="684" y2="685"/>
</svg>
